<svg id="Layer_1" data-name="Layer 1" xmlns="http://www.w3.org/2000/svg" viewBox="0 0 363.28 276.39"><defs><style>.cls-1{fill:#0e8e5b;}.cls-2{fill:#0390a3;}.cls-3{fill:#00bae1;}.cls-4{fill:#fff;}.cls-5{fill:#fbc425;}</style></defs><title>bird</title><path class="cls-1" d="M739.36,637.54c-7.4-11.92-22.45-40-19.71-76.66a120.38,120.38,0,0,1,7.74-34.24,222.09,222.09,0,0,1-52.86-22c-51.58-29.93-82.22-77.68-84.78-75.67-2.14,1.68,25.82,30,20.24,61.54A51.46,51.46,0,0,1,602.65,509a62.08,62.08,0,0,1,23.15,65.35,49.9,49.9,0,0,1,23,7.17c16.8,10.31,21.63,27.47,22.67,31.63a62.64,62.64,0,0,1,27-1.34C722.17,615.95,735.8,632.82,739.36,637.54Z" transform="translate(-589.63 -428.86)"/><path class="cls-1" d="M763.26,647a195.24,195.24,0,0,0,57.46-58.9,190.9,190.9,0,0,0,17.83-36.94c11.11,2.18,26.45,3.54,43.29-.88,42.4-11.14,66.92-51.76,70.75-48.73,2.95,2.33-15.68,23.07-17.32,55.21a91.91,91.91,0,0,0,1.23,20.29c-2.19.3-26.69,4-36.17,24.78A40.57,40.57,0,0,0,897,622.69c-3.68-1.25-21.84-7-40.66,2.48a52,52,0,0,0-21.46,20.48,67.22,67.22,0,0,0-27.77-9.35C785.22,634.06,768.75,643.54,763.26,647Z" transform="translate(-589.63 -428.86)"/><path class="cls-2" d="M777.33,699.11a10,10,0,0,1-13.74,5.11,47.89,47.89,0,0,1-5-6.58A48.71,48.71,0,0,1,752.48,683c.81,3.95,1.66,8.05,2.4,12.23.58,3,1,6,1.55,8.9a27.48,27.48,0,0,1-8.09.85,28.46,28.46,0,0,1-10.68-2.56c0-2.71,0-5.5.08-8.28,0-4.64,0-9.21-.08-13.78a40.26,40.26,0,0,0-.12-8.24q.12,4.12.12,8.24a39.4,39.4,0,0,1-7.43,20.52,26.78,26.78,0,0,1-8.13-4.06,32.12,32.12,0,0,1-3.48-3.1A42.1,42.1,0,0,1,720,688.2c3.41-10.45,10.18-16,9.72-16.41s-7.63,5.46-14.75,13.82c-1.28,1.47-2.36,2.79-3.1,3.79-1.59-.58-3.29-1.24-5.07-2.09a46.71,46.71,0,0,1-8.79-5.61,88.22,88.22,0,0,0,30.5-21.21,84.62,84.62,0,0,0,7.51-9.37s4.41,9.29,19.24,7.94a49.93,49.93,0,0,0,2.21,13C762.19,687,772.64,695.67,777.33,699.11Z" transform="translate(-589.63 -428.86)"/><path class="cls-3" d="M848.78,601a21.63,21.63,0,0,1,5.34,1.16,36.65,36.65,0,0,1-7.16,7.2,38.4,38.4,0,0,1-14.59,6.93,9.13,9.13,0,0,0,2.44,4.65,11,11,0,0,0,8.67,3.14,36.56,36.56,0,0,1-17.19,5.38,36,36,0,0,1-8-.5,30.89,30.89,0,0,0,5.15,5.81,29.28,29.28,0,0,0,7.43,4.61A31.58,31.58,0,0,1,807,636c-5.61,6.19-13.82,8.9-20.44,6.62a11.78,11.78,0,0,1-5.19-3.44,58.06,58.06,0,0,1-5.88,7.39c-6.08,6.54-13.35,11.15-20.21,12.46-14.83,1.36-19.24-7.94-19.24-7.94a46,46,0,0,1-8.63-16.53v-.12a54.11,54.11,0,0,1-2.36-14.36c-.43.35-.81.74-1.2,1a24.64,24.64,0,0,1-16.45-3.33,24.28,24.28,0,0,1-9.72-11.92,12.57,12.57,0,0,1-7.94,2.79c-5.07,0-9.79-3.41-12.19-8.55a20.38,20.38,0,0,0,9.95-1.28,19.61,19.61,0,0,0,4.26-2.4,41.9,41.9,0,0,1-14.55-4.57,42.8,42.8,0,0,1-12.5-9.95,25.75,25.75,0,0,0,11.38.31,22.14,22.14,0,0,0,6.08-2.13A49.89,49.89,0,0,1,670.72,574a51.57,51.57,0,0,1-9.29-8.55,35.51,35.51,0,0,1,11.73-1.28,34.53,34.53,0,0,1,8.4,1.74,40.69,40.69,0,0,1-14.48-30.5c11.34,15.37,23.07,22.37,32.09,25.93,15.79,6.12,26.52,2.75,35.19,11a25.83,25.83,0,0,1,7.2,13.2,38.52,38.52,0,0,1,3.37-2.17,31.11,31.11,0,0,1,3.75-1.9,21.85,21.85,0,0,1-4-12.08,6.41,6.41,0,0,1-3.21-.81,12.87,12.87,0,0,0,3.21-3.37,6.78,6.78,0,0,0,.54-.89,14.6,14.6,0,0,1,1.55-4.41.13.13,0,0,0,0-.08A22.86,22.86,0,0,1,759,548.46a6.55,6.55,0,0,0-1.24-2.9,7.1,7.1,0,0,0-8.4-1.63,8.6,8.6,0,0,1,9.41-2.86,8,8,0,0,1,4.3,4.14c-.31-1.24-.58-2.94.23-4.18,1.55-2.28,5.3-1,7.32-3.25.77-1,1.51-2.59.81-6.08A13.85,13.85,0,0,1,774,540a13.06,13.06,0,0,1-2.48,7.16c.12,0,.27,0,.39.08s.27.08.43.15a33.92,33.92,0,0,0,7-7.7,37.28,37.28,0,0,0,4.22-9.14,23.48,23.48,0,0,1-2.48,14.28,18.82,18.82,0,0,1-3.21,4.53,22.91,22.91,0,0,1,11.61,15.37l0,0a6.27,6.27,0,0,1,.15.74,9.41,9.41,0,0,0,1,2.75,12.26,12.26,0,0,0,3.41,4.06c-1.12,0-2.17,0-3.33,0a9.4,9.4,0,0,1-1,0,1.37,1.37,0,0,1-.15.66c.27.7.54,1.39.89,2.25a25.67,25.67,0,0,0,2.79,4.34,7.21,7.21,0,0,1-3.72-.39,5.87,5.87,0,0,1-1.55-.93,23.13,23.13,0,0,1-8.13,9.44,37.85,37.85,0,0,1,5.65,8.44c4-4.22,8.9-7.2,14.17-7.93,8.32-1.2,11.5,4,21.13,5.5,8.13,1.2,20.21-.39,36.62-13.82A40.55,40.55,0,0,1,838.29,603,20.9,20.9,0,0,1,848.78,601Z" transform="translate(-589.63 -428.86)"/><path class="cls-3" d="M737.66,680.39c0-2.75-.06-5.5-.13-8.25A41.9,41.9,0,0,1,737.66,680.39Z" transform="translate(-589.63 -428.86)"/><ellipse class="cls-4" cx="753.01" cy="631.69" rx="26.62" ry="19.8" transform="translate(-632.25 779.93) rotate(-75.95)"/><path class="cls-4" d="M765.43,570.7c1.68-4.28.74-8.81-2.18-11.28a8.71,8.71,0,0,0-8.53-1.42c-5.77,2.25-8.36,11.77-6,19,2.74,8.36,11.37,11.2,13.09,11.72.75.23,12.39,3.52,19.6-4.11,5.2-5.5,6.7-15.22,2.6-19.32a8.27,8.27,0,0,0-7.44-2c-3.58.79-6.45,4-7.2,8.26Z" transform="translate(-589.63 -428.86)"/><path class="cls-2" d="M731,613.41a55.4,55.4,0,0,0-3.56,21.06,54.11,54.11,0,0,1-2.36-14.36C725.3,620.11,727.43,620,731,613.41Z" transform="translate(-589.63 -428.86)"/><path class="cls-2" d="M781.39,639.19a58.06,58.06,0,0,1-5.88,7.39,104.38,104.38,0,0,0,1.82-18.08A14.93,14.93,0,0,0,781.39,639.19Z" transform="translate(-589.63 -428.86)"/><path class="cls-2" d="M785.53,596a25.78,25.78,0,0,0-1.63,2.4,27.82,27.82,0,0,0-1.7,3.41c.35-1.16.66-2.88-.23-4s-2.13-.93-5.61-1c-2-.06-4-.06-5.93-.26a57.61,57.61,0,0,1-9.44-1.7c1.16-.35,2.28-.7,3.41-1.08-7.45-1.07-12.08-2.89-15-4.45-1.07-.57-3.22-1.8-5.06-1s-2.34,2.94-2.6,4.31a16.14,16.14,0,0,0,.27-4.72,13.37,13.37,0,0,0-.43-2.4,38.52,38.52,0,0,1,3.37-2.17,31.11,31.11,0,0,1,3.75-1.9s12,16.22,31.2,6.12a37.92,37.92,0,0,1,3.72,5A33.89,33.89,0,0,1,785.53,596Z" transform="translate(-589.63 -428.86)"/><path class="cls-5" d="M761.74,571.67a7.3,7.3,0,0,1,11,2.3,5,5,0,0,1-2.54,1.33,12,12,0,0,0-1.81.18,1.69,1.69,0,1,1-3.21-.67c-.79-.6-1.5-.44-2.3-1.09A3.55,3.55,0,0,1,761.74,571.67Z" transform="translate(-589.63 -428.86)"/></svg>