<svg id="Layer_1" data-name="Layer 1" xmlns="http://www.w3.org/2000/svg" xmlns:xlink="http://www.w3.org/1999/xlink" viewBox="0 0 1920 1080"><defs><style>.cls-1{fill:url(#linear-gradient);}.cls-2{fill:#051932;}</style><linearGradient id="linear-gradient" x1="946" y1="1706.33" x2="946" y2="785.78" gradientUnits="userSpaceOnUse"><stop offset="0" stop-color="#fff"/><stop offset="1" stop-color="#fff" stop-opacity="0"/></linearGradient></defs><title>blue treeline</title><rect class="cls-1" x="-73" y="769.58" width="2038" height="369.42"/><path class="cls-2" d="M1932,1008.07a145.2,145.2,0,0,1-32.38-58.4,141.92,141.92,0,0,1-5.12-36.09,139.42,139.42,0,0,1-7.54,34.09c-11,30.7-30.34,50.37-42,60.4,12.15-.14,19.69-3.62,24.45-7.07,3.88-2.81,7.18-6.5,8.28-5.74,1.52,1.05-2.7,9.56-3.65,11.49-4.25,8.59-12.36,21.45-29.08,37.32a135.3,135.3,0,0,0-31.5-48,151.08,151.08,0,0,1-6.21,15.6c-12.66,27.25-31.26,45.93-46.28,57.9-10.09-28.44-23.07-67.31-22.68-78.81.06-1.79.25-7.41,1.27-7.51.77-.08,1.33,3.12,2.1,4.39,4.61,7.58,14.35,10.45,23.8,11.44a219.5,219.5,0,0,1-43.5-79.5,140.44,140.44,0,0,1-5.72,21.1,142.15,142.15,0,0,1-21.28,38.9c10.05-2,14.38-5.83,16.45-9.07.83-1.31,1.76-3.25,2.45-3.08,1.42.34.37,9.26.05,12-1.89,16.06-17.42,52.93-27.95,76.69-21.58-37.84-25.72-48.48-24.18-49.5.64-.43,2,1,5.25,1.81,4.85,1.17,9.46-.2,12.93-1.81a104.61,104.61,0,0,1-25.5-52.5A88.8,88.8,0,0,1,1649,983a91.24,91.24,0,0,1-29.5,39.75,21,21,0,0,0,11.38-.62c3.54-1.28,5.61-3.25,6.61-2.52,1.67,1.22-1.68,8.46-2.11,9.4-2.5,5.41-9.91,17.62-36.32,40.56-25.64-30.74-30.84-50.67-32.06-60.56-.27-2.18-1.86-15.12,1.69-16.38,2-.7,4.21,2.65,8.56,5.63,6.46,4.43,13.59,5.31,18.81,5.32a172.91,172.91,0,0,1-42-102,382.85,382.85,0,0,1-61.5,108A131.72,131.72,0,0,0,1513,998.25c10.44-7.06,14.71-12.14,15.8-11.37,1.6,1.13-4.35,14.14-36.24,64.68a58.6,58.6,0,0,1-27.06-21.06,57.23,57.23,0,0,1-8.93-20.93,134.23,134.23,0,0,1-21,60c-16.07-23.93-21.22-40.48-23.07-50.56-.29-1.61-2.39-13.09-.59-13.65,1.05-.33,2.66,3.32,5.34,6.78,3,3.81,8.13,8.55,17.75,11.88a301.35,301.35,0,0,1-40-122.43A231.29,231.29,0,0,1,1352,978a41.1,41.1,0,0,0,16.5-5.75c6.33-3.94,9.41-8.45,10.5-7.75,1.48.95-2.39,10.33-7,18.75a134.67,134.67,0,0,1-26.5,33.75c6.05,1.71,11.82,1.84,17-.25,3.24-1.31,5.41-3.15,6.35-2.39,1.69,1.36-2.61,9.59-5.1,13.64-4,6.49-12.16,16.61-29.75,25-23.15-36.85-26.78-47.52-24.59-49.22,1.35-1.06,4.48,1.65,10.59,1.35a23.69,23.69,0,0,0,13-5.12,140.15,140.15,0,0,1-52-63,73.45,73.45,0,0,1-.5,19.5,74.55,74.55,0,0,1-11.81,29.72c2.9.56,7,.82,10.31-1.47,2.53-1.77,3.49-4.33,4.24-4.08,1.13.38.1,6.72-.74,10.33-1.63,7-6,18.82-19.42,35.07a27.51,27.51,0,0,0,13.55-2.07c4.25-1.88,5.62-3.93,6.65-3.52,2.13.84,1.25,11.6-11.2,53.59A128.06,128.06,0,0,1,1237.5,1030a122.58,122.58,0,0,1-6.5-17,45.47,45.47,0,0,1-4.5,12,48.53,48.53,0,0,1-21.5,20c4.06,1.08,9.14,1.61,13.83-.67,2.06-1,3.17-2.12,3.52-1.84.7.57-2.36,6.26-17.36,27.07-19-25.22-27.65-43-32-54.06-1.42-3.6-6.07-15.45-4-16.64,1.11-.63,3.55,2.08,6,4.14,4.59,3.91,12.12,8,25,9-12.32-13.94-29-37.2-36.5-69.5A150.27,150.27,0,0,1,1160,919a109.54,109.54,0,0,1-31,45c4.75,1.49,10.68,2.35,16.33,0,3.42-1.42,4.76-3.2,5.4-2.83,1.65.95-3.51,14.94-28.73,64.83a80.4,80.4,0,0,1-20-40.43,61.61,61.61,0,0,1-1,20.93c-4,17.89-15.06,29.07-20,33.5,6.83-.86,10.87-3.15,13.33-5.17,1.21-1,2.62-2.4,3.61-2,1.66.72.83,6.05.56,7.8-.64,4.11-3.31,13.47-17.5,28.9a33.08,33.08,0,0,1-21-35.56,38.12,38.12,0,0,1-5.5,19,39.16,39.16,0,0,1-21.5,16.56c-13.14-27.85-16.5-43.41-17.5-51.4-.21-1.72-1.66-13.29.21-13.76.68-.17,1.35,1.23,2.62,2.43,2.13,2,6,3.52,13.67,2.17-5.92-6.79-21.79-26.88-21.5-55a75.51,75.51,0,0,1,3.78-22.69A206.9,206.9,0,0,1,960,978a49.94,49.94,0,0,0,21.66-2.33c4.64-1.61,6.42-3.06,7.14-2.47,2,1.65-6.25,17.49-48.81,76.8-13.93-48.84-22.12-74.88-25.33-81.17-.34-.67-2-3.86-1-4.83,1.17-1.15,5.31,1.63,9.38,3.67A54.31,54.31,0,0,0,942,973c-21.85-21.08-28.76-34.29-31.33-40.83-.84-2.14-4.54-11.55-2.67-12.67.69-.41,1.79.53,3.33,1.33,2.53,1.32,6.48,2.38,12.67,1.17a192,192,0,0,1-36-74,159,159,0,0,1-25,78c10.94-1.8,16.55-5.54,19.67-8.83.92-1,2.48-2.81,3.78-2.42,2.54.75,2.06,9.35,1.89,12.42C887.43,943.36,872.62,970,863,986c12.6-6.09,19.73-13.24,24-19,2.41-3.26,5.07-7.64,6.68-7.09,2.27.77.76,10.83.32,13.76-1.32,8.79-7,28-36,64.33a61,61,0,0,0-14-46,73.59,73.59,0,0,1-20,49c-21.7-36-25.19-56.15-25.5-66.25-.14-4.41.1-14.35,2-14.63,1.37-.2,2.15,4.65,6,8.13,4.61,4.21,11.38,4.34,16.5,3.75-20.36-24.81-23.53-39.89-24-47-.21-3.19-.33-11.52,1.44-11.86,1.15-.22,1.95,3.16,4.81,5.11,3.82,2.61,9.35,1.35,14-.5A246.46,246.46,0,0,1,785,803a160.11,160.11,0,0,1-44,87c6.13,2.41,14.35,4.38,21.25.75,4.48-2.36,6.62-6.13,8.06-5.48,2.47,1.12-.59,13.67-3.31,22-4.4,13.45-13.6,33.22-35,55.75,10.12,1.84,16.49-.05,20.5-2.25,3.19-1.75,5.28-3.9,6.58-3.17,2.8,1.6-1.83,14.61-2.83,17.42-3.3,9.29-13.2,30.35-49.25,72a124.68,124.68,0,0,1-5.87-22.12A133.33,133.33,0,0,1,700,987a90.59,90.59,0,0,1-32.18,55,21.25,21.25,0,0,0,9.05-1.37c2.14-.85,3.41-1.79,4.25-1.25,1.61,1,0,6.32-.62,8.13-1.59,5-4.91,12.63-12.68,22.06A223,223,0,0,0,623,979a88.69,88.69,0,0,1-1.5,34.5A90.65,90.65,0,0,1,595,1058c-8.63-17.44-22.71-47.74-23.67-63.33-.16-2.57-.61-10,2-10.95,1.63-.58,3.64,1.72,5.52,3.28,3.64,3,9.86,5.84,21.17,5a198.51,198.51,0,0,1-48.45-103A135.85,135.85,0,0,1,525,968a46.29,46.29,0,0,0,12.5-4.5c5.78-3.09,8.18-6,9.83-5.17,3.2,1.58-.46,15.07-1,17-3.19,11.49-10,28.9-26.33,50.67,12.63-.3,19.43-4.09,23.33-7.67,2.25-2.06,4.56-5,5.9-4.38,2.06.95,0,9.5-.57,11.88-1.77,7.38-7.35,21.77-28.67,43.73-4.37-3.24-14.08-11.45-18.17-25.4A46,46,0,0,1,500,1031a45,45,0,0,1-6,12.33A46.42,46.42,0,0,1,475,1059c-7.63-15.95-21-44.93-22-55.33-.18-1.83-.65-6.72.87-7.27,1.07-.38,2.56,1.62,3.13,2.1,6.27,5.36,14,8.28,22.32,9.5a167,167,0,0,1-30.65-68.33A161.46,161.46,0,0,1,445.75,908,170,170,0,0,1,405,977a36.12,36.12,0,0,0,14.92-1.17c6.3-1.9,9-4.72,11-3.63,4.3,2.29-.25,18.72-1.17,22-3.82,13.49-10.84,33-24.75,56.83-14.17-11.93-34.34-30.29-40.75-43.75-.54-1.14-4.2-8.81-2.28-10.3,1.1-.85,3.22.95,6.53,1.67,4.88,1.07,9.43-.85,12.5-2.62-19.14-14.17-26.35-24.57-29.37-30.12-.69-1.27-4.06-7.48-2.38-9,1.23-1.14,4.14,1.17,8.25,1.78,5.33.79,10.37-1.61,14.5-4.62a147.12,147.12,0,0,1-41.75-33A144.65,144.65,0,0,1,315,900c1,6.3,1.71,13.06,2.13,20.25A220.41,220.41,0,0,1,315,966a23.05,23.05,0,0,0,8.88-10.12c1.49-3.51,1.63-6.69,2.34-6.69,1.08,0,2,7.41,2.41,11.82.77,9,.62,23.49-4.62,45,4.32-.32,9.85-1.48,12.63-5.62,1.79-2.68,1.92-5.85,2.64-5.82,1,0,1.61,6.7,1.74,9.57.32,7.16-.75,20.45-10,43.88a93.43,93.43,0,0,1-33.25-31.92A89.1,89.1,0,0,1,290,1000a39.7,39.7,0,0,1-18,29c2.7.71,6.51,1.2,9.77-.7,2.33-1.36,3.33-3.33,4.16-3,1.33.51.56,6.26-.43,10.21-1.3,5.22-4.49,13.45-13.5,22.5-14-15.12-19.87-28.53-22.67-37.5-.72-2.3-4.71-15.5-1.69-17.07,1.08-.56,2.46.67,5,1.74A22.14,22.14,0,0,0,266,1006a141.8,141.8,0,0,1-24-48.5,138.17,138.17,0,0,1-4-21.22A115.79,115.79,0,0,1,213,986a24.86,24.86,0,0,0,13.17-5c3.8-3,4.78-6,5.66-5.67,2.26.74-1.3,21-7.83,41.17a232.34,232.34,0,0,1-17,39.5,41,41,0,0,1-15.17-18.5,39.67,39.67,0,0,1-2.83-13.83,77.9,77.9,0,0,1-26,30.67,62.79,62.79,0,0,1-11-22.67c-.39-1.56-3.86-15.84.2-17.88,1.49-.75,2.89.86,6.8,1.71a31.12,31.12,0,0,0,12,.17,136.48,136.48,0,0,1-21.17-44.5,133.14,133.14,0,0,1-3.5-18.17,79.42,79.42,0,0,1-22,36.67,19.64,19.64,0,0,0,9.33-2.5c2.77-1.6,4-3.29,4.59-2.95,1.28.69-1.48,8.89-5.09,16.95a161.16,161.16,0,0,1-23.5,37.17,202.72,202.72,0,0,1-17-49.83c-.19-1-4.12-21.4,0-22.87,1.84-.66,3.72,3.25,9.36,5.37a27,27,0,0,0,13,1.33c-6.08-9.33-22.46-35.39-23-49.67-.06-1.51-.3-8,2.55-9.24,1.63-.7,3.19,1,7.45,1.91a48.18,48.18,0,0,0,7.67,1,212.07,212.07,0,0,1-36-90.67A133.39,133.39,0,0,1,65.33,855a134.48,134.48,0,0,1-25.67,40A71.28,71.28,0,0,0,55,890.5c9.34-3.93,13-7.86,14-7.08,1.92,1.4-5.69,17.09-41.38,72.24,7.8.28,17.82-.68,27.33-6.17,6.16-3.55,9.24-9,11.3-8,3.28,1.56-.72,16.46-2,20.83-4.09,14.33-13.28,37-36.67,66.67a108.93,108.93,0,0,1-39.33-60.67l-33.33,70V1214H1951.54V1008.5Z"/></svg>