<svg xmlns="http://www.w3.org/2000/svg" viewBox="0 0 55.12 55.03"><defs><style>.cls-1{isolation:isolate;}.cls-2{opacity:0;mix-blend-mode:multiply;}.cls-3{fill:#231f20;}.cls-4{fill:#3ac6f4;}</style></defs><title>cfc and bth</title><g class="cls-1"><g id="Layer_1" data-name="Layer 1"><g class="cls-2"><path class="cls-3" d="M971.51,249.09a23.74,23.74,0,0,0-30.64,10.6l.1.1a5.75,5.75,0,1,1-4.05-1.85C944.16,246.67,959.22,242,971.51,249.09Z" transform="translate(-930.98 -245.73)"/><path class="cls-3" d="M969.91,291.1a5.76,5.76,0,1,1-9.3,6.62c-13.36-.67-25-11.41-25-25.56a23.8,23.8,0,0,0,24.49,21.26,5.76,5.76,0,0,1,9.76-2.33Z" transform="translate(-930.98 -245.73)"/><path class="cls-3" d="M973.57,291.7c10.11-7.51,12.56-21.82,6.16-31.83a5.76,5.76,0,1,1,3.49-2.55C989.22,269.14,985.76,284.67,973.57,291.7Z" transform="translate(-930.98 -245.73)"/></g><path class="cls-4" d="M971.51,249.09a23.74,23.74,0,0,0-30.64,10.6l.1.1a5.75,5.75,0,1,1-4.05-1.85C944.16,246.67,959.22,242,971.51,249.09Z" transform="translate(-930.98 -245.73)"/><path class="cls-4" d="M969.91,291.1a5.76,5.76,0,1,1-9.3,6.62c-13.36-.67-25-11.41-25-25.56a23.8,23.8,0,0,0,24.49,21.26,5.76,5.76,0,0,1,9.76-2.33Z" transform="translate(-930.98 -245.73)"/><path class="cls-4" d="M973.57,291.7c10.11-7.51,12.56-21.82,6.16-31.83a5.76,5.76,0,1,1,3.49-2.55C989.22,269.14,985.76,284.67,973.57,291.7Z" transform="translate(-930.98 -245.73)"/></g></g></svg>