<svg id="Layer_1" data-name="Layer 1" xmlns="http://www.w3.org/2000/svg" viewBox="0 0 775.2 698.31"><defs><style>.cls-1{fill:#0c192c;}.cls-2{fill:#051932;}</style></defs><title>cliff +bird</title><path class="cls-1" d="M1090.53,469.19a136,136,0,0,0-16.79-46.41,145.24,145.24,0,0,1,22.63,41.64c.29-7.2.93-15,2.06-23.21a242.73,242.73,0,0,1,8.23-37.52,232.87,232.87,0,0,0-3.95,62.53,67.58,67.58,0,0,1,22.05-46.41,159.13,159.13,0,0,0-18.1,47.72,70.87,70.87,0,0,1,9.87-16.46,71.91,71.91,0,0,1,24.36-19.42,117.56,117.56,0,0,0-31.6,42.79Z" transform="translate(-571 -191.23)"/><path class="cls-1" d="M1007.67,479.39a16.35,16.35,0,0,0-.54-11.71c-3.22-7.08-10.45-8.83-11.3-9a14.37,14.37,0,0,1,10.12,2,14.67,14.67,0,0,1,6.25,13.66,59.89,59.89,0,0,0-.82-24.27,59.15,59.15,0,0,0-5.43-14.07,46.6,46.6,0,0,1,7.65,11.85c5.76,12.94,4,25.46,5,25.51s.5-9.72,5.27-19.75a43.86,43.86,0,0,1,11.52-14.65A56.85,56.85,0,0,0,1024,474.12a26.12,26.12,0,0,1,7.41-15,26.59,26.59,0,0,1,18.6-7.41,37.31,37.31,0,0,0-16.13,14.32,35.28,35.28,0,0,0-3.78,8.89l-13.66,8.15Z" transform="translate(-571 -191.23)"/><path class="cls-2" d="M1285.95,476c-7.95,7.7-15.85,15.43-23.8,23.13,4.6,7.24,9.2,14.43,13.8,21.67-.88,6.27-1.76,12.55-2.59,18.82-4.39,7.65-8.74,15.35-13.09,23-1.84,8.2-3.64,16.4-5.48,24.6q-11,7.22-22,14.43-2.13,26.85-4.18,53.71-29.74,17.19-59.44,34.43c3.39,10.37,6.78,20.71,10.21,31.08l17,31.58-21,11.88-21.88,65.51-2.76,8.28-17.15,51.41H571V488.69H726.52l19.74-19.16,1.67,2,14.14,17.15,1.42-.33,3.76-.84,13.09-3,2.76-.59,21.37-4.85,26.69-9.58h20.91l17.32,19.16h30.74L924,479.11h29.62l164.47-16.9,21.71,14.51,15.81-14.51,25.68-14.81,37.52-30.33H1280l15.81,17.48Z" transform="translate(-571 -191.23)"/><path class="cls-2" d="M1343.57,262.64c0-.38,0-4.4-3-6.07a5.35,5.35,0,0,0-2.43-.67,8.74,8.74,0,0,1-3.93,3.56,8.49,8.49,0,0,1-5.23.62,16.85,16.85,0,0,1-4.43,6.42c-9,8-24.14,2.73-26.75,1.83a38.37,38.37,0,0,1-8.68-4.31c1.25.88,2.25,1.63,3.13,2.26a43.48,43.48,0,0,0,17.19,6.86h.05a62.23,62.23,0,0,0,9.87.37c10.83,18,12.09,32.8,11.17,42.79-.09.71-.17,1.43-.25,2.14,0,.08,0,.16,0,.25-.25,2.68-.62,5.56-1.17,8.57a105.85,105.85,0,0,1-4.14,16.4c.42-2.76.75-5.77.92-9-3.22,7.23-7.65,13.17-12.42,17a47.57,47.57,0,0,1-4.48,3.22c-.08.08-.08.12-.16.17a34.7,34.7,0,0,1-4,2.34c-1.55,1-3.1,1.88-4.6,2.8a12,12,0,0,0,2-6.52,2.84,2.84,0,0,0,0-.92c-1.88,1.17-6.19,6.48-9,9.83a56.85,56.85,0,0,1-17.4,13.55l-5.69,9.66,7.65,35.56-6.94-5.69-7.11-30.2,3.64-10.5c-.55-3.14-1-6.32-1.51-9.5l-2.09,2.39c1.26-3.77-.92-13.93-1.76-17.32a93.28,93.28,0,0,0-12.29,8.66,95.57,95.57,0,0,0-24.56,31.75,12.69,12.69,0,0,1-3-9.12,11.81,11.81,0,0,1,2.09-5.78,46,46,0,0,1,2.51-5.64c-13.67,14.43-18.48,31.29-20,37.31,2.18-9.83.29-15.23-2-18.32a35.88,35.88,0,0,0-4.06-4.19c1.09-1.5,2.34-3,3.68-4.6a111.56,111.56,0,0,1,7.9-8.4,87.71,87.71,0,0,0-10.87,9c-.8.75-1.59,1.55-2.34,2.3a20.07,20.07,0,0,1-2.6-3.85c-1.92-3.81-1.46-5.44-2.67-8.45-1.47-3.55-4.94-8.11-14.27-11.75a221.56,221.56,0,0,0,58.9-15.65c5.18-2.17,10.12-4.47,14.76-6.9-3.09-8.66-13.88-41.16-6-61.19,1.63-4.06,4.52-11.34,10.75-12.76,4.6-1.05,8.83,1.55,10.75,2.88.92-.79,1.93-1.63,3-2.51s2.39-1.88,3.56-2.67a6.35,6.35,0,0,0-.13-.92l-.16-3.06a44.49,44.49,0,0,1-1.13-23.55,42.92,42.92,0,0,1,6.27-14.51,8.58,8.58,0,0,1-3.51-.13,7.75,7.75,0,0,1-3.43-1.88,14.78,14.78,0,0,0,6.23-1.59c4.35-2.3,5-5.86,9.25-8.11a13.63,13.63,0,0,1,6.85-1.59,21,21,0,0,1-3.42-3.48,19.2,19.2,0,0,1-3.69-7.82c3.69,4.81,7.07,6.19,9.54,6.49,2.26.29,3.64-.34,6.44.25a15.54,15.54,0,0,1,7.16,3.59,15.29,15.29,0,0,1-.21-5,16.44,16.44,0,0,1,3.3-8.08,31.27,31.27,0,0,0,4.64,9.75c3.89,5.35,8,7.53,10.55,9.66,4.35,3.6,8.53,10.84,7.9,27a16.38,16.38,0,0,1,5.9,5.19C1349.21,251.18,1344,261.8,1343.57,262.64Z" transform="translate(-571 -191.23)"/></svg>