<svg id="Layer_1" data-name="Layer 1" xmlns="http://www.w3.org/2000/svg" viewBox="0 0 174.77 174.81"><defs><style>.cls-1{fill:#091a30;}</style></defs><title>fb</title><path class="cls-1" d="M301.78,508.53H249V441.16h22l4-27.29H248.85c0-7.81-.7-15,.21-22,.83-6.41,6.91-6.8,12-7.15,4.67-.31,9.38-.07,14.66-.07,0-7.84.16-15-.17-22.15,0-1-2.42-2.73-3.75-2.77-8.14-.26-16.32-.47-24.45,0-12.5.66-23.7,11.43-26,24.81a108.55,108.55,0,0,0-1.19,14.12c-.19,4.71,0,9.44,0,15H197.36c0,8.73-.16,16.63.2,24.51,0,1,2.73,2.73,4.27,2.82,5.83.33,11.69.13,17.92.13v67.29H127V333.71H301.78Z" transform="translate(-127 -333.71)"/></svg>