<svg id="Layer_1" data-name="Layer 1" xmlns="http://www.w3.org/2000/svg" viewBox="0 0 1920 481.31"><defs><style>.cls-1{fill:#fff;}</style></defs><title>footer</title><path class="cls-1" d="M1912.41,734.12c-27.68,11.8-54.71,22-80.87,30.88a482,482,0,0,0,88.46-8.88v55.33c-224.89,57.86-448.36,12.48-448.33,11.44,0,0,.17-.06.58-.08,99.83-6.49,268.83-31.22,447.75-131.42v39.46Q1916.22,732.5,1912.41,734.12Z" transform="translate(0 -598.69)"/><path class="cls-1" d="M1920,859.21V1080H1653.91c-199.38-144.82-364.27-178.37-494.79-169.14C985.92,923.12,864.54,1011.33,718.38,1080H1.85L0,1079.16V744.24C74.43,799.12,162.82,848.9,266.25,883.59,464.39,950,647,937.38,769.42,928.89c219.65-15.24,234.87-60.82,441.65-67.15,220.72-6.77,268.37,43.17,449.84,38.77C1730.82,898.82,1818.2,889.11,1920,859.21Z" transform="translate(0 -598.69)"/><path class="cls-1" d="M775.33,894.37c-.16,2.17-243.69,39.36-494.76-78.59C159.61,759,66.55,680.06,0,608.65v-10C66.8,669,160.41,747.89,282.44,805.76,534.62,925.33,775.49,892.2,775.33,894.37Z" transform="translate(0 -598.69)"/><path class="cls-1" d="M1564,1080h-1.57c-43.83-39.41-124.94-99.84-241.59-126.09a529.15,529.15,0,0,0-171.47-9.81,468.94,468.94,0,0,1,193.45,7.53C1454.12,979.9,1527.61,1042.88,1564,1080Z" transform="translate(0 -598.69)"/></svg>