<svg id="Layer_1" data-name="Layer 1" xmlns="http://www.w3.org/2000/svg" viewBox="0 0 174.31 174.46"><defs><style>.cls-1{fill:#071a31;}</style></defs><title>linkedin</title><path class="cls-1" d="M739.62,333.71V508.18H913.93V333.71Zm49,32.48a11.13,11.13,0,0,1,11.14,11.06c0,6.42-5,11-11.69,10.9-6.1-.12-10.27-4.57-10.27-11C777.79,370.5,782.07,366.15,788.62,366.2ZM799.8,466.34c0,3-1,4.16-4,4.08-5.77-.16-11.56,0-17.69,0-.11-2.12-.26-3.73-.26-5.35,0-22.12.12-44.24-.12-66.36,0-4.57,1.44-5.81,5.7-5.45a95.6,95.6,0,0,0,12,0c3.11-.13,4.46.85,4.45,4.23Q799.64,431.91,799.8,466.34Zm73.3,3.85c-5.95.37-11.92.17-18.63.17,0-2.65,0-4.91,0-7.17-.29-13.12-.28-26.26-1-39.35-.33-5.71-4-8.11-10-8.22s-9.16,2.24-10.38,7.87a33.45,33.45,0,0,0-.59,6.93c0,13.12,0,26.23,0,39.94-6.86,0-12.86.16-18.83-.15-1.11-.06-3-2-3-3.12q-.27-35.23,0-70.46c0-1.12,1.91-3.12,3-3.2,5.14-.34,10.32-.15,15.48-.15,5.32,0,2.41,4.43,3.68,6.76,8.5-8.08,18.56-8.34,28.91-5,9.81,3.19,13.07,11.76,13.57,20.77.94,16.91.86,33.89,1,50.84C876.27,467.9,874.27,470.13,873.1,470.2Z" transform="translate(-739.62 -333.71)"/></svg>