<svg id="Layer_1" data-name="Layer 1" xmlns="http://www.w3.org/2000/svg" viewBox="0 0 73.48 88.53"><defs><style>.cls-1{fill:#fff;}.cls-2{fill:#193242;}</style></defs><title>logo</title><g id="_Group_" data-name="&lt;Group&gt;"><polygon class="cls-1" points="38.65 16.25 43.54 22.22 37.57 17.33 36.74 30.85 35.91 17.33 29.94 22.22 34.83 16.25 21.32 15.42 34.83 14.59 29.94 8.62 35.91 13.52 36.74 0 37.57 13.52 43.54 8.62 38.65 14.59 52.16 15.42 38.65 16.25"/></g><g id="_Group_2" data-name="&lt;Group&gt;"><path class="cls-1" d="M771.39,557.67h-.3l-12.64,29.12h5.44l7-16.94,6.7,16.94H784Z" transform="translate(-734.5 -522.58)"/></g><g id="_Group_3" data-name="&lt;Group&gt;"><path class="cls-2" d="M771.24,611.11a36.74,36.74,0,0,1-18.8-68.31,1.86,1.86,0,1,1,1.91,3.2,33,33,0,1,0,33.78,0,1.86,1.86,0,0,1,1.91-3.2,36.74,36.74,0,0,1-18.8,68.31Z" transform="translate(-734.5 -522.58)"/></g></svg>