<svg id="Layer_1" data-name="Layer 1" xmlns="http://www.w3.org/2000/svg" viewBox="0 0 220.46 265.61"><defs><style>.cls-1{fill:#3ac6f4;}.cls-2{fill:#051932;}</style></defs><title>logo</title><g id="_Group_" data-name="&lt;Group&gt;"><polygon class="cls-1" points="115.94 48.77 130.62 66.66 112.72 51.99 110.23 92.55 107.73 51.99 89.83 66.66 104.5 48.77 63.96 46.27 104.5 43.78 89.83 25.88 107.73 40.56 110.23 0 112.72 40.56 130.62 25.88 115.94 43.78 156.5 46.27 115.94 48.77"/></g><g id="_Group_2" data-name="&lt;Group&gt;"><path class="cls-1" d="M773.46,743.74h-.9L734.63,831.1H751l21.12-50.79q10.08,25.38,20.1,50.79h19.2Z" transform="translate(-662.77 -638.46)"/></g><g id="_Group_3" data-name="&lt;Group&gt;"><path class="cls-2" d="M773,904.07a110.24,110.24,0,0,1-56.41-204.95,5.6,5.6,0,0,1,5.74,9.61,99,99,0,1,0,101.36,0,5.6,5.6,0,0,1,5.74-9.61A110.24,110.24,0,0,1,773,904.07Z" transform="translate(-662.77 -638.46)"/></g></svg>