<svg id="Layer_1" data-name="Layer 1" xmlns="http://www.w3.org/2000/svg" viewBox="0 0 73.48 88.53"><defs><style>.cls-1{fill:#3ac6f4;}.cls-2{fill:#fff;}</style></defs><title>Untitled-4</title><g id="_Group_" data-name="&lt;Group&gt;"><polygon class="cls-1" points="38.65 16.25 43.54 22.22 37.57 17.33 36.74 30.85 35.91 17.33 29.94 22.22 34.83 16.25 21.32 15.42 34.83 14.59 29.94 8.62 35.91 13.52 36.74 0 37.57 13.52 43.54 8.62 38.65 14.59 52.16 15.42 38.65 16.25"/></g><g id="_Group_2" data-name="&lt;Group&gt;"><path class="cls-1" d="M1097.39,615.67h-.3l-12.64,29.12h5.44l7-16.93q3.36,8.46,6.7,16.93h6.4Z" transform="translate(-1060.5 -580.58)"/></g><g id="_Group_3" data-name="&lt;Group&gt;"><path class="cls-2" d="M1097.24,669.11a36.74,36.74,0,0,1-18.8-68.31,1.86,1.86,0,0,1,1.91,3.2,33,33,0,1,0,33.78,0,1.86,1.86,0,0,1,1.91-3.2,36.74,36.74,0,0,1-18.8,68.31Z" transform="translate(-1060.5 -580.58)"/></g></svg>