<svg xmlns="http://www.w3.org/2000/svg" viewBox="0 0 54.35 54.31"><defs><style>.cls-1{isolation:isolate;}.cls-2{opacity:0;mix-blend-mode:multiply;}.cls-3{fill:#231f20;}.cls-4{fill:#3ac6f4;}</style></defs><title>mi gd</title><g class="cls-1"><g id="Layer_1" data-name="Layer 1"><g class="cls-2"><path class="cls-3" d="M950.74,677.08a7.65,7.65,0,1,1,7.63,7.62A7.63,7.63,0,0,1,950.74,677.08Z" transform="translate(-931.37 -669.43)"/><path class="cls-3" d="M978,704a11.73,11.73,0,0,0-9.7,4.89,11.31,11.31,0,0,0-2.27,6.95,7.58,7.58,0,0,1-5.9,7.61,18,18,0,0,1-1.8.27,7.63,7.63,0,0,1-7.57-7.25,13.49,13.49,0,0,0-1.19-5.68,11.6,11.6,0,0,0-10.5-6.77,7.63,7.63,0,1,1,7.53-8.62c.2,1.31.16,2.65.43,3.93a11.87,11.87,0,0,0,23.25-.88c.2-1.1.14-2.23.31-3.34A7.62,7.62,0,1,1,978,704Z" transform="translate(-931.37 -669.43)"/></g><path class="cls-4" d="M950.74,677.08a7.65,7.65,0,1,1,7.63,7.62A7.63,7.63,0,0,1,950.74,677.08Z" transform="translate(-931.37 -669.43)"/><path class="cls-4" d="M978,704a11.73,11.73,0,0,0-9.7,4.89,11.31,11.31,0,0,0-2.27,6.95,7.58,7.58,0,0,1-5.9,7.61,18,18,0,0,1-1.8.27,7.63,7.63,0,0,1-7.57-7.25,13.49,13.49,0,0,0-1.19-5.68,11.6,11.6,0,0,0-10.5-6.77,7.63,7.63,0,1,1,7.53-8.62c.2,1.31.16,2.65.43,3.93a11.87,11.87,0,0,0,23.25-.88c.2-1.1.14-2.23.31-3.34A7.62,7.62,0,1,1,978,704Z" transform="translate(-931.37 -669.43)"/></g></g></svg>