<svg id="Layer_1" data-name="Layer 1" xmlns="http://www.w3.org/2000/svg" viewBox="0 0 333.46 438.5"><defs><style>.cls-1{fill:#fff;}.cls-2{fill:#051932;opacity:0.25;}.cls-3{font-size:55px;fill:#42c6f2;font-family:Poppins-Bold, Poppins;font-weight:700;}</style></defs><title>migd</title><rect id="_Path_" data-name="&lt;Path&gt;" class="cls-1" x="115.18" width="46.07" height="75.95"/><path id="_Path_2" data-name="&lt;Path&gt;" class="cls-1" d="M859.78,1543l-84.44-1.7Q786,1531.18,796.67,1521V1285l46.07.1V1521Q851.25,1532,859.78,1543Z" transform="translate(-681.49 -1104.51)"/><polygon id="_Path_3" data-name="&lt;Path&gt;" class="cls-2" points="161.26 23.02 161.26 75.94 115.18 75.94 115.18 48.91 161.26 23.02"/><path id="_Path_4" data-name="&lt;Path&gt;" class="cls-2" d="M796.67,1291.32l46.07.11v147.22l-46.07-136.47Z" transform="translate(-681.49 -1104.51)"/><path id="_Path_5" data-name="&lt;Path&gt;" class="cls-1" d="M1014.95,1270.52l-98.59,46.54-234.87-22.14,4.3-45.66,46.78-2.8-45.92-6.37,7.35-78,37.86,3.57c1.33,8.52,2.75,17,4.19,25.49,2.73-8.06,5.47-16.18,8.2-24.32l190.31,17.94,52.13,55.61Z" transform="translate(-681.49 -1104.51)"/><g id="_Group_" data-name="&lt;Group&gt;"><text class="cls-3" transform="matrix(1, 0.09, -0.09, 1, 64.25, 150.61)">MI-GD</text></g></svg>