<svg id="Layer_1" data-name="Layer 1" xmlns="http://www.w3.org/2000/svg" viewBox="0 0 1920 1080"><defs><style>.cls-1{fill:#fff;}</style></defs><title>path</title><path class="cls-1" d="M1877,387.17l5.38,35.33,37.38-15.5Q1899.11,397,1877,387.17Z"/><path class="cls-1" d="M1869.77,451.56c17.61,8.24,34.56,16.69,50.79,25.17L1937,443.17l-19.33-20.67Z"/><path class="cls-1" d="M1832.34,383.5l2.91,52.54q9.12,3.93,18,7.95l18.37-12.82-5.82-48.86q-5.36-2.31-10.8-4.6Z"/><path class="cls-1" d="M1780.44,349,1787,383.5l42.8-16.11Q1805.83,357.88,1780.44,349Z"/><path class="cls-1" d="M1767.52,409.48c17.73,6.26,35,12.93,51.84,19.87l-3.69-41.85Z"/><path class="cls-1" d="M1724.34,343.17l11.33,36.66,36.67-13.33-4.43-21.73q-15.93-5.34-32.38-10.31Z"/><path class="cls-1" d="M1729.67,387.5l2.68,10.26q8.43,2.64,16.74,5.39l28.58-15.65-5.33-7.67Z"/><path class="cls-1" d="M1676.39,382.16q20.64,5,40.71,11l-6.76-38Z"/><path class="cls-1" d="M1661,339.42,1689.67,359l26.68-30.14q-18.46-5.22-37.5-9.87Z"/><path class="cls-1" d="M1623.86,371q16.59,3,32.86,6.57l17-15.74-38-27.33Z"/><path class="cls-1" d="M1619.8,306.38l27.54,24.7,11.43-16.79Q1639.56,310,1619.8,306.38Z"/><path class="cls-1" d="M1561.33,362.36q24.21,2.34,47.87,6.16l17.14-37.44-33.19-29.2q-9.87-1.53-19.85-2.86Z"/><path class="cls-1" d="M1519.05,293.33l35.29,41.17,4.54-37.3Q1539.19,294.86,1519.05,293.33Z"/><path class="cls-1" d="M1509.34,359.17q20,.5,39.66,2.1V345.83l-20-26Z"/><path class="cls-1" d="M1497.1,291.94l5.24,49.23,16-30.27-12.94-18.49C1502.64,292.23,1499.87,292.08,1497.1,291.94Z"/><path class="cls-1" d="M1457,334.5l3.89,25.12q15-.68,29.84-.68l-4.39-48Z"/><path class="cls-1" d="M1443,290.76l10.68,34.41L1485,294.5l-.91-3.14Q1463.74,290.59,1443,290.76Z"/><path class="cls-1" d="M1411.65,363.63q18.06-2.15,36-3.29l-7.28-46.51Z"/><path class="cls-1" d="M1387,309.83l31.34,21.25,17.33-34.91-2.25-5.27q-22.39.42-45.19,2Z"/><path class="cls-1" d="M1343,340l26.06,30.1q13.24-2.48,26.41-4.37L1411.34,340l-45-33.54Z"/><path class="cls-1" d="M1291.42,305.27,1321,340,1354.48,296q-10.36,1.13-20.81,2.53Q1311.88,301.42,1291.42,305.27Z"/><path class="cls-1" d="M1313.6,383.06q16.55-4.67,34.07-8.56l2-.44L1335,355.17Z"/><path class="cls-1" d="M1245.67,359l21.76,39.1h0q11.2-4.18,22.85-8l27.38-35-34-35.34Z"/><path class="cls-1" d="M1217.64,322.78,1243,340l21.61-29.27C1248.42,314.37,1232.8,318.39,1217.64,322.78Z"/><path class="cls-1" d="M1213.31,421.35q19.21-9.41,39.75-17.7L1231.67,359Z"/><path class="cls-1" d="M1163.67,379.83l44,17.34L1223,347.5l-30.77-16.9q-6.69,2.18-13.27,4.46Z"/><path class="cls-1" d="M1152.34,395.17l25.66,44.9q9.13-5.22,18.54-10.18l7.13-19.39Z"/><path class="cls-1" d="M1111.39,361.6l32.28,17.9,13.46-36.56C1141.56,348.81,1126.36,355,1111.39,361.6Z"/><path class="cls-1" d="M1094.67,434.92l29.15,39.32c13.22-9.1,26.72-17.87,40.62-26.22l-22.77-34Z"/><path class="cls-1" d="M1061.44,384.82l78.23,10.35-43.93-26.58Q1078.46,376.46,1061.44,384.82Z"/><polygon class="cls-1" points="1113.67 403.83 1040.65 395.16 1073.57 430.5 1113.67 403.83"/><path class="cls-1" d="M1081.67,449.75v55.18q14.71-11.23,29.73-22Z"/><polygon class="cls-1" points="1068.67 440.5 1063.67 496.5 1023.67 436.5 1034.67 403.83 1068.67 440.5"/><path class="cls-1" d="M934.33,450.52l58.34,33.1,21.11-74.69C987.87,422.37,961.66,436.34,934.33,450.52Z"/><path class="cls-1" d="M1006.67,509.83l27,33.09q14.1-11.46,28.22-22.62l-44.2-59.8Z"/><path class="cls-1" d="M919.67,564.5,977.33,589c13-10.53,25.67-21,38.3-31.34l-35-51.64-57-22.38Q921.68,524.06,919.67,564.5Z"/><path class="cls-1" d="M836.19,498.91l68.48,23.59V465.73C882.81,476.79,860.11,487.9,836.19,498.91Z"/><path class="cls-1" d="M900.9,648.6c20.62-15.16,40.27-30.5,59.34-45.8l-55.57-15.3Z"/><path class="cls-1" d="M784.67,587.5l103,19,7-63-83.93-33.13h0q-6.37,2.8-12.89,5.6h0Z"/><path class="cls-1" d="M766.67,606.5l97.4,68.18h0q7.23-4.91,14.27-9.87L881.67,628Z"/><path class="cls-1" d="M681.38,560.31l79.29,27.19,12.62-61.25C744.64,538,714.17,549.38,681.38,560.31Z"/><path class="cls-1" d="M748.7,742.64a972.8,972.8,0,0,0,90.82-51.73L766.67,636.5Z"/><polygon class="cls-1" points="750.34 610.5 679 579.16 655.67 668.5 731.67 683.5 750.34 610.5"/><path class="cls-1" d="M649,692.5l63.79,67.15q6.16-2.76,12.21-5.58V704.5Z"/><path class="cls-1" d="M561.22,595l74.45,67.54,24.67-86.67-13-4.63C621,579.33,592.24,587.38,561.22,595Z"/><path class="cls-1" d="M631.91,791.67c19.78-6.82,38.35-13.94,55.76-21.17l4.16-1.75-46.16-49.58Z"/><path class="cls-1" d="M533.08,820.09c25.33-5.88,49.18-12.45,71.62-19.47L628.34,692.5,557,711.83Z"/><path class="cls-1" d="M516.53,605.17,553,698.5l62-30-83.2-66.67Q524.26,603.52,516.53,605.17Z"/><path class="cls-1" d="M421.31,622.37l96.36,52.8-31.08-63.94h0Q455.22,617.27,421.31,622.37Z"/><path class="cls-1" d="M530.34,709.83l-12.67,59.33L425,744.5l41.49-62.56Z"/><path class="cls-1" d="M365.26,629.74l31.08,118.09L441,668.5l-65.79-39.92Z"/><path class="cls-1" d="M368.64,844.93A1094.7,1094.7,0,0,0,503.59,826.5l10.08-39.33-97.33-18Z"/><path class="cls-1" d="M251.67,668.5l50.67,43.33,57.33-29.89-13.32-50.17h0q-34.71,3.55-71.71,5.79Z"/><polygon class="cls-1" points="363 709.16 383.67 769.16 363 810.5 299.67 792.5 299.67 728.5 363 709.16"/><path class="cls-1" d="M196.23,845.83a1293.13,1293.13,0,0,0,144.65.86L345,832.5,231,797.83Z"/><polygon class="cls-1" points="277 719.16 273.67 783.83 209 769.16 222.34 668.5 277 719.16"/><path class="cls-1" d="M136.74,640.33l58.93,68.84,10.76-68.92Q172.46,641,136.74,640.33Z"/><path class="cls-1" d="M95.8,836.26q34.26,4.41,66.82,7.14L197,791.83Z"/><polygon class="cls-1" points="189 722.5 178.34 779.16 101.67 810.5 101.67 747.83 189 722.5"/><path class="cls-1" d="M13.44,634.13l54.9,98.37,96.33-27.33L99,639.28Q57.37,637.7,13.44,634.13Z"/><path class="cls-1" d="M-19.44,817.19q39.49,7.92,77,13.66l18.76-17v-54Z"/><path class="cls-1" d="M-80.33,683.5q9.47,14.66,18.95,29.31,22.52,34.84,45.05,69.69Q14,761.83,44.34,741.17,15.14,686.43-14,631.69q-7.19-.69-14.45-1.43h0l-33.4,34.32Z"/><path class="cls-1" d="M700.37,465.65l2.16,60.2c19.91-8.33,38.29-17.15,55.14-26.07Q730,482.43,700.37,465.65Z"/><path class="cls-1" d="M608.67,476.78l70.5,19.71,1.4-41.81q-21.91-11.92-44.9-23.4-7.38-3.69-14.77-7.25Z"/><path class="cls-1" d="M600.74,491,613.35,556c19.34-5.07,39.5-11.27,60.27-18.87l4.85-27.5Z"/><path class="cls-1" d="M557.75,568.18c14.13-2.48,28.94-5.52,44.31-9.29l-15.89-59.37Z"/><path class="cls-1" d="M456.84,509.47a759.23,759.23,0,0,1,71.82,63.16q4-.52,8.19-1.13l24.37-72.72Z"/><path class="cls-1" d="M530.34,487.28l60.83-15,13.19-56.14q-27-12.64-53.87-23.88Z"/><path class="cls-1" d="M436.54,494.3l3.65,2.65,73-13.34,11.5-51.33Z"/><path class="cls-1" d="M448.17,421.78l47,16,29.5-20,2.2-35.17q-32.4-12.91-64.51-23.92Z"/><path class="cls-1" d="M381.36,458.06c15.3,9.11,29.68,18.41,43.15,27.74l48.66-37.91-60-16.61Z"/><path class="cls-1" d="M399.42,338.63,430.17,420,445.58,353Q422.39,345.37,399.42,338.63Z"/><path class="cls-1" d="M327.1,428.74Q348.19,439,367.45,450l41.89-38.37L395,361.28Z"/><path class="cls-1" d="M304.34,381l54,4L385,353.28,379.84,333h0q-26.55-7.41-52.72-13.67Z"/><path class="cls-1" d="M244.15,394.27q25.41,8.79,51.52,20,8.17,3.52,16.09,7.18L343,397Z"/><path class="cls-1" d="M270,306.79l25.69,51,15.4-42.19Q290.37,310.87,270,306.79Z"/><polygon class="cls-1" points="269.17 331.29 289.92 377.29 240.17 384.95 227.17 353.29 269.17 331.29"/><path class="cls-1" d="M227.17,338.78l31.38-17.5-7.9-18.21q-5.11-1-10.19-1.87Z"/><path class="cls-1" d="M190.47,377.92q16,4.21,32.33,9.32l4.37-13.79-18-30.17Z"/><path class="cls-1" d="M186.67,306.78l29,24.5,13.69-32q-19.62-3.37-38.91-6.18Z"/><path class="cls-1" d="M142.67,338.78l4.53,29.09q13.41,2.7,27.21,6l21.76-39.6-25-20.25Z"/><path class="cls-1" d="M101.41,360.11q15.27,2.1,31.21,5l-5.45-26.31Z"/><path class="cls-1" d="M118.28,284.2,132.67,326l32.5-24.25,2.35-11.89Q142.58,286.61,118.28,284.2Z"/><path class="cls-1" d="M64.17,311.28l21,20,30.25-10.5-14.7-38.25q-14.52-1.29-28.78-2.31Z"/><path class="cls-1" d="M48.72,354.67c12,.82,24.55,2,37.46,3.49l14-16.38h-26l-20-21.5Z"/><path class="cls-1" d="M27.32,277.62l23.37,20.16,5.82-18.6Q41.75,278.27,27.32,277.62Z"/><path class="cls-1" d="M3.36,352.9c10.73.11,22,.44,33.75,1.06l5.56-42.68-20.5-17Z"/><path class="cls-1" d="M-53.42,275.9l20.59,30.88,42-21.5L3.08,276.7h0Q-25.92,275.82-53.42,275.9Z"/><path class="cls-1" d="M-58.28,354.78c13.43-.94,28.61-1.66,45.32-1.86L.67,301Z"/></svg>