<svg id="Layer_1" data-name="Layer 1" xmlns="http://www.w3.org/2000/svg" viewBox="0 0 55.67 55.71"><defs><style>.cls-1{fill:#3ac6f4;}</style></defs><title>panel discussion</title><path class="cls-1" d="M171.29,368.85a9.48,9.48,0,1,1-9.43-9.41A9.39,9.39,0,0,1,171.29,368.85Z" transform="translate(-152.33 -341)"/><path class="cls-1" d="M170.81,350.44a9.41,9.41,0,1,1,9.32,9.5A9.38,9.38,0,0,1,170.81,350.44Z" transform="translate(-152.33 -341)"/><path class="cls-1" d="M189.63,387.23a9.41,9.41,0,1,1-9.61-9.44A9.46,9.46,0,0,1,189.63,387.23Z" transform="translate(-152.33 -341)"/><path class="cls-1" d="M208,369a9.42,9.42,0,0,1-18.84-.09A9.42,9.42,0,1,1,208,369Z" transform="translate(-152.33 -341)"/></svg>