<svg id="Layer_1" data-name="Layer 1" xmlns="http://www.w3.org/2000/svg" viewBox="0 0 1920 1544"><defs><style>.cls-1{fill:#0c192c;}</style></defs><title>treeline</title><path class="cls-1" d="M1920,593.38l-10,3.46,10,22.92v9.11h-3l3,7.7V2111H0V727.79L9.67,703,23,749l8.67-31.11H23L34.33,693l-6.66-7.15,10.66-31.52,11.34,56H43l13.33,41.34,12-38h-12L75,685.85,93,735l-10.67-3.33L95,764.33l-9.33-5.51L88.58,787l3.09,30L101,800.33l8,23.79,4.57-25.92,2.76-15.65L105,787.92,110.33,725l25.34,36.67-13.34.66L139,782.55H127l10,25.38.68,1.74,1-1,20.3-20.7,6.67,16.43L175,779.67,161.67,779l18.66-30.67L161.67,745l22-36L201,762.33l-6.67-3.51,8.67,29.1-8.67-5.37,6,45.12L205,813.29l6.43,21.07.9,3,.61-2.5,7.39-30.48-8,6,12-31.33-8.66,3.55,12-34.22L241,787.92l-9.33-5.37,2.66,41.57L243,796.33l6.67,27.79L262,787.92h-9.65l12-34.92,7.3,19.36,13-37.7,5.93,42.94,10.28-17.8L306.82,780l21-46.79L319.86,735l7.91-32.64-11.07,8.9,11.38-39.65,2.85-9.92,4,11.78,16.92,49.31s-9.1-7.33-10.28-7.68,6.72,22.34,6.72,22.34l-8.3-2.09,14.81,53.35.21.76,9.09-17.8-9.3.68h-.19l.19-.85,9.3-41.39,13,59.35,15.42-34.91L384.7,757l7.91-33.51L404.07,779l16.21-20.25-9.49.35L418.3,734l-10.67,3.84L425,705l-13.44-1,4.35-14.59,9.44-31.68,4-13.43,3.49,14.59,8,33.28,6.34,26.49-11.86-6.28,16.61,33.51-13-9.07,6.72,52.71,20.56-30.37,12.25,46.08L483.93,772h-8.7l8.7-51.32,17.4,43.64-11.08-3.85,11.08,53.07,9.48-47.13,11.07,51.67L533,790.52l-9.09,4.89L533,763.29l-9.88,5.58,12.65-39.45-9.88,6.64,9-41.65,5.12-23.6.08-.39.08.4,4.61,23.12,9.94,49.8-7.52-4.89L554.7,786l-9.1-3.14L554.7,838l14.62-31.07H557.07l15-41.9,6.72,77.51,15.81-29.68L584,815.31l8.3-25.49-7.11,2.79,9.48-30.37-12.25,5.59,12.25-36.31,13,46.08-7.12-3.84,7.12,30.37-7.12-4.88,3.56,43.29,8.3-32.12L614,840.09l8.3-11.52,4.06,24.59.31,1.93,7.09,43,8.7-35.6h-5.14L643,851.23l.47-.94,3.38-6.71-13.44,3.15,3.24-8.14,1.63-4.07,12.52-31.43,4.86,23.83,3,14.92-5.93-5.24,1.11,8.6.4,3.13,0,.15,4.4,34.2,10.67-22.34,4,24.7,12.25-25.75,38.75,60.4,1.7-20,0-.29.65-7.66,6.32,7,2.82-5.06,8.65-15.53,10.36,19.92,1.6,3.07L765,917.55l.81,1.57.32.6,2.89,5.56,1.77-2.09,6.71-7.9,4.57-5.38,1.72,3.71L790.9,929l.21.46.17-.46,7.22-19.11,1.7-4.51,1.1,3.71L807,928.14l.25.86.83,2.8,4.4,14.77L821.64,929l5-9.66v32.82l9.68-18.33,6.09,28.82L851.2,1004l9.49-18.85q2.19,8.84,4.39,17.68,9.6,38.58,19.19,77.17h169.25q5.23-23.73,10.48-47.47,2.7-12.18,5.38-24.35l-13.71,3.15L1074,964q6-15.48,12-31l10.57,21.41,7.4,15,3.81-20.54.9-4.86,1.28,3.73,2,5.7V929.9l5.66,13.7,1.7,4.11.71-5.47h0l1.71-13.23,3.18-24.5,8.73,24.5.69,2,.69-2,5.79-16.38,4.33,13.56.9,2.82,2.72,8.49,1.67-8.49,1.52-7.75h0l1.23-6.26,1.88,3.92,2.25,4.72,2.06-8.08,2.35-9.2,2.29,5.45,5.08,12.09,3.53-11.52,10,7.85,2.42-27.33.82-9.32,1.88,6.63,6.66,23.48,6.77-19.64,7.66,12,3.83-28.54,5.59,9.69,2.95-27.75,9.42,25.57,3.83-20.07,5.89,17.28,4.74-27.6,3.61-21-5.89,4.19,1.28-9.14,2.3-16.39.57-4h0l4.49-32,3,16.14,3.75,20,1.71,9.16,2.52,13.49-6.08-4.36,4,26.66,2.06,13.66,3.54-13.11,7.26-26.86,5.7,23.39,9.42-38.76,13.16,34.92,2.94-22.87,11,4.89,11-32.65-8.25,6.11,14.73-75.58,9.81,40.15-7.66-2.1,11,30-8.64-3.32L1350.56,823l7.85-22.7-5.89,3.15,8.25-29,12.56,36.83,4.52-39.62-9,4.19,7.26-16.41-12,2.62,17.47-56.73-8.15,3.31,5.69-24.82,1.66-7.24,5.61-24.49,3.8,27,1.16,8.2,2.11,15-7.95-5.24,10.9,35.35-8-4.45,10.41,48.44-8.34-5.5L1406.13,806l6.18-77.24,6.19,18.59,1.47-40.06,8.83,22.52,5.57-27.57.62-3.06-3.32,2-7.58,4.55,2.85-6.37c1.05-2.36,2.11-4.71,3.17-7.07.41-.93.83-1.86,1.25-2.79L1424,690l-.48,0,0-.19,7-39.4,4.43-24.82,8,28.22,3.2,11.32-10.9-4.19,15,31.16-8.55-2.88,1.51,8.31,1.63,9,2.75,15.14,7.54-10.66,4.43-6.28,3.94-5.57-9.79,2.9-.81.24.12-.54,9.57-42.06.91-4,1.25,4.7,14.4,54,.55,2.05.56-1.47L1496,673.57l5,35.61,16.17-29.72,1.5-2.75,1.63,4,19.57,48.33,9.54-35.7,4.6-17.19-15.9,5.24,17.67-55.77L1544,632.46l5.37-15.71,11.56-33.82,5.45-15.93,4.1,17.31,14.46,61-13.26-3.14,11.49,36.13-10-3.93,7.78,34.23,4,17.61,5.12-12.91,16.18-40.76v41.89l18.85-26.53,16.56,32.22L1660,699.49,1678,740l-12.67.07q4,11,8,22h0q2.32,6.45,4.67,12.89l5.28-6.34L1698,751h-13l21-33.11h-10L1706,670l23,29.49L1718,706l20,24-15,1,15,44,18-57.11,8,57.11,13-21,6,21,20-47-11,2,11-38-10,3,7.68-47.6L1803,633l11.81,20.24L1824,669l-11,2,19,42,12-35-10-1,5.94-12.78L1862,616.75,1876,653l-15,4.36,11.78,22.37,3.22,6.12,1.29-3.88,17.69-53.1h-12L1903,567l17,20.26Z" transform="translate(0 -567)"/></svg>