<svg id="Layer_1" data-name="Layer 1" xmlns="http://www.w3.org/2000/svg" viewBox="0 0 252.67 174.46"><defs><style>.cls-1{fill:#091a30;}</style></defs><title>yt</title><path class="cls-1" d="M651,363.16c-1.29-5.08-3.69-13.59-11.12-19.39-6.82-5.32-14.58-5.9-17.78-6.14-55-4.1-82.49-6.15-184.84-.17a30,30,0,0,0-13.29,3.74c-9.67,5.5-14.68,16.11-16,26-.68,5.12-1.4,10.22-2.11,15.32-.39,6.9-3.42,63.14,2.11,92.81,1.13,6.06,3.15,13.87,9.47,20.05A33.23,33.23,0,0,0,438,504.46c53.41,4.92,106.86,4.48,160.33,1.43,7.75-.44,15.48-1,23.21-1.46a31.62,31.62,0,0,0,20.41-8.57c5.83-5.64,7.78-12.52,8.83-16.91C657.69,450.07,661.09,402.88,651,363.16ZM497.38,459.82V376.65l79.9,41.79Z" transform="translate(-404.65 -333.71)"/></svg>