<svg id="Layer_1" data-name="Layer 1" xmlns="http://www.w3.org/2000/svg" xmlns:xlink="http://www.w3.org/1999/xlink" viewBox="0 0 360 736"><defs><style>.cls-1{fill:#fff;}.cls-2{fill:url(#linear-gradient);}.cls-3{fill:url(#linear-gradient-2);}.cls-4{fill:#051932;}</style><linearGradient id="linear-gradient" x1="180" y1="324.67" x2="180" y2="8.35" gradientUnits="userSpaceOnUse"><stop offset="0" stop-color="#0c192c"/><stop offset="1" stop-color="#0c192c" stop-opacity="0"/></linearGradient><linearGradient id="linear-gradient-2" x1="180" y1="1050.36" x2="180" y2="478.38" gradientUnits="userSpaceOnUse"><stop offset="0" stop-color="#fff"/><stop offset="1" stop-color="#fff" stop-opacity="0"/></linearGradient></defs><title>background</title><rect class="cls-1" width="360" height="243.67"/><rect class="cls-2" y="5.67" width="360" height="150.96"/><path class="cls-1" d="M2.92,111.23A12.15,12.15,0,0,1,0,110.35v-15a104.39,104.39,0,0,0,7.16,15.9A13.08,13.08,0,0,1,2.92,111.23Z"/><path class="cls-1" d="M355,68.66c-1.41.87.67,7.85,4,13.67.3.53.64,1.08,1,1.67v9.35a.62.62,0,0,0-.61,0c-.46.36,0,1.73.61,3.27V736H0V128.64c1.5,4.32,3.36,9.28,5.65,14.84,4.37-7.94,10.5-19.18,17.77-32.76,2-3.66,17-31.84,15.31-32.86-.62-.37-2.62,3.48-7.75,6a21.19,21.19,0,0,1-10.21,2c7.62-9.13,15.41-19.19,23.15-30.21,4.53-6.45,8.73-12.8,12.63-19a224.05,224.05,0,0,0,0,28.57A221.77,221.77,0,0,0,61.1,98.08a36.77,36.77,0,0,1-5.75-4.83c-3.32-3.43-4.16-5.64-4.78-5.45-1.46.46.74,13.81,5,28.13a208.41,208.41,0,0,0,12.63,32.6,159.56,159.56,0,0,0,19.74-24.36c8.24-12.51,15.3-27.08,12.87-28.91-1-.73-2.68,1.14-7.35,2.11a24.81,24.81,0,0,1-10.64-.22c21.1-26.59,25.72-34.1,24.85-34.86-.53-.47-2.88,1.82-8.16,3.65a35.12,35.12,0,0,1-9.63,1.88A97,97,0,0,0,107.1,51.49a97.23,97.23,0,0,0,11.46-17.35,134.54,134.54,0,0,0,3.58,20.63,136.1,136.1,0,0,0,12.55,31.8,12.1,12.1,0,0,1-7.76-2c-3.44-2.51-4.21-6.68-5.2-6.48-1.23.25-.85,6.14-.85,6.14.32,5,1.72,15.39,8.27,36.08,10.62-8,15.6-13.88,18.11-17.51.8-1.16,3.22-4.68,2.44-5.49-.51-.53-2.12.39-3.7,1a22.34,22.34,0,0,1-11.31,1.3A89.14,89.14,0,0,0,150.12,86,89.86,89.86,0,0,0,159.85,73a113.4,113.4,0,0,0,2.37,17.27,116.13,116.13,0,0,0,11,30.12A173.33,173.33,0,0,0,196,86.7c4-7.84,4.9-11.47,4.16-11.93s-2.78,2.43-7,5a28.3,28.3,0,0,1-9.74,3.69q15.72-20.89,31.45-41.8l13.61,51.92a24.06,24.06,0,0,1-6.83-4.19c-3.46-3-4.26-5.59-5.29-5.34-1.87.45-1.52,9.48-.51,16.38a76.48,76.48,0,0,0,4.06,15.83,86.53,86.53,0,0,0,22-23.22,82.82,82.82,0,0,0,5.74-10.55,91.71,91.71,0,0,0,17.62,37.6c8.11-6,11.85-12.34,13.69-16.55,2.26-5.12,3.47-11.11,2.4-11.6-.73-.34-2,2.1-5.42,4.63a23.77,23.77,0,0,1-7.11,3.57A156.87,156.87,0,0,0,281.1,71.32a155.82,155.82,0,0,0,5.32-23.07,137.36,137.36,0,0,0,11.82,22.32,138.81,138.81,0,0,0,19.43,23.56,21.86,21.86,0,0,1-7.25-.88c-4.29-1.29-6.27-3.42-7.14-2.77-1,.75.24,4.8,3.53,10.84a93.35,93.35,0,0,0,17.41,22.54,169.94,169.94,0,0,0,13.42-36c3.19-12.9,5.26-28,3.75-28.39-.72-.19-1.77,3.12-4.48,7.78a60,60,0,0,1-12.69,15.27,179.84,179.84,0,0,0,12.1-59.35,112,112,0,0,0,15.44,31.25A110.15,110.15,0,0,0,360,64.73v5.89h0C356.88,69.75,355.72,68.2,355,68.66Z"/><rect class="cls-3" y="468.31" width="360" height="229.54"/><path class="cls-4" d="M7.91,582.9a13.17,13.17,0,0,1-7.91,3v-7.68A90.39,90.39,0,0,0,7.91,582.9Z"/><path class="cls-4" d="M344.45,589.12c-.61.6.44,2.59.65,3,1.93,3.78,6.75,19,14.9,47.49V736H0V596.94A84.52,84.52,0,0,0,13.51,609a11,11,0,0,1-7.77,1.63c-2.06-.45-3.38-1.57-4.06-1-1.19.93,1.08,5.7,1.42,6.4,4,8.36,16.51,19.77,25.32,27.19A152.58,152.58,0,0,0,43.8,607.86c.57-2,3.39-12.23.72-13.65-1.27-.67-2.92,1.08-6.83,2.26a22.26,22.26,0,0,1-9.27.72,106,106,0,0,0,18.22-25.37,105.47,105.47,0,0,0,7.1-17.5A100.08,100.08,0,0,0,55.55,574a103.94,103.94,0,0,0,19,42.46,26.82,26.82,0,0,1-13.86-5.91c-.35-.3-1.28-1.54-1.95-1.3-.94.34-.65,3.37-.54,4.51.63,6.47,8.93,24.48,13.67,34.39a29,29,0,0,0,11.81-9.74,28.07,28.07,0,0,0,3.73-7.66,28.09,28.09,0,0,0,1.14,8.18,30.8,30.8,0,0,0,11.28,15.78c13.25-13.65,16.71-22.59,17.82-27.17.35-1.48,1.63-6.79.35-7.38-.83-.38-2.27,1.44-3.67,2.72-2.42,2.22-6.65,4.58-14.5,4.76,10.14-13.52,14.39-24.34,16.37-31.48.33-1.2,2.61-9.58.62-10.56-1-.51-2.52,1.29-6.11,3.21A28.57,28.57,0,0,1,103,591.6a84.36,84.36,0,0,0,16.5-49.08,123.27,123.27,0,0,0,30.1,64c-7,.52-10.89-1.23-13.15-3.11-1.17-1-2.41-2.4-3.43-2-1.61.57-1.33,5.2-1.23,6.8.59,9.69,9.34,28.52,14.71,39.35a56.38,56.38,0,0,0,16.46-27.65,54.87,54.87,0,0,0,.93-21.43,138.33,138.33,0,0,1,27.85,56.27A41.19,41.19,0,0,0,199.6,641c.36-1.13,1.39-4.42.39-5-.52-.33-1.31.25-2.64.78a13.21,13.21,0,0,1-5.63.85,56.31,56.31,0,0,0,20-34.17,82.58,82.58,0,0,0,.7,23.53,77.2,77.2,0,0,0,3.65,13.75c22.4-25.88,28.55-39,30.6-44.74.62-1.74,3.49-9.83,1.75-10.82-.8-.46-2.1.88-4.08,2-2.49,1.36-6.45,2.54-12.74,1.4,13.3-14,19-26.28,21.75-34.64,1.69-5.17,3.59-13,2.06-13.66-.9-.41-2.23,1.94-5,3.4-4.29,2.26-9.4,1-13.21-.46a99.43,99.43,0,0,0,27.34-54.06,153.25,153.25,0,0,0,21.28,71.3c-2.89,1.15-6.32,1.93-8.7.31-1.78-1.22-2.27-3.32-3-3.18-1.09.22-1,5.39-.89,7.37.29,4.42,2.26,13.79,14.91,29.21-3.18.37-7.39.28-10.25-2.33-2.36-2.16-2.85-5.17-3.7-5.05-1.21.17-1.35,6.35-1.27,9.09.2,6.27,2.36,18.8,15.85,41.16a45.67,45.67,0,0,0,12.42-30.44,37.87,37.87,0,0,1,8.7,28.58c18-22.59,21.55-34.51,22.37-40,.27-1.82,1.21-8.07-.2-8.55-1-.34-2.65,2.39-4.15,4.41-2.65,3.58-7.09,8-14.91,11.81,6-9.92,15.18-26.5,15.74-36.56.11-1.91.4-7.25-1.17-7.72-.81-.24-1.78.9-2.35,1.51-1.94,2-5.42,4.37-12.22,5.49A98.82,98.82,0,0,0,328.53,517a119.16,119.16,0,0,0,22.37,46c-3.85.76-6.3.09-7.87-.72-1-.51-1.64-1.09-2.07-.83-1.16.69,1.13,6.54,1.66,7.87,1.51,3.84,5.44,11.41,17.38,23.32v1.78a33,33,0,0,1-9.72-3C347.75,590.13,345.18,588.4,344.45,589.12Z"/></svg>