<svg id="Layer_1" data-name="Layer 1" xmlns="http://www.w3.org/2000/svg" viewBox="0 0 292.95 99.51"><defs><style>.cls-1{fill:#3ac6f4;}.cls-2{fill:#fff;}.cls-3{fill:#29b293;}</style></defs><title>branding</title><polygon class="cls-1" points="182.76 14.05 186.99 19.2 181.83 14.98 181.11 26.66 180.39 14.98 175.24 19.2 179.46 14.05 167.78 13.33 179.46 12.61 175.24 7.45 180.39 11.68 181.11 0 181.83 11.68 186.99 7.45 182.76 12.61 194.44 13.33 182.76 14.05"/><path class="cls-1" d="M214.79,145.14h-.32l-13.17,30.35H207l7.34-17.65,7,17.65H228Z" transform="translate(-33.52 -104.66)"/><path class="cls-2" d="M247.52,146.29v5.55h-7.1v23.65h-5.75V151.84h-6.82v-5.55Z" transform="translate(-33.52 -104.66)"/><path class="cls-2" d="M258.83,146.29v29.2h-5.75v-29.2Z" transform="translate(-33.52 -104.66)"/><path class="cls-2" d="M266.59,153.51A15.14,15.14,0,0,1,272,148a14.57,14.57,0,0,1,14.88,0,15.48,15.48,0,0,1,5.48,5.49,14.56,14.56,0,0,1,0,14.88,15.24,15.24,0,0,1-5.48,5.42,14.85,14.85,0,0,1-14.9,0,15,15,0,0,1-5.42-5.42,14.81,14.81,0,0,1,0-14.88Zm5.16,12.1A9.11,9.11,0,0,0,275,169a8.81,8.81,0,0,0,4.62,1.25,8.36,8.36,0,0,0,4.48-1.25,8.85,8.85,0,0,0,3.17-3.37,10.15,10.15,0,0,0,0-9.46,9.07,9.07,0,0,0-3.23-3.39,8.88,8.88,0,0,0-9.09,0,9.05,9.05,0,0,0-3.23,3.39,9.64,9.64,0,0,0-1.19,4.76A9.35,9.35,0,0,0,271.75,165.61Z" transform="translate(-33.52 -104.66)"/><path class="cls-2" d="M326.48,146.29v30.39h-.16l-20.43-18.45.12,17.26h-5.83V145.13h.24l20.39,18.73-.12-17.58Z" transform="translate(-33.52 -104.66)"/><path class="cls-2" d="M70.18,146.29v23.65H83.91v5.55H64.43v-29.2Z" transform="translate(-33.52 -104.66)"/><path class="cls-2" d="M95.85,167.35a6.4,6.4,0,0,0,2.22,2.06,5.9,5.9,0,0,0,3,.79,6.34,6.34,0,0,0,3.13-.79,6.14,6.14,0,0,0,2.24-2.06,4.86,4.86,0,0,0,.81-2.66V146.29h5.67v18.53a10.39,10.39,0,0,1-1.59,5.65,10.92,10.92,0,0,1-4.3,3.93,13.32,13.32,0,0,1-11.92,0,10.81,10.81,0,0,1-4.27-3.93,10.48,10.48,0,0,1-1.57-5.65V146.29H95v18.41A4.77,4.77,0,0,0,95.85,167.35Z" transform="translate(-33.52 -104.66)"/><path class="cls-2" d="M149.93,145.09v30.39h-5.75V161.56l-9.52,13.53h-.08l-9.16-12.66v13.05h-5.55V145.09h0l14.8,21,15.16-21Z" transform="translate(-33.52 -104.66)"/><path class="cls-2" d="M163.22,146.29v29.2h-5.75v-29.2Z" transform="translate(-33.52 -104.66)"/><path class="cls-2" d="M197.06,146.29v30.39h-.16l-20.43-18.45.12,17.26h-5.83V145.13H171l20.39,18.73-.12-17.58Z" transform="translate(-33.52 -104.66)"/><path class="cls-2" d="M47,145.14h-.32L33.52,175.48h5.67l7.34-17.65,7,17.65h6.67Z" transform="translate(-33.52 -104.66)"/><path class="cls-2" d="M214.63,204.17A43.86,43.86,0,0,1,193,198.49a1.54,1.54,0,1,1,1.52-2.69,40.81,40.81,0,0,0,40.68-.29,39.83,39.83,0,0,0,4.33-2.92A40.72,40.72,0,0,0,249.78,181a1.54,1.54,0,1,1,2.66,1.57,43.8,43.8,0,0,1-11,12.45,42.84,42.84,0,0,1-4.67,3.15A43.78,43.78,0,0,1,214.63,204.17Z" transform="translate(-33.52 -104.66)"/><path class="cls-2" d="M251.1,140.37a1.54,1.54,0,0,1-1.33-.76,40.7,40.7,0,0,0-18.2-16.41,1.54,1.54,0,1,1,1.28-2.81A43.77,43.77,0,0,1,252.43,138a1.55,1.55,0,0,1-1.33,2.33Z" transform="translate(-33.52 -104.66)"/><path class="cls-2" d="M178.16,140.38a1.54,1.54,0,0,1-1.33-2.33,43.76,43.76,0,0,1,19.58-17.65,1.54,1.54,0,1,1,1.28,2.81,40.69,40.69,0,0,0-18.21,16.41A1.54,1.54,0,0,1,178.16,140.38Z" transform="translate(-33.52 -104.66)"/><path class="cls-3" d="M39.49,184.33l-2.44,4.33v2.17h-.87v-2.17l-2.41-4.33h1.08l1.79,3.34,1.78-3.34Z" transform="translate(-33.52 -104.66)"/><path class="cls-3" d="M40.19,185.93a3.44,3.44,0,0,1,1.21-1.22,3.25,3.25,0,0,1,3.31,0,3.47,3.47,0,0,1,1.22,1.22,3.27,3.27,0,0,1,0,3.32,3.33,3.33,0,0,1-1.22,1.21,3.3,3.3,0,0,1-5-2.87A3.21,3.21,0,0,1,40.19,185.93Zm.77,2.9a2.42,2.42,0,0,0,.89.9,2.42,2.42,0,0,0,2.45,0,2.39,2.39,0,0,0,.87-.9,2.59,2.59,0,0,0,0-2.5,2.43,2.43,0,0,0-.88-.91,2.35,2.35,0,0,0-1.22-.33,2.31,2.31,0,0,0-1.22.34,2.41,2.41,0,0,0-.88.91,2.52,2.52,0,0,0-.32,1.25A2.44,2.44,0,0,0,41,188.83Z" transform="translate(-33.52 -104.66)"/><path class="cls-3" d="M48.85,189.31a1.51,1.51,0,0,0,.56.55,1.57,1.57,0,0,0,.79.2,1.68,1.68,0,0,0,.81-.2,1.46,1.46,0,0,0,.57-.55,1.51,1.51,0,0,0,.21-.78v-4.2h.85v4.22a2.33,2.33,0,0,1-.32,1.23,2.21,2.21,0,0,1-.88.83,2.77,2.77,0,0,1-2.47,0,2.18,2.18,0,0,1-.88-.83,2.37,2.37,0,0,1-.32-1.23v-4.22h.87v4.2A1.48,1.48,0,0,0,48.85,189.31Z" transform="translate(-33.52 -104.66)"/><path class="cls-3" d="M58,190.83l-1.53-2.4H55.31v2.39h-.87v-6.5h1.74a2.89,2.89,0,0,1,1.19.23,1.86,1.86,0,0,1,.82.69,1.94,1.94,0,0,1,.3,1.09,2.32,2.32,0,0,1-.27,1.11,1.73,1.73,0,0,1-.81.76L59,190.83Zm-.75-3.6a1.28,1.28,0,0,0,.31-.85,1.31,1.31,0,0,0-.13-.57,1.12,1.12,0,0,0-.41-.46,1.29,1.29,0,0,0-.72-.18h-1v2.43h.94A1.26,1.26,0,0,0,57.26,187.23Z" transform="translate(-33.52 -104.66)"/><path class="cls-3" d="M68.88,184.33v6.72h0l-4.77-4.85,0,4.63h-.88v-6.7h0L68,189l0-4.7Z" transform="translate(-33.52 -104.66)"/><path class="cls-3" d="M70.79,185.93A3.44,3.44,0,0,1,72,184.72a3.25,3.25,0,0,1,3.31,0,3.47,3.47,0,0,1,1.22,1.22,3.27,3.27,0,0,1,0,3.32,3.33,3.33,0,0,1-1.22,1.21,3.3,3.3,0,0,1-5-2.87A3.21,3.21,0,0,1,70.79,185.93Zm.77,2.9a2.42,2.42,0,0,0,.89.9,2.42,2.42,0,0,0,2.45,0,2.39,2.39,0,0,0,.87-.9,2.59,2.59,0,0,0,0-2.5,2.43,2.43,0,0,0-.88-.91,2.35,2.35,0,0,0-1.22-.33,2.31,2.31,0,0,0-1.22.34,2.41,2.41,0,0,0-.88.91,2.52,2.52,0,0,0-.32,1.25A2.44,2.44,0,0,0,71.57,188.83Z" transform="translate(-33.52 -104.66)"/><path class="cls-3" d="M82,190.83l-1.53-2.4H79.33v2.39h-.87v-6.5h1.74a2.89,2.89,0,0,1,1.19.23,1.86,1.86,0,0,1,.82.69,1.94,1.94,0,0,1,.3,1.09,2.32,2.32,0,0,1-.27,1.11,1.73,1.73,0,0,1-.81.76L83,190.83Zm-.75-3.6a1.28,1.28,0,0,0,.31-.85,1.31,1.31,0,0,0-.13-.57,1.12,1.12,0,0,0-.41-.46,1.29,1.29,0,0,0-.72-.18h-1v2.43h.94A1.26,1.26,0,0,0,81.28,187.23Z" transform="translate(-33.52 -104.66)"/><path class="cls-3" d="M88.14,184.33v.84H86.39v5.66h-.87v-5.66h-1.7v-.84Z" transform="translate(-33.52 -104.66)"/><path class="cls-3" d="M94.68,190.83h-.87V188H90.4v2.85h-.87v-6.5h.87v2.81h3.41v-2.81h.87Z" transform="translate(-33.52 -104.66)"/><path class="cls-3" d="M100.78,184.33v.84H97.43v2h3V188h-3v2h3.48v.85H96.55v-6.5Z" transform="translate(-33.52 -104.66)"/><path class="cls-3" d="M106,190.83l-1.53-2.4H103.3v2.39h-.87v-6.5h1.74a2.89,2.89,0,0,1,1.19.23,1.86,1.86,0,0,1,.82.69,1.94,1.94,0,0,1,.3,1.09,2.32,2.32,0,0,1-.27,1.11,1.73,1.73,0,0,1-.81.76l1.63,2.62Zm-.75-3.6a1.28,1.28,0,0,0,.31-.85,1.31,1.31,0,0,0-.13-.57,1.12,1.12,0,0,0-.41-.46,1.29,1.29,0,0,0-.72-.18h-1v2.43h.94A1.26,1.26,0,0,0,105.25,187.23Z" transform="translate(-33.52 -104.66)"/><path class="cls-3" d="M114,184.33v6.72h0l-4.78-4.85,0,4.63h-.88v-6.7h0l4.77,4.9,0-4.7Z" transform="translate(-33.52 -104.66)"/><path class="cls-3" d="M121.35,185.19a2.58,2.58,0,0,0-.75-.12,1.35,1.35,0,0,0-.84.24.81.81,0,0,0,.05,1.31,4.75,4.75,0,0,0,1,.51,4.78,4.78,0,0,1,.85.39,1.77,1.77,0,0,1,.58.58,1.79,1.79,0,0,1,.23,1,1.76,1.76,0,0,1-.26.94,1.79,1.79,0,0,1-.74.66,2.45,2.45,0,0,1-1.13.24,3.5,3.5,0,0,1-1.16-.19,4,4,0,0,1-1-.49l.39-.69a3.17,3.17,0,0,0,.8.43,2.49,2.49,0,0,0,.87.18,1.57,1.57,0,0,0,.91-.27.91.91,0,0,0,.39-.8.88.88,0,0,0-.33-.72,3.63,3.63,0,0,0-.92-.5,7.46,7.46,0,0,1-.91-.4,1.94,1.94,0,0,1-.63-.54,1.4,1.4,0,0,1-.26-.87,1.57,1.57,0,0,1,.53-1.24,2.14,2.14,0,0,1,1.39-.5,3.83,3.83,0,0,1,2,.52l-.33.67A3.91,3.91,0,0,0,121.35,185.19Z" transform="translate(-33.52 -104.66)"/><path class="cls-3" d="M127.76,184.33v.84H126v5.66h-.87v-5.66h-1.7v-.84Z" transform="translate(-33.52 -104.66)"/><path class="cls-3" d="M132.05,189.13h-2.5l-.69,1.71H128l2.84-6.77h.05l2.84,6.77h-1Zm-.3-.76-.93-2.37-1,2.37Z" transform="translate(-33.52 -104.66)"/><path class="cls-3" d="M138.53,190.83l-1.53-2.4h-1.18v2.39h-.87v-6.5h1.74a2.89,2.89,0,0,1,1.19.23,1.86,1.86,0,0,1,.82.69,1.94,1.94,0,0,1,.3,1.09,2.32,2.32,0,0,1-.27,1.11,1.73,1.73,0,0,1-.81.76l1.63,2.62Zm-.75-3.6a1.28,1.28,0,0,0,.31-.85,1.31,1.31,0,0,0-.13-.57,1.12,1.12,0,0,0-.41-.46,1.29,1.29,0,0,0-.72-.18h-1v2.43h.94A1.26,1.26,0,0,0,137.78,187.23Z" transform="translate(-33.52 -104.66)"/><path class="cls-3" d="M144.6,184.33V190h3.31v.85h-4.18v-6.5Z" transform="translate(-33.52 -104.66)"/><path class="cls-3" d="M150.19,184.33v6.5h-.87v-6.5Z" transform="translate(-33.52 -104.66)"/><path class="cls-3" d="M156.29,184.33v.84h-3.35v2h3V188h-3v2h3.48v.85h-4.35v-6.5Z" transform="translate(-33.52 -104.66)"/><path class="cls-3" d="M160.55,185.19a2.58,2.58,0,0,0-.75-.12,1.35,1.35,0,0,0-.84.24.81.81,0,0,0,.05,1.31,4.75,4.75,0,0,0,1,.51,4.78,4.78,0,0,1,.85.39,1.77,1.77,0,0,1,.58.58,1.79,1.79,0,0,1,.23,1,1.76,1.76,0,0,1-.26.94,1.79,1.79,0,0,1-.74.66,2.45,2.45,0,0,1-1.13.24,3.5,3.5,0,0,1-1.16-.19,4,4,0,0,1-1-.49l.39-.69a3.17,3.17,0,0,0,.8.43,2.49,2.49,0,0,0,.87.18,1.57,1.57,0,0,0,.91-.27.91.91,0,0,0,.39-.8.88.88,0,0,0-.33-.72,3.63,3.63,0,0,0-.92-.5,7.46,7.46,0,0,1-.91-.4,1.94,1.94,0,0,1-.63-.54,1.4,1.4,0,0,1-.26-.87,1.57,1.57,0,0,1,.53-1.24,2.14,2.14,0,0,1,1.39-.5,3.83,3.83,0,0,1,2,.52l-.33.67A3.91,3.91,0,0,0,160.55,185.19Z" transform="translate(-33.52 -104.66)"/><path class="cls-3" d="M171.16,190.83h-.87V188h-3.41v2.85H166v-6.5h.87v2.81h3.41v-2.81h.87Z" transform="translate(-33.52 -104.66)"/><path class="cls-3" d="M177.25,184.33v.84H173.9v2h3V188h-3v2h3.48v.85H173v-6.5Z" transform="translate(-33.52 -104.66)"/><path class="cls-3" d="M182.48,190.83l-1.53-2.4h-1.18v2.39h-.87v-6.5h1.74a2.89,2.89,0,0,1,1.19.23,1.85,1.85,0,0,1,.82.69,1.94,1.94,0,0,1,.3,1.09,2.32,2.32,0,0,1-.27,1.11,1.72,1.72,0,0,1-.81.76l1.63,2.62Zm-.75-3.6a1.28,1.28,0,0,0,.31-.85,1.31,1.31,0,0,0-.13-.57,1.12,1.12,0,0,0-.41-.46,1.29,1.29,0,0,0-.72-.18h-1v2.43h.94A1.26,1.26,0,0,0,181.73,187.23Z" transform="translate(-33.52 -104.66)"/><path class="cls-3" d="M189.06,184.33v.84H185.7v2h3V188h-3v2h3.48v.85h-4.35v-6.5Z" transform="translate(-33.52 -104.66)"/></svg>