<svg id="Layer_1" data-name="Layer 1" xmlns="http://www.w3.org/2000/svg" viewBox="0 0 35.82 43.16"><defs><style>.cls-1{fill:#3ac6f4;}.cls-2{fill:#fff;}</style></defs><title>logo</title><g id="_Group_" data-name="&lt;Group&gt;"><polygon class="cls-1" points="18.84 7.92 21.23 10.83 18.32 8.45 17.91 15.04 17.51 8.45 14.6 10.83 16.98 7.92 10.39 7.52 16.98 7.11 14.6 4.21 17.51 6.59 17.91 0 18.32 6.59 21.23 4.21 18.84 7.11 25.43 7.52 18.84 7.92"/></g><g id="_Group_2" data-name="&lt;Group&gt;"><path class="cls-1" d="M259.33,330.72h-.15L253,344.92h2.65l3.43-8.26,3.27,8.26h3.12Z" transform="translate(-241.34 -313.61)"/></g><g id="_Group_3" data-name="&lt;Group&gt;"><path class="cls-2" d="M259.25,356.77a17.91,17.91,0,0,1-9.17-33.3A.91.91,0,1,1,251,325a16.09,16.09,0,1,0,16.47,0,.91.91,0,1,1,.93-1.56,17.91,17.91,0,0,1-9.17,33.3Z" transform="translate(-241.34 -313.61)"/></g></svg>