<svg id="Layer_1" data-name="Layer 1" xmlns="http://www.w3.org/2000/svg" viewBox="0 0 360 145.9"><defs><style>.cls-1{fill:#fff;}</style></defs><title>footer</title><path class="cls-1" d="M360,682.81V736H0V686.73a182.7,182.7,0,0,0,44.67,5.15c74.24-.77,105.57-47.24,170.59-55.06C250.7,632.56,298.65,639.52,360,682.81Z" transform="translate(0 -590.1)"/><path class="cls-1" d="M360,590.1V610c-40.94,5.73-76.48-1.51-76.47-1.71l.13,0A232.58,232.58,0,0,0,360,590.1Z" transform="translate(0 -590.1)"/><path class="cls-1" d="M360,621.42v52.06c-61.35-43.29-109.3-50.25-144.74-46-65,7.82-96.35,54.29-170.59,55.06A182.7,182.7,0,0,1,0,677.4V613.53a207,207,0,0,0,20.22,8C63.5,636,103.4,633.28,130.13,631.42c48-3.32,51.31-13.28,96.48-14.66,48.21-1.48,58.62,9.43,98.26,8.46A212.93,212.93,0,0,0,360,621.42Z" transform="translate(0 -590.1)"/><path class="cls-1" d="M131.43,623.88c0,.48-53.24,8.6-108.08-17.16A187.82,187.82,0,0,1,0,593.62v-2.47a197,197,0,0,0,23.76,13.38C78.85,630.65,131.46,623.41,131.43,623.88Z" transform="translate(0 -590.1)"/></svg>