<?xml version="1.0" encoding="utf-8"?>
<!-- Generator: Adobe Illustrator 21.1.0, SVG Export Plug-In . SVG Version: 6.00 Build 0)  -->
<svg version="1.1" id="Layer_1" xmlns="http://www.w3.org/2000/svg" xmlns:xlink="http://www.w3.org/1999/xlink" x="0px" y="0px"
	 viewBox="0 0 360 736" style="enable-background:new 0 0 360 736;" xml:space="preserve">
<style type="text/css">
	.st0{clip-path:url(#_Rectangle__2_);}
	.st1{fill:url(#_Rectangle__3_);}
	.st2{opacity:0.59;fill:#5E7272;enable-background:new    ;}
	.st3{fill:#FFFFFF;}
	.st4{opacity:0.3;fill:#FFFFFF;enable-background:new    ;}
	.st5{opacity:4.000000e-02;fill:#FFFFFF;enable-background:new    ;}
	.st6{opacity:3.000000e-02;fill:#FFFFFF;enable-background:new    ;}
	.st7{opacity:2.000000e-02;fill:#FFFFFF;enable-background:new    ;}
	.st8{opacity:1.000000e-02;fill:#FFFFFF;enable-background:new    ;}
	.st9{fill:url(#SVGID_1_);}
	.st10{fill:url(#SVGID_2_);}
	.st11{opacity:0.28;fill:#FFFFFF;enable-background:new    ;}
	.st12{fill:url(#SVGID_3_);}
	.st13{fill:#0C192C;}
	.st14{fill:#3AC6F4;}
	.st15{fill:#29B293;}
</style>
<title>page 1</title>
<g>
	<defs>
		<rect id="_Rectangle__1_" width="360" height="736"/>
	</defs>
	<clipPath id="_Rectangle__2_">
		<use xlink:href="#_Rectangle__1_"  style="overflow:visible;"/>
	</clipPath>
	<g class="st0">
		
			<linearGradient id="_Rectangle__3_" gradientUnits="userSpaceOnUse" x1="180" y1="-617.59" x2="180" y2="646.3099" gradientTransform="matrix(1 0 0 -1 0 736)">
			<stop  offset="0" style="stop-color:#0095DA"/>
			<stop  offset="8.000000e-02" style="stop-color:#0087C7"/>
			<stop  offset="0.31" style="stop-color:#005F92"/>
			<stop  offset="0.52" style="stop-color:#004069"/>
			<stop  offset="0.72" style="stop-color:#002A4B"/>
			<stop  offset="0.88" style="stop-color:#001C38"/>
			<stop  offset="1" style="stop-color:#001732"/>
		</linearGradient>
		<rect id="_Rectangle_" class="st1" width="360" height="736"/>
		<path class="st2" d="M224.2,320.5c14.8-2.3,29.9-1.6,44.4,2.3c20.5,5.6,38.8,17,52.9,32.9c-16-15.9-36.1-27.1-58-32.4
			C250.7,320.2,237.4,319.3,224.2,320.5z"/>
		<path class="st2" d="M409.7,273.8c-6.4,2.6-12.6,4.9-18.6,6.9c28.8,0.2,56.5-11,77.1-31l-0.9,16.6c-11.1,7.8-23.1,14.3-35.8,19.1
			c-57.8,21.9-123.1,7.8-123.1,7.5h0.1c36.2-1.8,71.4-11.7,103.3-28.9c20.4-11.1,39.1-25.2,55.5-41.7v19
			C449.5,254.4,430.2,265.3,409.7,273.8z"/>
		<path class="st2" d="M351.5,311.2c-118.8-40.5-204.9,34.7-320-8c-26.7-9.9-67.4-30.8-109.2-81.1L-94.1,306
			c34.2,28.2,86.5,61.5,150.5,61.6c80.3,0.2,114.1-51.7,179.9-55.5c50.9-3,124.1,22.7,218.9,153.8l3.5-84
			C439.2,361.3,403.7,329,351.5,311.2z M-2.3,310c-10.6-5.8-20.4-12.9-29.2-21.3c6.9,3.8,14.5,7.7,22.9,11.5c0,0,14.4,6.6,27.2,11
			c31.6,10.9,80.3,11.3,86.3,11.3C87.3,326.4,41.9,334-2.3,310z"/>
		<path class="st2" d="M-57.7,198.7c-0.4,0.3,28.8,58,92.7,89c57.3,27.8,113.3,20,113.3,19.5S93,313.6,35.5,285.4
			C-28.1,254.3-57.3,198.4-57.7,198.7z"/>
		
			<ellipse transform="matrix(0.7071 -0.7071 0.7071 0.7071 -215.0631 180.4208)" class="st3" cx="110.3" cy="349.8" rx="0.4" ry="0.4"/>
		
			<ellipse transform="matrix(0.7071 -0.7071 0.7071 0.7071 -217.4979 167.6303)" class="st3" cx="93.6" cy="346.4" rx="0.4" ry="0.4"/>
		
			<ellipse transform="matrix(0.7071 -0.7071 0.7071 0.7071 -205.575 196.4338)" class="st3" cx="134.3" cy="346.4" rx="0.4" ry="0.4"/>
		
			<ellipse transform="matrix(0.7071 -0.7071 0.7071 0.7071 -143.5452 264.3018)" class="st3" cx="247.3" cy="305.4" rx="0.4" ry="0.4"/>
		
			<ellipse transform="matrix(0.7071 -0.7071 0.7071 0.7071 -128.9973 323.4896)" class="st3" cx="326" cy="317.5" rx="0.4" ry="0.4"/>
		
			<ellipse transform="matrix(0.7071 -0.7071 0.7071 0.7071 -186.4092 192.2889)" class="st3" cx="138.9" cy="321.2" rx="0.4" ry="0.4"/>
		
			<ellipse transform="matrix(0.7071 -0.7071 0.7071 0.7071 -152.0928 255.3139)" class="st3" cx="232.1" cy="311.2" rx="0.4" ry="0.4"/>
		
			<ellipse transform="matrix(0.7071 -0.7071 0.7071 0.7071 -151.2023 278.4811)" class="st3" cx="260.6" cy="321.8" rx="0.4" ry="0.4"/>
		<ellipse transform="matrix(0.7071 -0.7071 0.7071 0.7071 -233.801 103.5724)" class="st3" cx="8.1" cy="334" rx="0.4" ry="0.4"/>
		
			<ellipse transform="matrix(0.7071 -0.7071 0.7071 0.7071 -192.8609 108.1233)" class="st3" cx="34.1" cy="286.9" rx="0.4" ry="0.4"/>
		
			<ellipse transform="matrix(0.7071 -0.7071 0.7071 0.7071 -186.6055 206.875)" class="st3" cx="156.4" cy="328.7" rx="0.4" ry="0.4"/>
		
			<ellipse transform="matrix(0.7071 -0.7071 0.7071 0.7071 -137.8564 294.3083)" class="st3" cx="286.3" cy="313.6" rx="0.4" ry="0.4"/>
		
			<ellipse transform="matrix(0.7071 -0.7071 0.7071 0.7071 -152.7731 270.3331)" class="st3" cx="249.9" cy="319.6" rx="0.4" ry="0.4"/>
		
			<ellipse transform="matrix(0.7071 -0.7071 0.7071 0.7071 -110.47 320.3525)" class="st3" cx="331.5" cy="293.5" rx="0.4" ry="0.4"/>
		
			<ellipse transform="matrix(0.7071 -0.7071 0.7071 0.7071 -121.2119 315.9105)" class="st3" cx="320.7" cy="304.3" rx="0.4" ry="0.4"/>
		
			<ellipse transform="matrix(0.7071 -0.7071 0.7071 0.7071 -135.6845 335.7662)" class="st3" cx="337.5" cy="331.7" rx="0.4" ry="0.4"/>
		
			<ellipse transform="matrix(0.7071 -0.7071 0.7071 0.7071 -148.9764 247.7775)" class="st3" cx="224.6" cy="303.7" rx="0.4" ry="0.4"/>
		
			<ellipse transform="matrix(0.7071 -0.7071 0.7071 0.7071 -197.8152 172.7197)" class="st3" cx="109.6" cy="325.1" rx="0.6" ry="0.6"/>
		
			<ellipse transform="matrix(0.7071 -0.7071 0.7071 0.7071 -221.6728 177.6852)" class="st3" cx="103.6" cy="356.4" rx="0.6" ry="0.6"/>
		
			<ellipse transform="matrix(0.7071 -0.7071 0.7071 0.7071 -141.8085 270.8408)" class="st3" cx="256" cy="306.6" rx="0.6" ry="0.6"/>
		
			<ellipse transform="matrix(0.7071 -0.7071 0.7071 0.7071 -124.3308 338.26)" class="st3" cx="346.2" cy="319.2" rx="0.6" ry="0.6"/>
		
			<ellipse transform="matrix(0.7071 -0.7071 0.7071 0.7071 -135.3237 303.5938)" class="st3" cx="298.8" cy="315.1" rx="0.6" ry="0.6"/>
		
			<ellipse transform="matrix(0.7071 -0.7071 0.7071 0.7071 -210.8771 98.229)" class="st3" cx="13.1" cy="303.7" rx="0.6" ry="0.6"/>
		
			<ellipse transform="matrix(0.7071 -0.7071 0.7071 0.7071 -191.9592 98.6893)" class="st3" cx="23.1" cy="281.1" rx="0.6" ry="0.6"/>
		
			<ellipse transform="matrix(0.7071 -0.7071 0.7071 0.7071 -161.6195 234.7522)" class="st3" cx="202.6" cy="312.5" rx="0.6" ry="0.6"/>
		
			<ellipse transform="matrix(0.7071 -0.7071 0.7071 0.7071 -102.3674 337.4257)" class="st3" cx="356.1" cy="292.3" rx="0.6" ry="0.6"/>
		
			<ellipse transform="matrix(0.7071 -0.7071 0.7071 0.7071 -226.3862 95.7876)" class="st3" cx="2.4" cy="321.2" rx="0.6" ry="0.6"/>
		
			<ellipse transform="matrix(0.7071 -0.7071 0.7071 0.7071 -224.6787 122.8665)" class="st3" cx="36" cy="332.6" rx="0.6" ry="0.6"/>
		<circle class="st3" cx="7.5" cy="299.5" r="0.6"/>
		<circle class="st3" cx="288.1" cy="305.2" r="0.9"/>
		<circle class="st3" cx="91.9" cy="338" r="0.8"/>
		<circle class="st3" cx="254.8" cy="321.8" r="0.9"/>
		<circle class="st3" cx="342.5" cy="313.6" r="0.8"/>
		<circle class="st3" cx="351.3" cy="296.5" r="0.9"/>
		
			<ellipse transform="matrix(0.8141 -0.5807 0.5807 0.8141 -158.4428 69.6521)" class="st3" cx="29.6" cy="282.3" rx="0.9" ry="0.9"/>
		<path class="st4" d="M91.1,384.4c4.5,0.8,9.1,0.5,13.3-1c7.9-2.8,9.4-8,16.1-8.8c5.3-0.6,6.8,2.4,13.3,3.4
			c4.6,0.7,11.2,0.3,19.9-4.6c-8.9,6-16.4,8-21.6,8.7c-3,0.4-5.5,0.3-10.8,1.3c-7.4,1.3-9.3,2.6-13.8,3.2
			C102,387.2,96.3,386.5,91.1,384.4z"/>
		<circle class="st5" cx="190.9" cy="317.6" r="24.4"/>
		<circle class="st6" cx="190.9" cy="317.6" r="66"/>
		<circle class="st7" cx="190.9" cy="317.6" r="95.2"/>
		<circle class="st8" cx="190.9" cy="317.6" r="129.6"/>
		<circle class="st5" cx="190.9" cy="317.6" r="45.5"/>
		<polygon class="st3" points="192.6,318.3 194.9,321.6 191.7,319.3 190.9,329.1 190.2,319.3 186.9,321.6 189.3,318.3 179.4,317.6 
			189.3,316.9 186.9,313.6 190.2,315.9 190.9,306.1 191.7,315.9 194.9,313.6 192.6,316.9 202.4,317.6 		"/>
		<path class="st4" d="M238,393.6c10.3-6.4,17.2-7.2,21.7-6.6c2.8,0.6,5.7,0.7,8.5,0.2c4.9-0.9,5.8-3.1,10-3.7
			c3.9-0.6,5.4,1,10.8,2.1c4.6,0.9,9.3,1.1,14,0.4C281.9,391.9,260,394.5,238,393.6L238,393.6z"/>
		
			<linearGradient id="SVGID_1_" gradientUnits="userSpaceOnUse" x1="52.4706" y1="351.5812" x2="215.8706" y2="271.7312" gradientTransform="matrix(1 0 0 -1 0 736)">
			<stop  offset="0" style="stop-color:#0095DA"/>
			<stop  offset="8.000000e-02" style="stop-color:#0087C7"/>
			<stop  offset="0.31" style="stop-color:#005F92"/>
			<stop  offset="0.52" style="stop-color:#004069"/>
			<stop  offset="0.72" style="stop-color:#002A4B"/>
			<stop  offset="0.88" style="stop-color:#001C38"/>
			<stop  offset="1" style="stop-color:#001732"/>
		</linearGradient>
		<path class="st9" d="M188.2,349.2l-87.5,97.9v62.4c90.8,16.3,184.4-0.8,263.5-48.2l-55.4-46.7l-35.4-15l-0.9,6l-30.2-22.5
			l-2.6,5.5l-17.6-14.4l-2,3.7L188.2,349.2z"/>
		
			<linearGradient id="SVGID_2_" gradientUnits="userSpaceOnUse" x1="10.1859" y1="220.5146" x2="133.9959" y2="357.4946" gradientTransform="matrix(1 0 0 -1 0 736)">
			<stop  offset="0" style="stop-color:#0095DA"/>
			<stop  offset="8.000000e-02" style="stop-color:#0087C7"/>
			<stop  offset="0.31" style="stop-color:#005F92"/>
			<stop  offset="0.52" style="stop-color:#004069"/>
			<stop  offset="0.72" style="stop-color:#002A4B"/>
			<stop  offset="0.88" style="stop-color:#001C38"/>
			<stop  offset="1" style="stop-color:#001732"/>
		</linearGradient>
		<path class="st10" d="M9.9,452.5l83.8-46.7l58-39l3.6,3.7l6.9-7.1l1.8,1.4l3.1-4.5l2.9,3.4l18.1-14.5l-14.4,19.4l9.7,12.7
			l10.2-5.5L60.5,512L9.9,452.5z"/>
		<path class="st4" d="M88.4,432.5c8.7,0.8,17.5-0.4,25.8-3.5c11.6-4.5,16-10.9,26.3-10.4c6,0.3,7.3,2.7,13.4,1.8
			c7-1,8.7-4.6,15.1-4c3.3,0.3,4.9,1.4,8.9,1c2.3-0.2,4.5-0.9,6.6-1.9c-0.8,2.1-2.2,3.8-4.1,5c-2.6,1.6-5.8,2-8.7,1.2
			c6.9,4.9,12.3,5.7,16,5.6c5.6-0.2,8.3-2.6,15.2-3c4.4-0.2,8.8,0.4,13,1.9c2.4-3.1,5.7-5.5,9.4-6.9c5.9-2,8.6,0.6,14.3-1.7
			c5.4-2.2,5.1-5.4,10.4-7c3.6-1.1,5.1,0,10.5,0.3c1,0,10.5,0.4,18.4-3c8.7-3.7,6.5-8.1,13.8-11.1c9.3-3.9,15.1,2.1,25.8-2
			c3.3-1.3,6.3-3.2,8.9-5.7c-4.4,4.7-9.6,8.6-15.3,11.5c-12.4,6.4-17.6,3-28.1,8.1c-13.4,6.5-12,15.3-25,23
			c-6.2,3.7-15.4,7-28.9,6.2c5.9-1,11.6-3.1,16.8-6.1c2.6-1.5,5.1-3.3,7.4-5.3c-36.9,12-54.6,10.8-63.9,7.2
			c-6.5-2.7-13.6-4.2-20.6-4.4c-6.1,0-12.1,0.9-17.9,2.7c-10.9,3.1-17.1,7.3-22.4,10.1c-7.9,4.1-20.2,8.5-39,7.9
			c5.7-4.4,12.2-7.7,19-10c7.5-2.5,12.7-2.6,20.5-6.6c3.7-1.9,7.2-4.3,10.3-7C123.9,432.7,106,434.7,88.4,432.5L88.4,432.5z"/>
		<path class="st4" d="M137.7,411.4c8,1.3,16.3,1.2,24.3-0.4c5.9-1.2,8.7-2.6,16.1-4.4c7.1-1.8,14.4-2.9,21.7-3.4
			c-5.4,0.7-10.8,0.6-16.2-0.2c-6.4-1-9-2.7-13.4-1.3c-3.9,1.2-5.3,3.6-8.5,3.1s-3.9-3.1-6.5-2.9s-3.6,3-6.8,5.6
			C146.3,409.2,143.1,411,137.7,411.4z"/>
		<path class="st4" d="M192.4,412.3c1.7-0.3,3.4-0.9,4.9-1.8c2.9-1.7,3-3,5-4c3.1-1.5,4.9,1,9.9,1s4.9-2.5,10.5-3.3
			c3.8-0.5,5,0.4,11.5,1c4,0.4,8.1,0.5,12.2,0.4C228.9,410.9,210.6,413.2,192.4,412.3L192.4,412.3z"/>
		<path class="st11" d="M152.6,393.7c-6.5-1.4-13.3-1.5-19.8-0.2c-14.9,3.1-21,12.3-31,17.3c-9,4.5-24,7.1-49.9-4
			c12.2-6.6,22.3-8,29.4-8c10.6,0,15.4,3.2,25.7,0.9c2-0.4,3.9-1,5.7-1.8c4.6-1.9,9-4.1,13.2-6.7
			C130.1,388.7,137.7,387.5,152.6,393.7z"/>
		
			<linearGradient id="SVGID_3_" gradientUnits="userSpaceOnUse" x1="180" y1="135.43" x2="180" y2="317.58" gradientTransform="matrix(1 0 0 -1 0 736)">
			<stop  offset="0" style="stop-color:#FFFFFF"/>
			<stop  offset="1" style="stop-color:#FFFFFF;stop-opacity:0"/>
		</linearGradient>
		<rect y="343.7" class="st12" width="360" height="197.3"/>
		<path class="st13" d="M541.2,425.9v388.8H94.2c0.3-1.2,0.5-20.7,0.8-47.1L-71.3,767v-0.8h-126.5V421.4l7-17.9l6.1,21l4-14.2h-4
			l5.2-11.4l-3-3.3l4.9-14.4l5.2,25.5h-3l6.1,18.9l5.5-17.3h-5.5l8.5-12.7l8.2,22.4l-4.9-1.5l5.8,14.9l-4.3-2.5l2.7,26.5l4.3-7.6
			l3.6,10.9l3.4-19l-5.2,2.5l2.4-28.7l11.6,16.7l-6.1,0.3l7.6,9.2h-5.5l4.9,12.4l9.7-9.9l3,7.5l4.3-11.3l-6.1-0.3l8.5-14l-8.5-1.5
			l10-16.4l7.9,24.3l-3-1.6l4,13.3l-4-2.5l2.7,20.6l2.1-6.6l3.3,11l3.7-15l-3.7,2.7l5.5-14.3l-4,1.6l5.5-15.6l6.1,18l-4.3-2.5
			l1.2,19l4-12.7l3,12.7l5.6-16.5h-4.4l5.5-15.9l3.3,8.8l5.9-17.2l2.7,19.6l4.7-8.1l2.7,9.2l9.5-21.3l-3.6,0.8l3.6-14.9l-5,4.1
			l6.5-22.6l9.5,27.8c-0.3-0.2-4.2-3.3-4.7-3.5s3.1,10.2,3.1,10.2l-3.8-1l6.8,24.7l4.1-8.1l-4.3,0.3l4.3-19.3l5.9,27.1l7-15.9
			l-3.6,1.1l3.6-15.3l5.2,25.3l7.4-9.2l-4.3,0.2l3.4-11.5l-4.9,1.8l7.9-15l-6.1-0.5l8.1-27.2l8.1,33.9l-5.4-2.9l7.6,15.3l-6-4.1
			l3.1,24l9.4-13.9l5.6,21l2.5-15.1h-4l4-23.4l7.9,19.9l-5-1.8l5,24.2l4.3-21.5l5,23.6l5-12.6l-4.2,2.2l4.2-14.6l-4.5,2.5l5.8-18
			l-4.5,3l6.5-29.9l6.7,33.4l-3.4-2.2l3.4,21.5l-4.2-1.4l4.2,25.2l6.7-14.2h-5.6l6.8-19.1l3.1,35.3l7.2-13.5l-4.9,1.1l3.8-11.7
			l-3.2,1.3l4.3-13.8l-5.6,2.5l5.6-16.5l5.9,21l-3.3-1.8l3.3,13.9l-3.3-2.2l1.6,19.7l3.8-14.6l0.7,13.6l3.8-5.3l5.2,31.7l4-16.2
			h-2.4l4.3-8.6l-6.1,1.4l7.9-19.9l3.6,17.7l-2.7-2.4l2.7,21l4.9-10.2l1.8,11.3l5.6-11.7l17.7,27.5l1.1-12.7l2.9,3.2l5.2-9.4
			l11.2,21.5l5.9-7l4.1,8.9l4.1-11l5.6,18.8l6.5-12.4v10.1l3.9-27.8l5,26.8l-2.8-2l2.8,18.4l4.9-18.2l2.6,10.7l4.3-17.7l6,15.9
			l1.3-10.4l5,2.2l5-14.9l-3.7,2.8l6.7-34.5l4.5,18.3l-3.5-1l5,13.7L225,493l6,12.7l3.6-10.4l-2.7,1.4l3.8-13.2l5.7,16.8l2.1-18.1
			l-4.1,1.9l3.3-7.5l-5.5,1.2l8-25.9l-3.7,1.5l5.9-25.8l3.2,22.9l-3.6-2.4l5,16.1l-3.6-2l4.7,22.1l-3.8-2.5l7.1,16l2.8-35.2l2.8,8.5
			l0.7-18.3l4,10.3l2.8-14l-5,3c1.1-2.5,2.2-4.9,3.3-7.4l-3.6,0.2l5.2-29.4l5.1,18l-5-1.9l6.9,14.2l-3.9-1.3l2.7,14.8l7.3-10.3
			l-4.8,1.4l4.8-21.3l7.4,27.7l7.4-19.6l2.3,16.2l8.1-14.8l9.7,23.9l6.5-24.1l-7.3,2.4l8.1-25.4l-5.4,3.1l10.2-29.8l8.5,35.7l-6-1.4
			l5.2,16.4l-4.6-1.8l5.4,23.6l9.7-24.5v19.1L366,410l-2.3,48.8l8.4-9.4l8.2,18.5h-5.8c1.9,5.3,3.9,10.6,5.8,15.9l9.1-10.9h-5.9
			l9.6-15.1h-4.6l4.5-21.8l10.5,13.5l-5,3l9.1,10.9l-6.8,0.5l6.8,20.1l8.2-26l3.6,26l5.9-9.6l2.7,9.6l9.1-21.4l-5,0.9l5-17.3
			l-4.6,1.4l4.6-28.3l9.6,16.4l-5,0.9l8.7,19.1l5.5-16l-4.6-0.5l12.8-27.5l6.4,16.5l-6.8,2l6.8,13l8.6-26h-5.5l9.1-28.2l9.6,11.4
			l-6.4,2.2l6.4,14.6h-3.2l5.9,15.1l5-20.6l15.5,12.5l13.8-56.2L541.2,425.9z"/>
		<path class="st3" d="M485.6,751.5c-8.3-8.3-16.1-17.1-23.4-26.3c-9.2-11.7-10.6-15.6-11.2-18.9c-0.3-2.9-1.1-5.7-2.5-8.3
			c-2.7-4.7-5.8-5.2-9.4-8.6c-7.3-6.8-4.1-12.9-10-18.6c-1.1-1-4.3-3.8-17.3-4.9c-10.9-0.9-21.9-0.2-32.7,2.1l15-6.1
			c3.3-1.3,6.3-3.1,9.1-5.3c2.9-2.3,10-8,11.1-16.2c-0.3,2.3-0.7,6.8-0.3,4.1c0.6-3.7,2.1-7.2,4.4-10.2c-3.6-6.2-7.1-9.3-10.2-10.9
			c0.2-0.6,0.3-1.3,0.5-2c0.3-1.3,0.7-2.6,1-3.9c0.7-3.5,1.7-7,3-10.3c0.6-1.7,1.2-3.4,2-5l0.5-1.2c0.3-0.6,0.6-1.3,0.9-1.9
			c0.8-1.7,1.8-3.5,3-5.6c0.9-1.5,1.9-3.2,3.1-4.8c-2.5,2.6-4.8,5.3-6.9,8.3c-1.1,1.5-2.2,3.2-3.3,4.9c-0.1,0.2-0.3,0.4-0.3,0.6
			l-0.7,1.2l-0.7,1.1c-0.3,0.6-0.7,1.2-1,1.8s-0.6,1.1-0.8,1.7c-1.6,3.3-3,6.7-4.2,10.2c0,0.1,0,0.1-0.1,0.2
			c-0.4,1.1-0.8,2.3-1.3,3.7h-1c0.4-3.4,1-7,1.8-10.8c0.3-1.7,0.8-3.5,1.2-5.3c0.5-2,1.1-4,1.7-6.1c1.2-4.1,2.5-7.8,3.9-11.4
			c2.2-5.6,4.7-11,7.7-16.2c-4.4,5-8.3,10.4-11.7,16.2c-1.9,3.3-3.6,6.7-5.2,10.2c-1.1,2.4-2.1,4.9-2.9,7.4
			c-0.6,1.8-1.1,3.5-1.6,5.2c0-1.7,0-3.4-0.1-5.2c-0.2-5.8-0.7-11.6-1.4-17.3v-0.3c-1.6-11.7-4.3-23.1-8.2-34.3
			c2.3,11,4.1,22,5.2,33.2l0.1,1.1c0.6,6,0.9,11.8,1.1,17.5c0,1.8,0.1,3.5,0.1,5.3c0.1,4.4,0.1,8.6-0.1,12.8
			c-0.4,0.1-0.7,0.1-1.1,0.2v-2.8c-0.1-2.6-0.3-5.1-0.8-7.7c-0.6-4.1-1.6-8.1-2.8-12c-0.2-0.5-0.3-0.9-0.4-1.3s-0.3-0.8-0.3-1.1
			s-0.3-0.8-0.5-1.3l-0.4-1.2v-0.1c-0.2-0.3-0.3-0.7-0.4-1c-0.3-0.9-0.8-1.9-1.3-2.9c-0.7-1.5-1.4-3-2.2-4.3
			c-5.2-9.6-12.2-18.1-20.7-25c7.1,7.2,12.7,15.7,16.6,25c0.1,0.3,0.2,0.4,0.3,0.7c0.1,0.4,0.3,0.7,0.4,1.1l0.1,0.4
			c1.8,4.6,3.1,9.4,3.9,14.3c0,0.3,0.1,0.4,0.1,0.7c0.9,5.8,1.1,11.8,0.6,17.7c-3.1-0.9-6-2.3-8.7-4.2c-4.8-9.6-10.9-12.9-16.8-13.5
			c-8.5-0.9-23.4,3.3-33.8,0c-0.8-0.3-1.6-0.5-2.3-0.8h1.1c0.8-4.6,2-9.2,3.7-13.6c0.6-1.7,1.2-3.2,1.9-4.8c0.8-1.8,1.6-3.5,2.4-5
			c1.4-2.7,3-5.3,4.7-7.8c-2.4,2.5-4.6,5.1-6.6,7.8c-1.1,1.5-2.3,3.2-3.4,5c-0.7,1.2-1.4,2.4-2.1,3.8c-2.2,4.2-4.1,8.6-5.4,13.2
			c-0.7-0.3-1.2-0.5-1.2-0.5l-0.2-0.1c0.4-2.4,0.8-5,1.3-7.5c0.3-1.7,0.7-3.3,1.1-5c0.5-1.9,1-3.8,1.6-5.8
			c2.7-9.1,6.4-17.9,11.1-26.3c-6.6,7.5-12,15.9-16,25c-1,2.4-2,4.7-2.8,7c-0.6,1.7-1.1,3.3-1.5,4.9c0-1.6,0-3.3-0.1-4.9
			c-0.2-5.5-0.6-11-1.4-16.5c-1.5-11.2-4.1-22.2-7.8-32.8c2.3,10.4,3.9,21,4.9,31.6c0.3,3.2,0.6,6.4,0.8,9.5c-0.5-1.5-1-2.9-1.6-4.4
			c-0.5-1.2-1-2.5-1.6-3.8c-5-10.8-12.5-20.4-21.8-27.9c8.7,8.8,15.1,19.7,18.5,31.7c0.1,0.4,0.2,0.8,0.3,1.2
			c0.3,1.3,0.6,2.6,0.9,3.9c0.9,4,1.4,8.2,1.5,12.3c-4.4-4.1-6.6-8.1-17.2-13.4c-12.8-6.3-20.4-4.6-27.1-10.4
			c-5.3-4.7-2.7-7.4-6.8-14.7c-3.9-6.9-10.3-11.4-15.8-15.3c-14.8-10.5-33.9-16.6-46.8-19.9c-0.1-4.7-0.2-9.4-0.3-14
			c0.5,0.1,1,0.2,1.6,0.2c1.3,0.1,2.5-0.1,3.8-0.3l-5.5-6.5v-0.1l4.2,3.8c1.8,1.5,3.8,2.6,6,3.3c3.2,1.1,6.5,1.7,9.8,1.7
			c-7.1-3.3-13.3-8.3-17.9-14.7l-0.2-0.3l2-4c4.4-5.7,8.4-11.7,12-17.9c-0.2,2.4-0.6,4.9-1.1,7.3c3.1-5.7,5.3-11.9,6.7-18.2l0.8,1.6
			c0,0.2-0.1,0.3-0.1,0.3c-0.1,0.3-0.1,0.6-0.1,0.9c0,1.8,1.3,3.4,3.1,3.8c2.1,0.3,4-1.1,4.4-3.2c0-0.1,0-0.1,0-0.2
			c0.4,1.7,1.8,3,3.6,3.3c0.9,0.1,1.8-0.1,2.4-0.8c0.8-1,0.3-2.3,0.8-2.7c0.8-0.4,2.3,1.8,3.2,1.4c0.4-0.2,0.8-1,0.4-4.2
			c1.3,1.3,2.8,1.9,3.6,1.5c1-0.6,1.4-3-0.1-5.7c3.8-0.7,6.4-2.2,6.4-3.7c0-0.9-0.9-1.8-1.8-2.6c-1.1-1-2.5-1.7-3.9-2.1
			c4.1-0.9,7.8-3.1,10.7-6.2c0.5-0.6,4.6-5,3.3-7.2c-0.9-1.7-4.1-0.5-4.9-2.1c-1.1-1.8,2.9-4.4,3.2-8.5c0.2-2.8-1.4-5.3-3.1-7.2
			c-5.6,13-11.8,17.3-16.9,18.4c-7.1,1.8-15.1-1.8-20.5,3.3c-0.5,0.5-0.9,1-1.4,1.5c-0.6,0.1-1.2,0.2-1.8,0.4
			c-0.7-0.7-1.4-1.4-2.1-2c-1.2-1.1-2.5-2-3.8-2.8c1.3-1.6,2.3-3.4,3.1-5.3c0.7-1.9,1.2-3.8,1.3-5.8c1.1,0,2.2-0.4,3.1-1.1
			c-1.2-0.2-2.3-0.9-3.1-1.9c-0.1-1.2-0.3-2.3-0.5-3.4c0.4,0.5,1,0.8,1.7,0.8c1.1,0.1,2.1-0.5,2.7-1.4c-1.2-0.4-2.4-1-3.3-1.8
			c-1.6-1.4-1.7-2.8-2.8-4.9c-1.2-2.1-2.8-3.9-4.8-5.3c-2.2-1.5-4.7-2.3-7.3-2.4c1.9-1.7,2.7-4.5,1.8-6.9c-0.7-1.7-2.1-3.1-3.8-3.8
			c0.8,1.3,1.1,2.9,0.9,4.4c-0.2,2.2-1.4,4.3-3.3,5.6c1.1-3.6-0.9-7.5-4.5-8.6c0,0-0.1,0-0.1,0c0.7,0.4,1.1,1.2,1.2,2
			c-0.1,1.3-1.9,1.7-2.5,3.4c-0.2,0.9-0.2,1.9,0.2,2.8c-1.9-2.2-5.2-2.5-7.5-0.6c-0.2,0.2-0.4,0.4-0.6,0.6c1.4-0.8,3.1-0.7,4.5,0.2
			c0.8,0.6,1.3,1.4,1.6,2.3c-2.2,0.6-4.2,1.8-5.8,3.4c-3.6,3.7-4,8.8-4.2,10c-0.3,2.8,0.2,4.3-0.8,7.4c-0.3,1.2-0.8,2.4-1.4,3.5
			l4.2-3.7c0.1,1.9,0.5,3.9,1.3,5.7c0.9,2.1,2.3,4,4.1,5.5c-1.4,0.9-2.7,1.9-4,2.9c-0.6,0.5-1.2,0.9-1.7,1.4c-0.7-0.2-1.3-0.3-2-0.3
			c-0.4-0.6-0.9-1.1-1.4-1.6c-5.4-5.1-13.4-1.5-20.5-3.3c-5.1-1.2-11.3-5.4-16.9-18.4c-1.4,2.2-2.5,4.6-3.1,7.2
			c-0.6,2.3-0.9,3.6-0.7,5.1c1,5.8,10.1,8.9,9.8,9.7c-0.3,0.5-4.9-2.1-6.8-0.3c-1.1,1-0.8,3.1-0.7,3.3c0.5,2.4,3.2,4.4,7,5.4
			c-1.1,0.1-2.1,0.6-2.7,1.5c-1.3,1.8,0.2,4.3,0.3,4.5c1.2,2.2,3.8,3.3,6.8,3.1c-1.8,1.2-2.3,3.2-1.5,4.2c0.6,0.8,1.6,1.1,2.6,0.8
			c1.1-0.3,1.6-1.5,1.9-1.4s-0.3,1.1,0,2.3s1.5,2.7,2.4,2.6s1.3-1.8,1.7-1.7s0,1.7,0.8,2.7c0.6,0.6,1.5,0.9,2.4,0.8
			c1.7-0.3,3.2-1.6,3.6-3.3c0.2,2.1,2,3.6,4.1,3.4c1.3-0.1,2.5-0.9,3-2.1c1.7,5.5,4.4,10.6,8.1,15c-0.3-1.3-0.7-2.6-1-4
			c2.5,3.2,4.7,6.5,6.6,10.1c1.7,3.2,3,5.9,3.9,8L175,496c-4.5,5.9-10,10.9-16.3,14.8c3.3-0.5,6.6-1.4,9.7-2.7
			c2.7-1.1,5.2-2.4,7.6-4l-4.5,5.4c2.5,0.8,5.1,1.2,7.7,1.2c0.4,0,0.8-0.1,1.1-0.1v11.4c-4.5,2.6-9.2,4.8-14,6.8
			c-18.3,7.5-29.1,7.3-44.6,13.8c-10.4,4.4-6.4,5-23.3,14.8c-22.4,13.2-28.2,11.1-39,19.6C44.6,588.7,48,598.2,35.8,600
			c-5.8,0.8-9.8-0.9-14.8-2c0.9-5.5,2.2-10.9,4.2-16.2c2.4-6.5,5.6-12.7,9.5-18.5c-5,5.2-9.3,11.1-12.7,17.5
			c-2.8,5.2-4.9,10.8-6.4,16.5h-1.9c0.5-10.8,2.3-21.5,5.4-31.8c2.8-9.6,6.8-18.9,11.7-27.6c-6.9,7.8-12.6,16.7-16.8,26.3
			c-1.7,4.1-3.2,8.3-4.5,12.6c0-7.5-0.5-15-1.5-22.5c-1.6-11.7-4.3-23.3-8.2-34.5c2.3,11,4.1,22.1,5.2,33.2
			c1.4,14.8,1.7,29.6,0.8,44.4c0,0.3-0.1,0.6-0.1,0.8l-0.3,0.1c-0.4-10.6-3-21.1-7.4-30.7c-5.3-11.4-13.1-21.4-22.8-29.3
			c9.5,9.6,16.3,21.5,19.8,34.5c2.6,9.4,3.3,19.2,2.2,28.8c-5.3,3-9.8,7.3-13.2,12.4c-1.4,2-2.5,4.3-3.2,6.7h-0.7
			c-4.8,2.6-10.7,6.8-13.6,13.8c-2.5,5.9-1.4,10.4-1.8,16.3c-0.4,6.8-2.7,3.2-11.3,14.6L-12,673l-39.4,0.3
			c-12.8,3.3-16.9,8-18.3,11.9c-1,2.9-0.8,5.5-2.8,9.4c-2.1,4.2-6,6.5-8.9,7.8l50.6,11.4l-56.2-3.5c-4.9-0.4-10.9,0-15.6,3.8
			c-6.7,5.3-5.2,13.3-11.3,23.3c-3.6,5.9-8.6,10.7-14.5,14.3l-35.9,207v422.8h688.5V958.5L485.6,751.5z M184.3,519.6
			c-0.8,0.5-1.6,1-2.3,1.4l0.4-10.7c1-0.2,2-0.5,2.9-0.8v-5.4l2.4,4.9l0.5-2.8l0.7,0.3l0.9,14.3
			C187.8,520.4,185.9,519.9,184.3,519.6z"/>
		<g id="_Group_">
			<polygon class="st14" points="34.2,16.5 36.6,19.4 33.7,17.1 33.3,23.6 32.8,17.1 29.9,19.4 32.3,16.5 25.7,16.1 32.3,15.7 
				29.9,12.8 32.8,15.2 33.3,8.6 33.7,15.2 36.6,12.8 34.2,15.7 40.8,16.1 			"/>
		</g>
		<g id="_Group_2">
			<path class="st14" d="M33.3,25.7h-0.2L27,39.9h2.6l3.4-8.3l3.3,8.3h3.1L33.3,25.7z"/>
		</g>
		<g id="_Group_3">
			<path class="st3" d="M33.3,51.8c-9.9,0-17.9-8-17.9-17.9c0-6.3,3.3-12.2,8.7-15.4c0.5-0.2,1,0.1,1.2,0.5c0.1,0.3,0,0.7-0.2,1
				c-7.6,4.5-10.1,14.4-5.6,22.1s14.4,10.1,22.1,5.6s10.1-14.4,5.6-22.1c-1.4-2.3-3.3-4.2-5.6-5.6c-0.4-0.2-0.6-0.8-0.4-1.2
				c0.2-0.4,0.8-0.6,1.2-0.4c0,0,0.1,0,0.1,0.1c8.5,5.1,11.3,16.1,6.2,24.6C45.4,48.4,39.5,51.7,33.3,51.8L33.3,51.8z"/>
		</g>
		<polygon class="st14" points="216.3,118.7 220.5,123.9 215.4,119.6 214.6,131.3 213.9,119.6 208.8,123.9 213,118.7 201.3,118 
			213,117.3 208.8,112.1 213.9,116.3 214.6,104.7 215.4,116.3 220.5,112.1 216.3,117.3 228,118 		"/>
		<path class="st14" d="M214.8,145.1h-0.3l-13.2,30.4h5.7l7.3-17.6l7,17.6h6.7L214.8,145.1z"/>
		<path class="st3" d="M247.5,146.3v5.6h-7.1v23.6h-5.8v-23.6h-6.8v-5.6H247.5z"/>
		<path class="st3" d="M258.8,146.3v29.2h-5.8v-29.2H258.8z"/>
		<path class="st3" d="M266.6,153.5c1.3-2.3,3.2-4.2,5.4-5.5c4.6-2.7,10.3-2.7,14.9,0c2.3,1.3,4.1,3.2,5.5,5.5
			c2.7,4.6,2.7,10.3,0,14.9c-1.3,2.2-3.2,4.1-5.5,5.4c-4.6,2.7-10.3,2.7-14.9,0c-2.2-1.3-4.1-3.2-5.4-5.4
			C263.9,163.8,263.9,158.1,266.6,153.5L266.6,153.5z M271.8,165.6c0.8,1.4,1.9,2.6,3.3,3.4c1.4,0.8,3,1.3,4.6,1.3
			c1.6,0,3.1-0.4,4.5-1.3c1.3-0.8,2.4-2,3.2-3.4c1.6-3,1.6-6.5,0-9.5c-0.8-1.4-1.9-2.6-3.2-3.4c-2.8-1.7-6.3-1.7-9.1,0
			c-1.4,0.8-2.5,2-3.2,3.4c-0.8,1.5-1.2,3.1-1.2,4.8C270.5,162.6,270.9,164.2,271.8,165.6z"/>
		<path class="st3" d="M326.5,146.3v30.4h-0.2l-20.4-18.4l0.1,17.3h-5.8v-30.4h0.2l20.4,18.7l-0.1-17.6L326.5,146.3z"/>
		<path class="st3" d="M70.2,146.3v23.6h13.7v5.6H64.4v-29.2H70.2z"/>
		<path class="st3" d="M95.8,167.4c0.6,0.9,1.3,1.6,2.2,2.1c0.9,0.5,1.9,0.8,3,0.8c1.1,0,2.2-0.3,3.1-0.8c0.9-0.5,1.7-1.2,2.2-2.1
			c0.5-0.8,0.8-1.7,0.8-2.7v-18.4h5.7v18.5c0,2-0.5,4-1.6,5.6c-1.1,1.7-2.5,3-4.3,3.9c-3.8,1.9-8.2,1.9-11.9,0
			c-1.8-0.9-3.2-2.3-4.3-3.9c-1.1-1.7-1.6-3.7-1.6-5.6v-18.5H95v18.4C95,165.6,95.3,166.6,95.8,167.4z"/>
		<path class="st3" d="M149.9,145.1v30.4h-5.8v-13.9l-9.5,13.5h-0.1l-9.2-12.7v13.1h-5.6v-30.4l0,0l14.8,21l15.2-21H149.9z"/>
		<path class="st3" d="M163.2,146.3v29.2h-5.8v-29.2H163.2z"/>
		<path class="st3" d="M197.1,146.3v30.4h-0.2l-20.4-18.4l0.1,17.3h-5.8v-30.4h0.2l20.4,18.7l-0.1-17.6L197.1,146.3z"/>
		<path class="st3" d="M47,145.1h-0.3l-13.2,30.3h5.7l7.3-17.6l7,17.6h6.7L47,145.1z"/>
		<path class="st3" d="M214.6,204.2c-7.6,0-15-1.9-21.6-5.7c-0.7-0.4-1-1.4-0.6-2.1c0.4-0.7,1.4-1,2.1-0.6l0,0
			c12.6,7.2,28.1,7,40.7-0.3c1.5-0.9,3-1.9,4.3-2.9c4.1-3.2,7.6-7.1,10.2-11.6c0.4-0.7,1.4-1,2.1-0.5s1,1.4,0.5,2.1l0,0
			c-2.8,4.8-6.6,9-11,12.4c-1.5,1.2-3,2.2-4.7,3.1C230.1,202.1,222.4,204.2,214.6,204.2z"/>
		<path class="st3" d="M251.1,140.4c-0.5,0-1.1-0.3-1.3-0.8c-4.2-7.2-10.6-12.9-18.2-16.4c-0.8-0.4-1.1-1.3-0.8-2s1.3-1.1,2-0.8
			c8.2,3.7,15,9.9,19.6,17.6c0.4,0.7,0.2,1.7-0.6,2.1C251.6,140.3,251.4,140.3,251.1,140.4L251.1,140.4z"/>
		<path class="st3" d="M178.2,140.4c-0.9,0-1.5-0.7-1.5-1.5c0-0.3,0.1-0.6,0.2-0.8c4.6-7.8,11.4-13.9,19.6-17.7c0.8-0.4,1.7,0,2,0.8
			s0,1.7-0.8,2l0,0c-7.6,3.5-14,9.2-18.2,16.4C179.2,140.1,178.7,140.4,178.2,140.4z"/>
		<path class="st15" d="M39.5,184.3l-2.4,4.3v2.2h-0.9v-2.2l-2.4-4.3h1.1l1.8,3.3l1.8-3.3H39.5z"/>
		<path class="st15" d="M40.2,185.9c0.3-0.5,0.7-0.9,1.2-1.2c1-0.6,2.3-0.6,3.3,0c0.5,0.3,0.9,0.7,1.2,1.2c0.6,1,0.6,2.3,0,3.3
			c-0.3,0.5-0.7,0.9-1.2,1.2c-1.6,0.9-3.6,0.4-4.5-1.1c-0.3-0.5-0.5-1.1-0.5-1.7C39.7,187,39.9,186.4,40.2,185.9z M41,188.8
			c0.2,0.4,0.5,0.7,0.9,0.9c0.8,0.4,1.7,0.4,2.5,0c0.4-0.2,0.7-0.5,0.9-0.9c0.4-0.8,0.4-1.7,0-2.5c-0.2-0.4-0.5-0.7-0.9-0.9
			c-0.4-0.2-0.8-0.3-1.2-0.3c-0.4,0-0.9,0.1-1.2,0.3c-0.4,0.2-0.7,0.5-0.9,0.9c-0.2,0.4-0.3,0.8-0.3,1.3
			C40.7,188,40.8,188.5,41,188.8L41,188.8z"/>
		<path class="st15" d="M48.8,189.3c0.1,0.2,0.3,0.4,0.6,0.6c0.2,0.1,0.5,0.2,0.8,0.2c0.3,0,0.6-0.1,0.8-0.2
			c0.2-0.1,0.4-0.3,0.6-0.6c0.1-0.2,0.2-0.5,0.2-0.8v-4.2h0.8v4.2c0,0.4-0.1,0.9-0.3,1.2c-0.2,0.4-0.5,0.6-0.9,0.8
			c-0.8,0.4-1.7,0.4-2.5,0c-0.4-0.2-0.7-0.5-0.9-0.8c-0.2-0.4-0.3-0.8-0.3-1.2v-4.2h0.9v4.2C48.6,188.8,48.7,189.1,48.8,189.3z"/>
		<path class="st15" d="M58,190.8l-1.5-2.4h-1.2v2.4h-0.9v-6.5h1.7c0.4,0,0.8,0.1,1.2,0.2c0.3,0.1,0.6,0.4,0.8,0.7
			c0.2,0.3,0.3,0.7,0.3,1.1c0,0.4-0.1,0.8-0.3,1.1c-0.2,0.3-0.5,0.6-0.8,0.8l1.6,2.6H58z M57.3,187.2c0.2-0.2,0.3-0.5,0.3-0.9
			c0-0.2,0-0.4-0.1-0.6c-0.1-0.2-0.2-0.3-0.4-0.5c-0.2-0.1-0.5-0.2-0.7-0.2h-1v2.4h0.9C56.6,187.6,57,187.5,57.3,187.2L57.3,187.2z"
			/>
		<path class="st15" d="M68.9,184.3v6.7l0,0l-4.8-4.9v4.6h-0.9v-6.7l0,0L68,189v-4.7L68.9,184.3z"/>
		<path class="st15" d="M70.8,185.9c0.3-0.5,0.7-0.9,1.2-1.2c1-0.6,2.3-0.6,3.3,0c0.5,0.3,0.9,0.7,1.2,1.2c0.6,1,0.6,2.3,0,3.3
			c-0.3,0.5-0.7,0.9-1.2,1.2c-1.6,0.9-3.6,0.4-4.5-1.1c-0.3-0.5-0.5-1.1-0.5-1.7C70.3,187,70.5,186.4,70.8,185.9z M71.6,188.8
			c0.2,0.4,0.5,0.7,0.9,0.9c0.8,0.4,1.7,0.4,2.4,0c0.4-0.2,0.7-0.5,0.9-0.9c0.4-0.8,0.4-1.7,0-2.5c-0.2-0.4-0.5-0.7-0.9-0.9
			c-0.4-0.2-0.8-0.3-1.2-0.3c-0.4,0-0.9,0.1-1.2,0.3c-0.4,0.2-0.7,0.5-0.9,0.9c-0.2,0.4-0.3,0.8-0.3,1.3
			C71.2,188,71.4,188.5,71.6,188.8L71.6,188.8z"/>
		<path class="st15" d="M82,190.8l-1.5-2.4h-1.1v2.4h-0.9v-6.5h1.7c0.4,0,0.8,0.1,1.2,0.2c0.3,0.1,0.6,0.4,0.8,0.7
			c0.2,0.3,0.3,0.7,0.3,1.1c0,0.4-0.1,0.8-0.3,1.1c-0.2,0.3-0.5,0.6-0.8,0.8l1.6,2.6H82z M81.3,187.2c0.2-0.2,0.3-0.5,0.3-0.9
			c0-0.2,0-0.4-0.1-0.6c-0.1-0.2-0.2-0.3-0.4-0.5c-0.2-0.1-0.5-0.2-0.7-0.2h-1v2.4h0.9C80.6,187.6,81,187.5,81.3,187.2L81.3,187.2z"
			/>
		<path class="st15" d="M88.1,184.3v0.8h-1.8v5.7h-0.9v-5.7h-1.7v-0.8H88.1z"/>
		<path class="st15" d="M94.7,190.8h-0.9V188h-3.4v2.9h-0.9v-6.5h0.9v2.8h3.4v-2.8h0.9L94.7,190.8z"/>
		<path class="st15" d="M100.8,184.3v0.8h-3.3v2h3v0.8h-3v2h3.5v0.9h-4.4v-6.5L100.8,184.3z"/>
		<path class="st15" d="M106,190.8l-1.5-2.4h-1.2v2.4h-0.9v-6.5h1.7c0.4,0,0.8,0.1,1.2,0.2c0.3,0.1,0.6,0.4,0.8,0.7
			c0.2,0.3,0.3,0.7,0.3,1.1c0,0.4-0.1,0.8-0.3,1.1c-0.2,0.3-0.5,0.6-0.8,0.8l1.6,2.6L106,190.8z M105.3,187.2
			c0.2-0.2,0.3-0.5,0.3-0.9c0-0.2,0-0.4-0.1-0.6c-0.1-0.2-0.2-0.3-0.4-0.5c-0.2-0.1-0.5-0.2-0.7-0.2h-1v2.4h0.9
			C104.6,187.6,105,187.5,105.3,187.2z"/>
		<path class="st15" d="M114,184.3v6.7l0,0l-4.8-4.9v4.6h-0.9v-6.7l0,0l4.8,4.9v-4.7H114z"/>
		<path class="st15" d="M121.3,185.2c-0.2-0.1-0.5-0.1-0.8-0.1c-0.3,0-0.6,0.1-0.8,0.2c-0.4,0.3-0.4,0.8-0.1,1.1
			c0.1,0.1,0.1,0.1,0.2,0.2c0.3,0.2,0.6,0.4,1,0.5c0.3,0.1,0.6,0.2,0.8,0.4c0.2,0.1,0.4,0.3,0.6,0.6c0.2,0.3,0.3,0.7,0.2,1
			c0,0.3-0.1,0.7-0.3,0.9c-0.2,0.3-0.4,0.5-0.7,0.7c-0.4,0.2-0.7,0.3-1.1,0.2c-0.4,0-0.8-0.1-1.2-0.2c-0.4-0.1-0.7-0.3-1-0.5
			l0.4-0.7c0.2,0.2,0.5,0.3,0.8,0.4c0.3,0.1,0.6,0.2,0.9,0.2c0.3,0,0.6-0.1,0.9-0.3c0.3-0.2,0.4-0.5,0.4-0.8c0-0.3-0.1-0.5-0.3-0.7
			c-0.3-0.2-0.6-0.4-0.9-0.5c-0.3-0.1-0.6-0.2-0.9-0.4c-0.2-0.1-0.5-0.3-0.6-0.5c-0.2-0.3-0.3-0.6-0.3-0.9c0-0.5,0.2-0.9,0.5-1.2
			c0.4-0.3,0.9-0.5,1.4-0.5c0.7,0,1.4,0.2,2,0.5l-0.3,0.7C121.8,185.4,121.6,185.3,121.3,185.2z"/>
		<path class="st15" d="M127.8,184.3v0.8H126v5.7h-0.9v-5.7h-1.7v-0.8H127.8z"/>
		<path class="st15" d="M132.1,189.1h-2.5l-0.7,1.7H128l2.8-6.8h0.1l2.8,6.8h-1L132.1,189.1z M131.8,188.4l-0.9-2.4l-1,2.4H131.8z"
			/>
		<path class="st15" d="M138.5,190.8l-1.5-2.4h-1.2v2.4H135v-6.5h1.7c0.4,0,0.8,0.1,1.2,0.2c0.3,0.1,0.6,0.4,0.8,0.7
			c0.2,0.3,0.3,0.7,0.3,1.1c0,0.4-0.1,0.8-0.3,1.1c-0.2,0.3-0.5,0.6-0.8,0.8l1.6,2.6L138.5,190.8z M137.8,187.2
			c0.2-0.2,0.3-0.5,0.3-0.9c0-0.2,0-0.4-0.1-0.6c-0.1-0.2-0.2-0.3-0.4-0.5c-0.2-0.1-0.5-0.2-0.7-0.2h-1v2.4h0.9
			C137.1,187.6,137.5,187.5,137.8,187.2z"/>
		<path class="st15" d="M144.6,184.3v5.7h3.3v0.9h-4.2v-6.5L144.6,184.3z"/>
		<path class="st15" d="M150.2,184.3v6.5h-0.9v-6.5H150.2z"/>
		<path class="st15" d="M156.3,184.3v0.8h-3.4v2h3v0.8h-3v2h3.5v0.9h-4.4v-6.5L156.3,184.3z"/>
		<path class="st15" d="M160.6,185.2c-0.2-0.1-0.5-0.1-0.8-0.1c-0.3,0-0.6,0.1-0.8,0.2c-0.4,0.3-0.4,0.8-0.1,1.1
			c0.1,0.1,0.1,0.1,0.2,0.2c0.3,0.2,0.6,0.4,1,0.5c0.3,0.1,0.6,0.2,0.9,0.4c0.2,0.1,0.4,0.3,0.6,0.6c0.2,0.3,0.3,0.7,0.2,1
			c0,0.3-0.1,0.7-0.3,0.9c-0.2,0.3-0.4,0.5-0.7,0.7c-0.4,0.2-0.7,0.3-1.1,0.2c-0.4,0-0.8-0.1-1.2-0.2c-0.4-0.1-0.7-0.3-1-0.5
			l0.4-0.7c0.2,0.2,0.5,0.3,0.8,0.4c0.3,0.1,0.6,0.2,0.9,0.2c0.3,0,0.6-0.1,0.9-0.3c0.3-0.2,0.4-0.5,0.4-0.8c0-0.3-0.1-0.5-0.3-0.7
			c-0.3-0.2-0.6-0.4-0.9-0.5c-0.3-0.1-0.6-0.2-0.9-0.4c-0.2-0.1-0.5-0.3-0.6-0.5c-0.2-0.3-0.3-0.6-0.3-0.9c0-0.5,0.2-0.9,0.5-1.2
			c0.4-0.3,0.9-0.5,1.4-0.5c0.7,0,1.4,0.2,2,0.5l-0.3,0.7C161,185.4,160.8,185.3,160.6,185.2z"/>
		<path class="st15" d="M171.2,190.8h-0.9V188h-3.4v2.9H166v-6.5h0.9v2.8h3.4v-2.8h0.9L171.2,190.8z"/>
		<path class="st15" d="M177.3,184.3v0.8h-3.4v2h3v0.8h-3v2h3.5v0.9H173v-6.5L177.3,184.3z"/>
		<path class="st15" d="M182.5,190.8l-1.5-2.4h-1.2v2.4h-0.9v-6.5h1.7c0.4,0,0.8,0.1,1.2,0.2c0.3,0.1,0.6,0.4,0.8,0.7
			c0.2,0.3,0.3,0.7,0.3,1.1c0,0.4-0.1,0.8-0.3,1.1c-0.2,0.3-0.5,0.6-0.8,0.8l1.6,2.6L182.5,190.8z M181.7,187.2
			c0.2-0.2,0.3-0.5,0.3-0.9c0-0.2,0-0.4-0.1-0.6c-0.1-0.2-0.2-0.3-0.4-0.5c-0.2-0.1-0.5-0.2-0.7-0.2h-1v2.4h0.9
			C181.1,187.6,181.5,187.5,181.7,187.2z"/>
		<path class="st15" d="M189.1,184.3v0.8h-3.4v2h3v0.8h-3v2h3.5v0.9h-4.4v-6.5L189.1,184.3z"/>
	</g>
</g>
</svg>
