<?xml version="1.0" encoding="utf-8"?>
<!-- Generator: Adobe Illustrator 21.1.0, SVG Export Plug-In . SVG Version: 6.00 Build 0)  -->
<svg version="1.1" id="Layer_1" xmlns="http://www.w3.org/2000/svg" xmlns:xlink="http://www.w3.org/1999/xlink" x="0px" y="0px"
	 viewBox="0 0 1920 1080" style="enable-background:new 0 0 1920 1080;" xml:space="preserve">
<style type="text/css">
	.st0{fill:url(#SVGID_1_);}
	.st1{fill:#051932;}
</style>
<title>blue treeline</title>
<linearGradient id="SVGID_1_" gradientUnits="userSpaceOnUse" x1="946" y1="-315.1644" x2="946" y2="605.3856" gradientTransform="matrix(1 0 0 -1 0 1080)">
	<stop  offset="0" style="stop-color:#FFFFFF"/>
	<stop  offset="1" style="stop-color:#FFFFFF;stop-opacity:0"/>
</linearGradient>
<rect x="-73" y="458.4" class="st0" width="2038" height="369.4"/>
<path class="st1" d="M1932,696.9c-15.2-16.7-26.3-36.7-32.4-58.4c-3.3-11.8-5-23.9-5.1-36.1c-1.1,11.6-3.6,23.1-7.5,34.1
	c-11,30.7-30.3,50.4-42,60.4c12.2-0.1,19.7-3.6,24.4-7.1c3.9-2.8,7.2-6.5,8.3-5.7c1.5,1-2.7,9.6-3.7,11.5
	c-4.3,8.6-12.4,21.4-29.1,37.3c-6.9-18.1-17.7-34.4-31.5-48c-1.8,5.3-3.9,10.5-6.2,15.6c-12.7,27.3-31.3,45.9-46.3,57.9
	c-10.1-28.4-23.1-67.3-22.7-78.8c0.1-1.8,0.3-7.4,1.3-7.5c0.8-0.1,1.3,3.1,2.1,4.4c4.6,7.6,14.3,10.5,23.8,11.4
	c-19.9-23.2-34.7-50.3-43.5-79.5c-1.4,7.2-3.3,14.2-5.7,21.1c-5,14-12.2,27.1-21.3,38.9c10.1-2,14.4-5.8,16.4-9.1
	c0.8-1.3,1.8-3.3,2.4-3.1c1.4,0.3,0.4,9.3,0.1,12c-1.9,16.1-17.4,52.9-27.9,76.7c-21.6-37.8-25.7-48.5-24.2-49.5
	c0.6-0.4,2,1,5.3,1.8c4.8,1.2,9.5-0.2,12.9-1.8c-13.3-14.7-22.2-32.9-25.5-52.5c-0.2,9.9-2,19.6-5.5,28.9
	c-6,15.7-16.2,29.5-29.5,39.8c3.8,0.8,7.7,0.6,11.4-0.6c3.5-1.3,5.6-3.3,6.6-2.5c1.7,1.2-1.7,8.5-2.1,9.4
	c-2.5,5.4-9.9,17.6-36.3,40.6c-25.6-30.7-30.8-50.7-32.1-60.6c-0.3-2.2-1.9-15.1,1.7-16.4c2-0.7,4.2,2.7,8.6,5.6
	c6.5,4.4,13.6,5.3,18.8,5.3c-24.8-28.5-39.5-64.3-42-102c-14.5,39.1-35.3,75.6-61.5,108c7.1-3.2,14-7,20.4-11.3
	c10.4-7.1,14.7-12.1,15.8-11.4c1.6,1.1-4.3,14.1-36.2,64.7c-10.9-4.2-20.3-11.5-27.1-21.1c-4.3-6.3-7.4-13.4-8.9-20.9
	c-2.1,21.4-9.3,42-21,60c-16.1-23.9-21.2-40.5-23.1-50.6c-0.3-1.6-2.4-13.1-0.6-13.7c1.1-0.3,2.7,3.3,5.3,6.8
	c3,3.8,8.1,8.5,17.8,11.9c-22-37.5-35.6-79.2-40-122.4c-9.3,28-23.9,53.9-43,76.4c5.8-0.7,11.5-2.7,16.5-5.8
	c6.3-3.9,9.4-8.5,10.5-7.8c1.5,1-2.4,10.3-7,18.8c-7,12.6-15.9,24-26.5,33.8c6.1,1.7,11.8,1.8,17-0.3c3.2-1.3,5.4-3.2,6.3-2.4
	c1.7,1.4-2.6,9.6-5.1,13.6c-4,6.5-12.2,16.6-29.8,25c-23.2-36.8-26.8-47.5-24.6-49.2c1.3-1.1,4.5,1.7,10.6,1.3
	c4.7-0.4,9.3-2.1,13-5.1c-23.2-15.4-41.3-37.3-52-63c0.7,6.5,0.5,13.1-0.5,19.5c-1.7,10.6-5.8,20.8-11.8,29.7
	c2.9,0.6,7,0.8,10.3-1.5c2.5-1.8,3.5-4.3,4.2-4.1c1.1,0.4,0.1,6.7-0.7,10.3c-1.6,7-6,18.8-19.4,35.1c4.6,0.5,9.3-0.2,13.6-2.1
	c4.3-1.9,5.6-3.9,6.7-3.5c2.1,0.8,1.3,11.6-11.2,53.6c-14.6-12-26.4-27-34.6-44.1c-2.6-5.5-4.8-11.2-6.5-17c-0.9,4.2-2.4,8.2-4.5,12
	c-4.9,8.7-12.4,15.7-21.5,20c4.1,1.1,9.1,1.6,13.8-0.7c2.1-1,3.2-2.1,3.5-1.8c0.7,0.6-2.4,6.3-17.4,27.1c-19-25.2-27.7-43-32-54.1
	c-1.4-3.6-6.1-15.5-4-16.6c1.1-0.6,3.6,2.1,6,4.1c4.6,3.9,12.1,8,25,9c-12.3-13.9-29-37.2-36.5-69.5c-1.8-7.7-2.9-15.6-3.5-23.5
	c-6.4,17.4-17,32.9-31,45c4.8,1.5,10.7,2.3,16.3,0c3.4-1.4,4.8-3.2,5.4-2.8c1.7,1-3.5,14.9-28.7,64.8c-10.4-11.3-17.3-25.3-20-40.4
	c0.9,7,0.5,14.1-1,20.9c-4,17.9-15.1,29.1-20,33.5c6.8-0.9,10.9-3.2,13.3-5.2c1.2-1,2.6-2.4,3.6-2c1.7,0.7,0.8,6.1,0.6,7.8
	c-0.6,4.1-3.3,13.5-17.5,28.9c-14.4-5.5-23.2-20.3-21-35.6c-0.1,6.7-2,13.3-5.5,19c-5,7.9-12.6,13.8-21.5,16.6
	c-13.1-27.8-16.5-43.4-17.5-51.4c-0.2-1.7-1.7-13.3,0.2-13.8c0.7-0.2,1.3,1.2,2.6,2.4c2.1,2,6,3.5,13.7,2.2
	c-5.9-6.8-21.8-26.9-21.5-55c0.1-7.7,1.4-15.4,3.8-22.7c-15.2,18.6-33.6,34.4-54.3,46.7c7.3,0.8,14.7,0,21.7-2.3
	c4.6-1.6,6.4-3.1,7.1-2.5c2,1.7-6.3,17.5-48.8,76.8c-13.9-48.8-22.1-74.9-25.3-81.2c-0.3-0.7-2-3.9-1-4.8c1.2-1.2,5.3,1.6,9.4,3.7
	c5.9,2.9,12.4,4.7,19,5.3c-21.8-21.1-28.8-34.3-31.3-40.8c-0.8-2.1-4.5-11.5-2.7-12.7c0.7-0.4,1.8,0.5,3.3,1.3
	c2.5,1.3,6.5,2.4,12.7,1.2c-17.2-21.8-29.5-47-36-74c-1.4,27.7-10,54.6-25,78c10.9-1.8,16.5-5.5,19.7-8.8c0.9-1,2.5-2.8,3.8-2.4
	c2.5,0.8,2.1,9.3,1.9,12.4c-0.9,16.2-15.7,42.8-25.3,58.8c12.6-6.1,19.7-13.2,24-19c2.4-3.3,5.1-7.6,6.7-7.1
	c2.3,0.8,0.8,10.8,0.3,13.8c-1.3,8.8-7,28-36,64.3c1.8-16.6-3.2-33.2-14-46c-0.4,18.2-7.5,35.7-20,49c-21.7-36-25.2-56.2-25.5-66.3
	c-0.1-4.4,0.1-14.3,2-14.6c1.4-0.2,2.2,4.7,6,8.1c4.6,4.2,11.4,4.3,16.5,3.8c-20.4-24.8-23.5-39.9-24-47c-0.2-3.2-0.3-11.5,1.4-11.9
	c1.2-0.2,2,3.2,4.8,5.1c3.8,2.6,9.3,1.3,14-0.5c-20.7-34.9-32.4-74.3-34.3-114.8c-5.3,32.9-20.6,63.3-44,87
	c6.1,2.4,14.3,4.4,21.3,0.8c4.5-2.4,6.6-6.1,8.1-5.5c2.5,1.1-0.6,13.7-3.3,22c-4.4,13.5-13.6,33.2-35,55.8c10.1,1.8,16.5,0,20.5-2.3
	c3.2-1.8,5.3-3.9,6.6-3.2c2.8,1.6-1.8,14.6-2.8,17.4c-3.3,9.3-13.2,30.3-49.3,72c-2.6-7.2-4.6-14.6-5.9-22.1
	c-2.2-12.5-2.6-25.3-1.1-37.9c-3.7,21.6-15.1,41.2-32.2,55c3.1,0.2,6.2-0.3,9-1.4c2.1-0.8,3.4-1.8,4.3-1.3c1.6,1,0,6.3-0.6,8.1
	c-1.6,5-4.9,12.6-12.7,22.1c-7.8-33.2-23.1-64.2-44.8-90.6c1.8,11.5,1.3,23.2-1.5,34.5c-4.3,17.1-13.5,32.6-26.5,44.5
	c-8.6-17.4-22.7-47.7-23.7-63.3c-0.2-2.6-0.6-10,2-11c1.6-0.6,3.6,1.7,5.5,3.3c3.6,3,9.9,5.8,21.2,5c-25.9-28.9-42.7-64.7-48.5-103
	c-0.4,28.5-9.7,56.1-26.6,79c4.4-0.9,8.6-2.4,12.5-4.5c5.8-3.1,8.2-6,9.8-5.2c3.2,1.6-0.5,15.1-1,17c-3.2,11.5-10,28.9-26.3,50.7
	c12.6-0.3,19.4-4.1,23.3-7.7c2.3-2.1,4.6-5,5.9-4.4c2.1,1,0,9.5-0.6,11.9c-1.8,7.4-7.3,21.8-28.7,43.7c-4.4-3.2-14.1-11.4-18.2-25.4
	c-1.2-4.3-1.9-8.7-1.8-13.2c-1.4,4.4-3.4,8.6-6,12.3c-4.8,6.8-11.4,12.3-19,15.7c-7.6-15.9-21-44.9-22-55.3
	c-0.2-1.8-0.6-6.7,0.9-7.3c1.1-0.4,2.6,1.6,3.1,2.1c6.3,5.4,14,8.3,22.3,9.5c-15.3-20.2-25.7-43.5-30.6-68.3c-2-10.4-3-21-2.9-31.7
	c-7.9,25.9-21.9,49.6-40.8,69c5,0.7,10.1,0.3,14.9-1.2c6.3-1.9,9-4.7,11-3.6c4.3,2.3-0.3,18.7-1.2,22c-3.8,13.5-10.8,33-24.8,56.8
	c-14.2-11.9-34.3-30.3-40.8-43.8c-0.5-1.1-4.2-8.8-2.3-10.3c1.1-0.8,3.2,1,6.5,1.7c4.9,1.1,9.4-0.8,12.5-2.6
	c-19.1-14.2-26.4-24.6-29.4-30.1c-0.7-1.3-4.1-7.5-2.4-9c1.2-1.1,4.1,1.2,8.3,1.8c5.3,0.8,10.4-1.6,14.5-4.6
	c-15.8-8.4-30-19.6-41.8-33c-5.7-6.6-10.8-13.6-15.3-21.1c1,6.3,1.7,13.1,2.1,20.3c0.9,15.3,0.2,30.6-2.1,45.8
	c3.9-2.4,7-5.9,8.9-10.1c1.5-3.5,1.6-6.7,2.3-6.7c1.1,0,2,7.4,2.4,11.8c0.8,9,0.6,23.5-4.6,45c4.3-0.3,9.9-1.5,12.6-5.6
	c1.8-2.7,1.9-5.8,2.6-5.8c1,0,1.6,6.7,1.7,9.6c0.3,7.2-0.8,20.4-10,43.9c-13.6-7.7-25-18.7-33.3-31.9c-3.1-5.1-5.7-10.5-7.8-16.1
	c-1.3,11.9-7.9,22.5-18,29c2.7,0.7,6.5,1.2,9.8-0.7c2.3-1.4,3.3-3.3,4.2-3c1.3,0.5,0.6,6.3-0.4,10.2c-1.3,5.2-4.5,13.4-13.5,22.5
	c-14-15.1-19.9-28.5-22.7-37.5c-0.7-2.3-4.7-15.5-1.7-17.1c1.1-0.6,2.5,0.7,5,1.7c4.3,1.6,8.9,1.9,13.4,0.8
	c-11-14.5-19.2-30.9-24-48.5c-1.9-7-3.2-14.1-4-21.2c-4.2,18.4-12.7,35.4-25,49.7c4.8-0.4,9.4-2.1,13.2-5c3.8-3,4.8-6,5.7-5.7
	c2.3,0.7-1.3,21-7.8,41.2c-4.4,13.7-10.1,26.9-17,39.5c-6.8-4.5-12.1-11-15.2-18.5c-1.8-4.4-2.7-9.1-2.8-13.8
	c-5.8,12.3-14.8,22.9-26,30.7c-5.2-6.7-8.9-14.4-11-22.7c-0.4-1.6-3.9-15.8,0.2-17.9c1.5-0.8,2.9,0.9,6.8,1.7c4,0.8,8,0.9,12,0.2
	c-9.7-13.4-16.9-28.5-21.2-44.5c-1.6-6-2.8-12-3.5-18.2c-3.8,14-11.5,26.7-22,36.7c3.3,0,6.5-0.9,9.3-2.5c2.8-1.6,4-3.3,4.6-3
	c1.3,0.7-1.5,8.9-5.1,17c-6.1,13.4-14,25.9-23.5,37.2c-7.8-15.8-13.5-32.6-17-49.8c-0.2-1-4.1-21.4,0-22.9c1.8-0.7,3.7,3.3,9.4,5.4
	c4.2,1.5,8.6,2,13,1.3c-6.1-9.3-22.5-35.4-23-49.7c-0.1-1.5-0.3-8,2.6-9.2c1.6-0.7,3.2,1,7.4,1.9c2.5,0.5,5.1,0.9,7.7,1
	c-18.9-27-31.2-58.1-36-90.7c-1.7,10.1-4.5,19.9-8.4,29.3c-6.1,14.8-14.8,28.3-25.7,40c5.3-0.9,10.4-2.4,15.3-4.5
	c9.3-3.9,13-7.9,14-7.1c1.9,1.4-5.7,17.1-41.4,72.2c7.8,0.3,17.8-0.7,27.3-6.2c6.2-3.5,9.2-9,11.3-8c3.3,1.6-0.7,16.5-2,20.8
	c-4.1,14.3-13.3,37-36.7,66.7c-19.6-15.2-33.5-36.6-39.3-60.7l-33.3,70v381.7h1996.6V697.3L1932,696.9z"/>
</svg>
