<svg id="Layer_1" data-name="Layer 1" xmlns="http://www.w3.org/2000/svg" viewBox="0 0 237.08 96.25"><defs><style>.cls-1{fill:#fff;}.cls-2{fill:#051932;}</style></defs><title>board+2</title><path class="cls-1" d="M1360.62,712.89l-67.49,39.83-28.23-.06-10.4,0-12.08,0-9.54,0-21.71,0-33.12-.07-54.51-.1q.06-37.5.12-75l48-5.83-47.93-4.94c0-3.38,0-6.77,0-10.15l54.32.11,33.12.06,86.25.17,12.37,11-11.71,9.08,16.43-4.89,23.91,21.2Z" transform="translate(-1123.54 -656.47)"/><path class="cls-2" d="M1234.43,697.82q0-4.92-4.26-4.92a3.9,3.9,0,0,0-3.51,1.68,10.29,10.29,0,0,0-1.23,5.22h-10q.36-7.74,4.68-11.64a15.68,15.68,0,0,1,10.92-3.9q6.9,0,10.41,3.48a12.2,12.2,0,0,1,3.51,9.06q0,6.18-4.74,12.09a44.2,44.2,0,0,1-11.34,10h16.74v8.28h-30.24v-7.68Q1234.43,705.86,1234.43,697.82Z" transform="translate(-1123.54 -656.47)"/></svg>