<svg id="Layer_1" data-name="Layer 1" xmlns="http://www.w3.org/2000/svg" viewBox="0 0 237.01 95.92"><defs><style>.cls-1{fill:#fff;}.cls-2{fill:#051932;}</style></defs><title>board+0</title><path class="cls-1" d="M1160.25,857.68l-67.42,40H923.24v-33l54.48-5.24v-.53l-54.48-.85V801.72h27.34c1.53,6,3.12,12,4.72,18,1.41-6,2.82-12,4.23-18h137.41L1138,838Z" transform="translate(-923.24 -801.72)"/><path class="cls-2" d="M1013.36,847q0-9.9,4-15.69t12.84-5.79q8.76,0,12.81,5.79t4.05,15.69q0,10-4.05,15.78t-12.81,5.82q-8.82,0-12.84-5.82T1013.36,847Zm23.52,0a22.2,22.2,0,0,0-1.35-8.73q-1.35-3-5.31-3t-5.4,3.06a21.79,21.79,0,0,0-1.38,8.7,22.21,22.21,0,0,0,1.38,8.79q1.38,3.09,5.4,3.09t5.31-3.09A22.66,22.66,0,0,0,1036.88,847Z" transform="translate(-923.24 -801.72)"/></svg>