<svg id="Layer_1" data-name="Layer 1" xmlns="http://www.w3.org/2000/svg" viewBox="0 0 830.97 282.27"><defs><style>.cls-1{fill:#3ac6f4;}.cls-2{fill:#193242;}</style></defs><title>branding</title><polygon class="cls-1" points="518.4 39.85 530.39 54.47 515.77 42.48 513.73 75.62 511.69 42.48 497.06 54.47 509.05 39.85 475.92 37.81 509.05 35.77 497.06 21.14 511.69 33.14 513.73 0 515.77 33.14 530.39 21.14 518.4 35.77 551.54 37.81 518.4 39.85"/><path class="cls-1" d="M893.18,594.36l-23.49-54.11h-.9l-17.44,40.19-19.92,45.89h16.09l17.48-42,3.34-8q2.06,5.2,4.12,10.41,7.83,19.83,15.68,39.66h18.91Z" transform="translate(-355.51 -425.44)"/><path class="cls-2" d="M906.71,543.51v15.75h19.36v67.07h16.32V559.26h20.14V543.51Z" transform="translate(-355.51 -425.44)"/><path class="cls-2" d="M978.29,543.51v82.82h16.32V543.51Z" transform="translate(-355.51 -425.44)"/><path class="cls-2" d="M1089.76,564a43.93,43.93,0,0,0-15.53-15.59,41.34,41.34,0,0,0-42.2,0A43,43,0,0,0,1016.61,564a42,42,0,0,0,0,42.2A42.52,42.52,0,0,0,1032,621.55a42.14,42.14,0,0,0,42.26,0,43.29,43.29,0,0,0,15.53-15.36,41.34,41.34,0,0,0,0-42.2Zm-14.35,34.38a25.15,25.15,0,0,1-9,9.56,23.69,23.69,0,0,1-12.72,3.55,24.94,24.94,0,0,1-13.11-3.55,25.82,25.82,0,0,1-9.34-9.62,26.53,26.53,0,0,1-3.43-13.28,27.32,27.32,0,0,1,3.37-13.5,25.69,25.69,0,0,1,9.17-9.62,25.18,25.18,0,0,1,25.78,0,25.69,25.69,0,0,1,9.17,9.62,28.82,28.82,0,0,1,.11,26.84Z" transform="translate(-355.51 -425.44)"/><path class="cls-2" d="M1170.05,543.51l.34,49.85-57.84-53.12h-.68v86.09h16.54l-.33-48.95,58,52.33h.45v-86.2Z" transform="translate(-355.51 -425.44)"/><path class="cls-2" d="M459.49,610.58V543.51H443.17v82.82h55.26V610.58Z" transform="translate(-355.51 -425.44)"/><path class="cls-2" d="M564.6,543.51v52.21a13.74,13.74,0,0,1-2.31,7.54,17.4,17.4,0,0,1-6.36,5.86,18,18,0,0,1-8.89,2.25,16.75,16.75,0,0,1-8.44-2.25,18.21,18.21,0,0,1-6.3-5.86,13.49,13.49,0,0,1-2.36-7.54V543.51H513.62v52.55a29.79,29.79,0,0,0,4.44,16,30.74,30.74,0,0,0,12.1,11.14,37.83,37.83,0,0,0,33.82,0,31,31,0,0,0,12.21-11.14,29.49,29.49,0,0,0,4.5-16V543.51Z" transform="translate(-355.51 -425.44)"/><path class="cls-2" d="M685.46,540.13,645.2,595.88l-2.73,3.78-1.4-2L600.5,540.13h-.11v86.2h15.75v-37l10.87,15,15.13,20.9h.22l27-38.38v39.5h16.32v-86.2Z" transform="translate(-355.51 -425.44)"/><path class="cls-2" d="M707.07,543.51v82.82h16.32V543.51Z" transform="translate(-355.51 -425.44)"/><path class="cls-2" d="M803,543.51l.19,28.39.15,21.46-25-23-32.83-30.15h-.68v86.09h16.54L761,577.38l58,52.33h.45v-86.2Z" transform="translate(-355.51 -425.44)"/><path class="cls-2" d="M393.76,540.25h-.89l-37.36,86.08h16.08l20.82-50.07,19.8,50.07h18.91Z" transform="translate(-355.51 -425.44)"/><path class="cls-2" d="M869.24,707.71a124.42,124.42,0,0,1-61.29-16.13,4.38,4.38,0,0,1,4.32-7.62,115.75,115.75,0,0,0,115.38-.83,113,113,0,0,0,12.29-8.29,115.49,115.49,0,0,0,29-32.84,4.38,4.38,0,0,1,7.55,4.45,124.23,124.23,0,0,1-31.16,35.32,121.53,121.53,0,0,1-13.23,8.92A124.19,124.19,0,0,1,869.24,707.71Z" transform="translate(-355.51 -425.44)"/><path class="cls-2" d="M972.69,526.73a4.38,4.38,0,0,1-3.78-2.15A115.45,115.45,0,0,0,917.28,478a4.38,4.38,0,1,1,3.64-8,124.17,124.17,0,0,1,55.54,50,4.38,4.38,0,0,1-3.77,6.61Z" transform="translate(-355.51 -425.44)"/><path class="cls-2" d="M765.79,526.74a4.38,4.38,0,0,1-3.77-6.61,124.13,124.13,0,0,1,55.54-50.06,4.38,4.38,0,1,1,3.64,8,115.43,115.43,0,0,0-51.64,46.54A4.38,4.38,0,0,1,765.79,526.74Z" transform="translate(-355.51 -425.44)"/><path class="cls-2" d="M369.41,651.43l-5.05,9.49-5.08-9.49h-3.06l6.84,12.3v6.14h2.47v-6.14l6.91-12.3Z" transform="translate(-355.51 -425.44)"/><path class="cls-2" d="M390.72,656a9.78,9.78,0,0,0-3.46-3.45,9.21,9.21,0,0,0-9.4,0,9.86,9.86,0,0,0-3.43,3.45,9.1,9.1,0,0,0-1.27,4.69,9.42,9.42,0,0,0,14.11,8.16,9.44,9.44,0,0,0,3.46-3.44,9.26,9.26,0,0,0,0-9.41Zm-2.17,8.23a6.83,6.83,0,0,1-9.41,2.54,7,7,0,0,1-3.43-6,7.09,7.09,0,0,1,.91-3.54,6.78,6.78,0,0,1,2.48-2.59,6.55,6.55,0,0,1,3.47-1,6.68,6.68,0,0,1,3.47,1,6.86,6.86,0,0,1,2.5,2.57,7.37,7.37,0,0,1,0,7.08Z" transform="translate(-355.51 -425.44)"/><path class="cls-2" d="M407.33,651.43v11.91a4.28,4.28,0,0,1-.58,2.22,4.21,4.21,0,0,1-1.63,1.56,4.76,4.76,0,0,1-2.31.56,4.42,4.42,0,0,1-2.22-.57,4.28,4.28,0,0,1-1.6-1.56,4.22,4.22,0,0,1-.59-2.21V651.43h-2.47v12a6.69,6.69,0,0,0,.91,3.48,6.17,6.17,0,0,0,2.48,2.35,7.92,7.92,0,0,0,7,0,6.35,6.35,0,0,0,2.5-2.35,6.6,6.6,0,0,0,.92-3.48v-12Z" transform="translate(-355.51 -425.44)"/><path class="cls-2" d="M423.22,662.45a4.88,4.88,0,0,0,2.31-2.17,6.61,6.61,0,0,0,.75-3.13,5.55,5.55,0,0,0-.84-3.1,5.37,5.37,0,0,0-2.32-2,8.21,8.21,0,0,0-3.37-.66h-4.92v18.44h2.47v-6.78H420a4.72,4.72,0,0,0,.61,0l4.33,6.81h2.88ZM420,660.69H417.3V653.8h2.86a3.65,3.65,0,0,1,2,.53,3.11,3.11,0,0,1,1.17,1.31,3.71,3.71,0,0,1,.37,1.61,3.61,3.61,0,0,1-.88,2.4A3.58,3.58,0,0,1,420,660.69Z" transform="translate(-355.51 -425.44)"/><path class="cls-2" d="M453.32,651.43l0,13.34-13.52-13.9h-.13v19h2.5l-.05-13.13,13.54,13.74h.08v-19Z" transform="translate(-355.51 -425.44)"/><path class="cls-2" d="M477.51,656a9.83,9.83,0,0,0-3.45-3.45,9.21,9.21,0,0,0-9.4,0,9.8,9.8,0,0,0-3.44,3.45,9.1,9.1,0,0,0-1.27,4.69,9.34,9.34,0,0,0,9.41,9.41,9.36,9.36,0,0,0,4.71-1.25,9.49,9.49,0,0,0,3.45-3.44,9.26,9.26,0,0,0,0-9.41Zm-2.17,8.23a6.83,6.83,0,0,1-9.41,2.54,7,7,0,0,1-3.43-6,7.09,7.09,0,0,1,.91-3.54,6.78,6.78,0,0,1,2.48-2.59,6.78,6.78,0,0,1,6.94,0,6.86,6.86,0,0,1,2.5,2.57,7.31,7.31,0,0,1,0,7.08Z" transform="translate(-355.51 -425.44)"/><path class="cls-2" d="M491.35,662.45a4.9,4.9,0,0,0,2.3-2.17,6.5,6.5,0,0,0,.76-3.13,5.47,5.47,0,0,0-.85-3.1,5.32,5.32,0,0,0-2.32-2,8.17,8.17,0,0,0-3.37-.66H483v18.44h2.48v-6.78h2.73a4.61,4.61,0,0,0,.61,0l4.34,6.81H496Zm-3.24-1.76h-2.68V653.8h2.85a3.65,3.65,0,0,1,2,.53,3.11,3.11,0,0,1,1.17,1.31,3.71,3.71,0,0,1,.37,1.61,3.61,3.61,0,0,1-.88,2.4A3.55,3.55,0,0,1,488.11,660.69Z" transform="translate(-355.51 -425.44)"/><path class="cls-2" d="M498.18,651.43v2.37H503v16.07h2.47V653.8h4.95v-2.37Z" transform="translate(-355.51 -425.44)"/><path class="cls-2" d="M526.51,651.43v8h-9.66v-8h-2.47v18.44h2.47v-8.09h9.66v8.09H529V651.43Z" transform="translate(-355.51 -425.44)"/><path class="cls-2" d="M536.77,667.47v-5.69h8.49v-2.36h-8.49V653.8h9.51v-2.37h-12v18.44h12.35v-2.4Z" transform="translate(-355.51 -425.44)"/><path class="cls-2" d="M559.35,662.45a4.9,4.9,0,0,0,2.3-2.17,6.49,6.49,0,0,0,.75-3.13,5.47,5.47,0,0,0-.84-3.1,5.32,5.32,0,0,0-2.32-2,7.43,7.43,0,0,0-1.79-.53,9,9,0,0,0-1.58-.13H551v18.44h2.48v-6.78h2.73a4.72,4.72,0,0,0,.61,0l4.33,6.81H564Zm-3.25-1.76h-2.67V653.8h2.85a3.65,3.65,0,0,1,2,.53,3.11,3.11,0,0,1,1.17,1.31,3.71,3.71,0,0,1,.37,1.61,3.61,3.61,0,0,1-.88,2.4A3.58,3.58,0,0,1,556.1,660.69Z" transform="translate(-355.51 -425.44)"/><path class="cls-2" d="M581.38,651.43l.05,13.34-13.52-13.9h-.13v19h2.5l-.05-13.13,13.55,13.74h.07v-19Z" transform="translate(-355.51 -425.44)"/><path class="cls-2" d="M607.28,662.13a5.08,5.08,0,0,0-1.63-1.66,14,14,0,0,0-2.41-1.11,13.3,13.3,0,0,1-3-1.43,2.22,2.22,0,0,1-1-1.88,2.19,2.19,0,0,1,.88-1.85,3.8,3.8,0,0,1,2.38-.68,7.25,7.25,0,0,1,2.12.34,11.61,11.61,0,0,1,2.12.86l.94-1.91a10.88,10.88,0,0,0-5.53-1.48,6.06,6.06,0,0,0-3.95,1.42,4.44,4.44,0,0,0-1.51,3.5,3.91,3.91,0,0,0,.74,2.46,5.45,5.45,0,0,0,1.77,1.55,21.6,21.6,0,0,0,2.59,1.14,10.34,10.34,0,0,1,2.61,1.42,2.48,2.48,0,0,1,.94,2,2.6,2.6,0,0,1-1.11,2.27,4.48,4.48,0,0,1-2.59.76,6.89,6.89,0,0,1-2.48-.5,8.69,8.69,0,0,1-2.27-1.21l-1.1,2a11.47,11.47,0,0,0,2.78,1.39,9.91,9.91,0,0,0,3.29.54,7,7,0,0,0,3.2-.68,5,5,0,0,0,2.85-4.56A5.12,5.12,0,0,0,607.28,662.13Z" transform="translate(-355.51 -425.44)"/><path class="cls-2" d="M610.58,651.43v2.37h4.82v16.07h2.48V653.8h5v-2.37Z" transform="translate(-355.51 -425.44)"/><path class="cls-2" d="M631.7,650.67h-.16l-8.06,19.2h2.46l2-4.84H635l1.91,4.84h2.86Zm-2.91,12.21,2.73-6.73,2.63,6.73Z" transform="translate(-355.51 -425.44)"/><path class="cls-2" d="M651.6,662.45a4.9,4.9,0,0,0,2.3-2.17,6.49,6.49,0,0,0,.75-3.13,5.47,5.47,0,0,0-.84-3.1,5.32,5.32,0,0,0-2.32-2,8.21,8.21,0,0,0-3.37-.66H643.2v18.44h2.48v-6.78h2.73a4.72,4.72,0,0,0,.61,0l4.33,6.81h2.88Zm-3.25-1.76h-2.67V653.8h2.85a3.65,3.65,0,0,1,2,.53,3.11,3.11,0,0,1,1.17,1.31,3.71,3.71,0,0,1,.37,1.61,3.61,3.61,0,0,1-.88,2.4A3.58,3.58,0,0,1,648.35,660.69Z" transform="translate(-355.51 -425.44)"/><path class="cls-2" d="M670.57,667.47v-16h-2.48v18.44H680v-2.4Z" transform="translate(-355.51 -425.44)"/><path class="cls-2" d="M684,651.43v18.44h2.48V651.43Z" transform="translate(-355.51 -425.44)"/><path class="cls-2" d="M694.21,667.47v-5.69h8.5v-2.36h-8.5V653.8h9.52v-2.37h-12v18.44h12.34v-2.4Z" transform="translate(-355.51 -425.44)"/><path class="cls-2" d="M718.45,662.13a4.83,4.83,0,0,0-.49-.67,5.11,5.11,0,0,0-1.14-1,13.72,13.72,0,0,0-2.41-1.11,13,13,0,0,1-2.94-1.43,2.23,2.23,0,0,1-1-1.88,2.19,2.19,0,0,1,.88-1.85,3.83,3.83,0,0,1,2.39-.68,7.18,7.18,0,0,1,2.11.34,11.34,11.34,0,0,1,2.12.86l.95-1.91a11,11,0,0,0-5.54-1.48,6.06,6.06,0,0,0-3.94,1.42,4.45,4.45,0,0,0-1.52,3.5,4,4,0,0,0,.74,2.46,5.48,5.48,0,0,0,1.78,1.55A21.61,21.61,0,0,0,713,661.4a14,14,0,0,1,1.72.82,8.62,8.62,0,0,1,.89.6,2.47,2.47,0,0,1,.93,2,2.58,2.58,0,0,1-1.11,2.27,4.44,4.44,0,0,1-2.59.76,6.88,6.88,0,0,1-2.47-.5,8.7,8.7,0,0,1-2.27-1.21l-1.1,2a11.47,11.47,0,0,0,2.78,1.39,9.83,9.83,0,0,0,3.29.54,7,7,0,0,0,3.2-.68,5.17,5.17,0,0,0,2.11-1.89,5.57,5.57,0,0,0,.08-5.37Z" transform="translate(-355.51 -425.44)"/><path class="cls-2" d="M743.44,651.43v8h-9.67v-8h-2.48v18.44h2.48v-8.09h9.67v8.09h2.47V651.43Z" transform="translate(-355.51 -425.44)"/><path class="cls-2" d="M753.69,667.47v-5.69h8.49v-2.36h-8.49V653.8h9.52v-2.37h-12v18.44h12.34v-2.4Z" transform="translate(-355.51 -425.44)"/><path class="cls-2" d="M776.26,662.45a4.88,4.88,0,0,0,2.31-2.17,6.61,6.61,0,0,0,.75-3.13,6.33,6.33,0,0,0-.18-1.54,4.72,4.72,0,0,0-.66-1.56,5.32,5.32,0,0,0-2.32-2,8.21,8.21,0,0,0-3.37-.66h-4.92v18.44h2.47v-6.78h2.73a4.79,4.79,0,0,0,.62,0l4.33,6.81h2.88ZM773,660.69h-2.68V653.8h2.86a3.65,3.65,0,0,1,2,.53,3.12,3.12,0,0,1,1.11,1.21.33.33,0,0,1,.06.1,3.71,3.71,0,0,1,.37,1.61,3.61,3.61,0,0,1-.88,2.4A3.58,3.58,0,0,1,773,660.69Z" transform="translate(-355.51 -425.44)"/><path class="cls-2" d="M787.18,667.47v-5.69h8.5v-2.36h-8.5V653.8h9.51v-2.37h-12v18.44h12.34v-2.4Z" transform="translate(-355.51 -425.44)"/></svg>