<svg xmlns="http://www.w3.org/2000/svg" viewBox="0 0 52.36 52.36"><defs><style>.cls-1{isolation:isolate;}.cls-2{opacity:0;mix-blend-mode:multiply;}.cls-3{fill:#231f20;}.cls-4{fill:#3ac6f4;}</style></defs><title>BTI</title><g class="cls-1"><g id="Layer_1" data-name="Layer 1"><g class="cls-2"><path class="cls-3" d="M932.36,593.91V589.4a2.26,2.26,0,0,1,2.26-2.26h6.48a2.66,2.66,0,0,0,2-4.52l-4.7-4.7a2.26,2.26,0,0,1,0-3.19l3.19-3.19a2.24,2.24,0,0,1,3.19,0l4.36,4.35a2.84,2.84,0,0,0,4.86-1.84v-6.33a2.26,2.26,0,0,1,2.26-2.26h4.52a2.25,2.25,0,0,1,2.25,2.26v6.33a2.84,2.84,0,0,0,4.86,1.84l4.36-4.35a2.24,2.24,0,0,1,3.19,0l3.19,3.19a2.24,2.24,0,0,1,0,3.19l-4.7,4.7a2.66,2.66,0,0,0,2,4.52h6.48a2.26,2.26,0,0,1,2.26,2.26v4.51a2.26,2.26,0,0,1-2.26,2.26H976a2.66,2.66,0,0,0-2,4.52l4.7,4.7a2.24,2.24,0,0,1,0,3.19l-3.19,3.19a2.26,2.26,0,0,1-3.19,0l-4.36-4.35a2.84,2.84,0,0,0-4.86,1.84v6.33a2.25,2.25,0,0,1-2.25,2.26h-4.52a2.26,2.26,0,0,1-2.26-2.26v-6.33a2.84,2.84,0,0,0-4.86-1.84l-4.36,4.35a2.26,2.26,0,0,1-3.19,0l-3.19-3.19a2.26,2.26,0,0,1,0-3.19l4.7-4.7a2.66,2.66,0,0,0-2-4.52h-6.48A2.26,2.26,0,0,1,932.36,593.91Z" transform="translate(-932.36 -565.47)"/></g><path class="cls-4" d="M932.36,593.91V589.4a2.26,2.26,0,0,1,2.26-2.26h6.48a2.66,2.66,0,0,0,2-4.52l-4.7-4.7a2.26,2.26,0,0,1,0-3.19l3.19-3.19a2.24,2.24,0,0,1,3.19,0l4.36,4.35a2.84,2.84,0,0,0,4.86-1.84v-6.33a2.26,2.26,0,0,1,2.26-2.26h4.52a2.25,2.25,0,0,1,2.25,2.26v6.33a2.84,2.84,0,0,0,4.86,1.84l4.36-4.35a2.24,2.24,0,0,1,3.19,0l3.19,3.19a2.24,2.24,0,0,1,0,3.19l-4.7,4.7a2.66,2.66,0,0,0,2,4.52h6.48a2.26,2.26,0,0,1,2.26,2.26v4.51a2.26,2.26,0,0,1-2.26,2.26H976a2.66,2.66,0,0,0-2,4.52l4.7,4.7a2.24,2.24,0,0,1,0,3.19l-3.19,3.19a2.26,2.26,0,0,1-3.19,0l-4.36-4.35a2.84,2.84,0,0,0-4.86,1.84v6.33a2.25,2.25,0,0,1-2.25,2.26h-4.52a2.26,2.26,0,0,1-2.26-2.26v-6.33a2.84,2.84,0,0,0-4.86-1.84l-4.36,4.35a2.26,2.26,0,0,1-3.19,0l-3.19-3.19a2.26,2.26,0,0,1,0-3.19l4.7-4.7a2.66,2.66,0,0,0-2-4.52h-6.48A2.26,2.26,0,0,1,932.36,593.91Z" transform="translate(-932.36 -565.47)"/></g></g></svg>