<svg id="Layer_1" data-name="Layer 1" xmlns="http://www.w3.org/2000/svg" viewBox="0 0 319.26 414.01"><defs><style>.cls-1{fill:#fff;}.cls-2{fill:#051932;opacity:0.25;}.cls-3{font-size:55px;fill:#42c6f2;font-family:Poppins-Bold, Poppins;font-weight:700;}</style></defs><title>bti</title><rect id="_Path_" data-name="&lt;Path&gt;" class="cls-1" x="112.07" width="43.5" height="71.7"/><path id="_Path_2" data-name="&lt;Path&gt;" class="cls-1" d="M812.29,1630.79l-79.72-1.61L752.7,1610V1387.22l43.5.1V1610Q804.24,1620.4,812.29,1630.79Z" transform="translate(-640.63 -1216.79)"/><polygon id="_Path_3" data-name="&lt;Path&gt;" class="cls-2" points="155.57 21.74 155.57 71.7 112.07 71.7 112.07 46.18 155.57 21.74"/><path id="_Path_4" data-name="&lt;Path&gt;" class="cls-2" d="M752.7,1393.17l43.5.1v139l-43.5-128.85Z" transform="translate(-640.63 -1216.79)"/><path id="_Path_5" data-name="&lt;Path&gt;" class="cls-1" d="M959.89,1319.82,882,1387.1l-36.48,6.54L832.11,1396l-15.61,2.81-12.33,2.21-28.06,5-42.8,7.67-70.45,12.65-17.42-96.92,60.62-18.78L643,1315.57c-.79-4.37-1.57-8.75-2.35-13.12l70.2-12.59,42.8-7.69,111.47-20,18.55,11.27-13,14.48,20.08-10.17,35.86,21.78Z" transform="translate(-640.63 -1216.79)"/><g id="_Group_" data-name="&lt;Group&gt;"><text class="cls-3" transform="translate(78.81 154.93) rotate(-10.28)"><tspan xml:space="preserve">  BTI</tspan></text></g></svg>