<svg id="Layer_1" data-name="Layer 1" xmlns="http://www.w3.org/2000/svg" viewBox="0 0 826 677.71"><defs><style>.cls-1{fill:#fff;}</style></defs><title>cliff + bird</title><path class="cls-1" d="M993.5-198c0,.19,0,.39,0,.59,0,0,0,0,0,.05,0,.57-.09,1.15-.16,1.73a86,86,0,0,1-1.53,9.56,87.6,87.6,0,0,1-8.33,22.57,59.25,59.25,0,0,0,1.28-8.66,195.88,195.88,0,0,1-14.4,21.46l-2.37,4.82.19.27a55.18,55.18,0,0,0,21.46,17.64,37,37,0,0,1-11.81-2,22.87,22.87,0,0,1-7.22-4l-5.05-4.52s0,.08,0,.12l6.58,7.79a15.8,15.8,0,0,1-4.48.39,15.83,15.83,0,0,1-1.91-.23q.28,11.91.55,23.82l-2.2.13-1.53-24.94c-.37-.17-.64-.32-.82-.42l-.6,3.39-2.89-5.87v6.46a21.81,21.81,0,0,1-3.48,1l-.81,20.38-1.87-.12q0-9.94,0-19.88c-.4,0-.82.06-1.25.07a24.05,24.05,0,0,1-9.18-1.43l5.36-6.53a43.62,43.62,0,0,1-9.07,4.76,54.75,54.75,0,0,1-11.59,3.2A75.6,75.6,0,0,0,946-144.18l.74-1c-1.11-2.53-2.67-5.84-4.72-9.58a85.32,85.32,0,0,0-7.92-12.14c.36,1.68.76,3.27,1.17,4.75a52.08,52.08,0,0,1-10.57-21.43,22.14,22.14,0,0,0-.82,4.64,40.13,40.13,0,0,1-1-16.69,38.71,38.71,0,0,1,1.3-5.62l0,.13c.75-3,2.13-5.47,4.26-6.9,2.84-1.9,6.44-1.61,9.12-1,.63-.55,1.29-1.11,2-1.66,1.63-1.32,3.23-2.48,4.78-3.52a18.1,18.1,0,0,1-4.89-6.6,18.05,18.05,0,0,1-1.47-6.84L933-223.26a22.35,22.35,0,0,0,1.73-4.21c1.11-3.76.55-5.63.87-8.86.15-1.48.74-7.57,5-12a16.17,16.17,0,0,1,7-4.15,5,5,0,0,0-1.89-2.79,5.22,5.22,0,0,0-5.43-.16,6.83,6.83,0,0,1,5.59-2.2,6.53,6.53,0,0,1,4.09,2.2,4.91,4.91,0,0,1-.16-3.31c.73-2.07,2.93-2.54,3-4.11,0-.56-.22-1.35-1.43-2.35a8.41,8.41,0,0,1,5,4.17,8.37,8.37,0,0,1,.47,6.22,9.82,9.82,0,0,0,3.9-6.69,9.35,9.35,0,0,0-1.07-5.27,8,8,0,0,1,4.56,4.57,7.94,7.94,0,0,1-2.2,8.34,16.85,16.85,0,0,1,8.82,2.91,20.34,20.34,0,0,1,5.71,6.44c1.39,2.54,1.51,4.17,3.41,5.91A9.8,9.8,0,0,0,984-236.4a3.43,3.43,0,0,1-3.23,1.73,3.24,3.24,0,0,1-2-1,23.6,23.6,0,0,1,.64,4.06h0a5.48,5.48,0,0,0,3.65,2.27,5.78,5.78,0,0,1-3.69,1.28,23.39,23.39,0,0,1-1.58,7,23.42,23.42,0,0,1-3.71,6.27,36.91,36.91,0,0,1,4.6,3.38c.93.8,1.76,1.6,2.5,2.37a9.46,9.46,0,0,1,9.31,1.73A9.46,9.46,0,0,1,993.5-198Z" transform="translate(-539 266.71)"/><path class="cls-1" d="M981.55-205.56a13.69,13.69,0,0,1,3.45-5.38c6.47-6.06,16.07-1.8,24.64-3.85,6.07-1.45,13.58-6.52,20.34-22.1,2,2.18,3.93,5.16,3.71,8.56-.32,4.93-5.05,8-3.84,10.21,1,1.89,4.8.52,5.93,2.48,1.49,2.58-3.41,7.91-4,8.56a26.11,26.11,0,0,1-12.83,7.45,11.52,11.52,0,0,1,4.69,2.48c1.06.94,2.23,2,2.21,3.1,0,1.81-3.15,3.63-7.73,4.35,1.75,3.22,1.35,6.11.14,6.76-1,.53-2.77-.3-4.28-1.79.44,3.77,0,4.76-.55,5-1.06.43-2.81-2.18-3.79-1.66-.74.39,0,2-1,3.17a3.63,3.63,0,0,1-2.9.93,5.35,5.35,0,0,1-4.28-4,4.68,4.68,0,0,1-5.31,4,4.69,4.69,0,0,1-3.52-5.93Z" transform="translate(-539 266.71)"/><path class="cls-1" d="M937-205.56a13.69,13.69,0,0,0-3.45-5.38c-6.47-6.06-16.07-1.8-24.64-3.85-6.07-1.45-13.58-6.52-20.34-22.1a29.43,29.43,0,0,0-3.71,8.56c-.69,2.7-1.09,4.31-.8,6.1,1.16,7,12.11,10.74,11.69,11.59-.31.64-5.91-2.47-8.18-.41-1.35,1.23-.86,3.71-.81,4,.8,3.79,6,6.6,12.83,7.45-3.11-1.64-6.39-1-7.68.9-1.46,2.14.15,5.1.31,5.38,1.44,2.56,4.64,4,8.2,3.66-2.15,1.36-2.67,3.76-1.78,5a3,3,0,0,0,3.1,1c1.35-.38,1.92-1.83,2.28-1.66s-.3,1.34,0,2.79c.34,1.64,1.79,3.22,2.87,3.06s1.49-2.11,2-2,0,2,1,3.17a3.63,3.63,0,0,0,2.9.93,5.35,5.35,0,0,0,4.28-4,4.68,4.68,0,0,0,5.31,4,4.69,4.69,0,0,0,3.52-5.93Z" transform="translate(-539 266.71)"/><path class="cls-1" d="M1318.57,162.74a368.46,368.46,0,0,1-28.07-31.58c-11-14-12.73-18.63-13.5-22.66-.55-2.86-.76-6.08-3-10-3.21-5.62-6.9-6.2-11.33-10.34-8.68-8.11-4.89-15.58-12-22.33-1.3-1.23-5.15-4.51-20.72-5.88a132.18,132.18,0,0,0-39.2,2.53l18-7.32a42.66,42.66,0,0,0,10.92-6.33c3.42-2.73,12-9.6,13.26-19.37-.27,2.77-.76,8.17-.26,4.87A26.65,26.65,0,0,1,1238,22.17c-4.37-7.41-8.56-11.23-12.23-13.1.17-.78.36-1.59.56-2.43.36-1.49.76-3.06,1.2-4.7,0,0,0,0,0,0v0a100.25,100.25,0,0,1,3.65-12.41c.76-2.08,1.56-4.08,2.41-6l.61-1.38c.33-.73.69-1.5,1.09-2.32,1-2,2.15-4.28,3.59-6.73,1.07-1.85,2.3-3.81,3.68-5.84a95,95,0,0,0-8.28,9.89c-1.33,1.81-2.64,3.79-3.94,5.9q-.21.33-.42.69l-.83,1.42-.77,1.35c-.37.68-.76,1.4-1.16,2.17s-.69,1.35-1,2h0a111.48,111.48,0,0,0-5,12.16c0,.07,0,.14-.08.22-.47,1.32-1,2.78-1.49,4.38a9.54,9.54,0,0,0-1.2,0c.5-4.1,1.19-8.39,2.12-12.85.41-2.09.89-4.2,1.42-6.35.6-2.4,1.27-4.84,2-7.3,1.44-4.88,3.05-9.45,4.74-13.71a164.41,164.41,0,0,1,9.22-19.39,121.6,121.6,0,0,0-14,19.39,117.59,117.59,0,0,0-6.17,12.15q-2,4.47-3.47,8.86-1.08,3.14-1.94,6.18c0-2-.05-4.09-.13-6.18a200.68,200.68,0,0,0-1.7-20.75,2.34,2.34,0,0,0,0-.26,210.11,210.11,0,0,0-9.78-41.11,342,342,0,0,1,6.2,39.82l.12,1.29c.68,7.2,1.09,14.22,1.31,21,.06,2.15.11,4.26.15,6.35q.09,7.84-.15,15.26a12.22,12.22,0,0,1-1.25.15c0-1.08,0-2.2,0-3.36a68.53,68.53,0,0,0-.94-9.19A93.31,93.31,0,0,0,1202.76-17c-.18-.56-.35-1.08-.52-1.55s-.3-.9-.44-1.28c-.19-.54-.38-1.05-.57-1.54l-.53-1.37,0-.12q-.23-.59-.48-1.17c-.49-1.17-1-2.37-1.55-3.55q-1.23-2.69-2.57-5.17a99.63,99.63,0,0,0-24.84-30,93.7,93.7,0,0,1,19.92,30c.11.25.21.51.32.77s.34.84.51,1.27l.18.47a86.6,86.6,0,0,1,4.68,17.19c0,.25.09.5.13.75a87.6,87.6,0,0,1,.71,21.2,36.61,36.61,0,0,1-10.49-5.09c-5.81-11.51-13.15-15.48-20.11-16.2-10.26-1.08-28.15,4-40.64,0-4.19-1.34-8.61-3.31-8.65-3.31-20.83-9.25-15.44-15.45-35.69-25.55-15.34-7.64-24.53-5.48-32.52-12.53-6.38-5.62-3.12-8.84-8.16-17.58-4.73-8.22-12.36-13.64-19-18.36-21.63-15.43-51.25-23-65.17-26a142.12,142.12,0,0,1-21.81,11.09c-22.08,9-34.93,8.72-53.53,16.64C869.4-82.65,874.21-82,854-70.18c-26.9,15.86-33.85,13.33-46.84,23.52C789.6-32.82,793.57-21.45,779-19.3c-7,1-11.71-1-17.73-2.29a102.93,102.93,0,0,1,5-19.43,102.84,102.84,0,0,1,11.37-22.24,93.9,93.9,0,0,0-15.16,21,93.63,93.63,0,0,0-7.74,19.8c-.73,0-1.48-.06-2.26-.05A163.67,163.67,0,0,1,759-60.67a163.19,163.19,0,0,1,14-33.1,121.45,121.45,0,0,0-20.17,31.55,120.7,120.7,0,0,0-5.43,15.06,208.47,208.47,0,0,0-1.81-27,210.75,210.75,0,0,0-9.82-41.37A345.23,345.23,0,0,1,742-75.67a347,347,0,0,1,1,53.31c0,.36-.06.7-.08,1l-.36.08a98,98,0,0,0-8.85-36.86,99,99,0,0,0-27.41-35.16,93.8,93.8,0,0,1,23.79,41.37,92.91,92.91,0,0,1,2.56,34.64A47.17,47.17,0,0,0,716.89-2.47a26.24,26.24,0,0,0-3.77,8h-.83C706.6,8.57,699.51,13.66,696,22c-3,7.08-1.69,12.49-2.08,19.61-.45,8.25-3.21,3.88-13.59,17.55l41.34,9.33-47.34.34c-15.29,3.89-20.32,9.64-22,14.33-1.26,3.53-1,6.65-3.33,11.33-2.48,5-7.17,7.81-10.67,9.34L699,117.49l-67.33-4.33c-5.82-.47-13.09,0-18.67,4.5-8,6.42-6.19,15.93-13.5,28a51.29,51.29,0,0,1-17.42,17.08L539,411h826ZM1233,28.57c0,.08,0,.16,0,.26a.77.77,0,0,1,0,.15C1233,28.83,1233,28.69,1233,28.57Z" transform="translate(-539 266.71)"/></svg>