<svg id="Layer_1" data-name="Layer 1" xmlns="http://www.w3.org/2000/svg" viewBox="0 0 367.07 372.72"><defs><style>.cls-1{fill:#fff;}.cls-2{fill:#051932;opacity:0.25;}.cls-3{font-size:55px;fill:#42c6f2;font-family:Poppins-Bold, Poppins;font-weight:700;}</style></defs><title>events</title><path id="_Path_" data-name="&lt;Path&gt;" class="cls-1" d="M973.36,947l-71.77-1.35,18.13-16.06V742.71l39.16.08V929.58Z" transform="translate(-776.37 -574.26)"/><rect id="_Path_2" data-name="&lt;Path&gt;" class="cls-1" x="143.35" width="39.16" height="57.57"/><polygon id="_Path_3" data-name="&lt;Path&gt;" class="cls-1" points="143.35 170.99 182.51 170.99 182.51 214.29 143.35 210.69 143.35 170.99"/><polygon id="_Path_4" data-name="&lt;Path&gt;" class="cls-2" points="182.51 17.45 182.51 57.57 143.35 57.57 143.35 37.08 182.51 17.45"/><path id="_Path_5" data-name="&lt;Path&gt;" class="cls-2" d="M919.72,742.71l39.16.08V858.28L919.72,751.22Z" transform="translate(-776.37 -574.26)"/><path id="_Path_6" data-name="&lt;Path&gt;" class="cls-1" d="M776.37,698.1l79.93,47.34h16.79l5.48-15.05,5.76,15.05h30.35l45.47,0,97.19,0V737l-44.58-1.16q22.29-4.4,44.57-8.8,0-35.89,0-71.8l-56.15-2.64,56.14-3.66V631.66l-86.74,0H925.1l-73.7,0-48.67,43Z" transform="translate(-776.37 -574.26)"/><g id="_Group_" data-name="&lt;Group&gt;"><text class="cls-3" transform="translate(55.74 130.92)">EVENTS</text></g></svg>