<?xml version="1.0" encoding="utf-8"?>
<!-- Generator: Adobe Illustrator 21.1.0, SVG Export Plug-In . SVG Version: 6.00 Build 0)  -->
<svg version="1.1" id="Layer_1" xmlns="http://www.w3.org/2000/svg" xmlns:xlink="http://www.w3.org/1999/xlink" x="0px" y="0px"
	 viewBox="0 0 1920 1080" style="enable-background:new 0 0 1920 1080;" xml:space="preserve">
<style type="text/css">
	.st0{fill:#FFFFFF;}
</style>
<title>5 footer</title>
<path class="st0" d="M1912.4,785.4c-27.7,11.8-54.7,22-80.9,30.9c29.8-0.2,59.4-3.2,88.5-8.9v55.3
	c-224.9,57.9-448.4,12.5-448.4,11.5c0,0,0.2-0.1,0.6-0.1c99.9-6.5,268.9-31.2,447.8-131.4v39.5
	C1917.5,783.3,1914.9,784.4,1912.4,785.4z"/>
<path class="st0" d="M1920,910.5V1080h-342.7c-165.4-101.5-304.8-125.8-418.2-117.8c-131.8,9.3-233.5,62.6-339,117.8H0V795.5
	c74.4,54.9,162.8,104.7,266.3,139.4c198.2,66.5,380.8,53.8,503.2,45.3c219.7-15.2,234.9-60.8,441.7-67.2
	c220.7-6.8,268.4,43.2,449.8,38.8C1730.8,950.1,1818.2,940.4,1920,910.5z"/>
<path class="st0" d="M775.3,945.7c-0.2,2.2-243.7,39.3-494.8-78.6C159.6,810.3,66.6,731.4,0,660v-10
	c66.8,70.3,160.4,149.2,282.4,207C534.6,976.7,775.5,943.5,775.3,945.7z"/>
<path class="st0" d="M1504.9,1080h-9c-44.5-29.3-103-58.5-175.1-74.8c-56.2-12.6-114.2-15.9-171.5-9.8c64.3-11,130.2-8.4,193.4,7.5
	C1410.9,1020.3,1464.9,1050.6,1504.9,1080z"/>
</svg>
