<svg id="Layer_1" data-name="Layer 1" xmlns="http://www.w3.org/2000/svg" xmlns:xlink="http://www.w3.org/1999/xlink" viewBox="0 0 1920 380.51"><defs><style>.cls-1{fill:url(#linear-gradient);}.cls-2,.cls-5{fill:#fff;}.cls-2{opacity:0.3;}.cls-3{fill:url(#linear-gradient-2);}.cls-4{fill:url(#linear-gradient-3);}.cls-5{opacity:0.28;}</style><linearGradient id="linear-gradient" y1="1000.5" x2="1920" y2="1000.5" gradientUnits="userSpaceOnUse"><stop offset="0" stop-color="#0095da"/><stop offset="0.08" stop-color="#0087c7"/><stop offset="0.31" stop-color="#005f92"/><stop offset="0.52" stop-color="#004069"/><stop offset="0.72" stop-color="#002a4b"/><stop offset="0.88" stop-color="#001c38"/><stop offset="1" stop-color="#001732"/></linearGradient><linearGradient id="linear-gradient-2" x1="547.62" y1="620.6" x2="1284.9" y2="980.86" xlink:href="#linear-gradient"/><linearGradient id="linear-gradient-3" x1="127.38" y1="1261.73" x2="624.91" y2="711.28" xlink:href="#linear-gradient"/></defs><title>mountain</title><path class="cls-1" d="M1920,921v159H0V955l22.26-.39,727.91-12.89,49.06-.87,1099.3-19.47Z" transform="translate(0 -699.49)"/><path class="cls-2" d="M712.44,789.3c8.23,1.38,20.27,2.14,33.09-2.35,19.63-6.88,23.32-19.87,40-21.87,13.26-1.59,17,5.89,33.09,8.36,11.34,1.74,27.77.85,49.44-11.42-22.16,14.92-40.54,19.85-53.6,21.48-7.54.94-13.7.83-26.85,3.19-18.36,3.29-23.18,6.52-34.13,8C744.15,796,730.35,796,712.44,789.3Z" transform="translate(0 -699.49)"/><path class="cls-2" d="M1076.75,812.22c25.43-16,42.64-17.84,53.87-16.36,4.81.63,11.64,2.29,21.11.5,12.19-2.31,14.41-7.63,24.82-9.14,9.68-1.4,13.37,2.38,26.72,5.17a102.14,102.14,0,0,0,34.65,1,529.93,529.93,0,0,1-161.17,18.79Z" transform="translate(0 -699.49)"/><path class="cls-3" d="M1899,1080H750.17V934.09l12.19-13.64,18.5-20.71,12-13.4L959.78,699.49l76.53,69.12,4.83-9,42.06,34.47,6.2-13.1,72.4,53.78,2.07-14.48,27,11.42,12.6,5.32,45.21,19.12,649.85,64.1v1.1C1898.69,966.93,1898.85,1032.15,1899,1080Z" transform="translate(0 -699.49)"/><path class="cls-4" d="M973,762.92,867.84,870.61,815.29,924.4q-8,8.24-16.06,16.45l-49.06,50.22L663.29,1080H607.64L8,957l14.26-2.39q355.68-59.75,711.36-119.46l138.94-93.43,8.62,9,16.54-17.06,4.31,3.27,7.41-10.68,6.9,8.1,43.44-34.82L925.3,745.86l23.27,30.34Z" transform="translate(0 -699.49)"/><path class="cls-2" d="M720.83,899.12c27.83,2.07,48.09-3,61.71-8.27,27.83-10.74,38.26-26.21,63.09-24.82,14.47.81,17.55,6.43,32.11,4.37,16.82-2.37,20.83-11,36.18-9.59,7.83.73,11.82,3.45,21.34,2.46a46.7,46.7,0,0,0,15.86-4.65,25.54,25.54,0,0,1-9.83,12.07c-9.32,6-19.22,3.39-20.86,2.93,16.45,11.74,29.52,13.72,38.27,13.45,13.44-.42,20-6.23,36.37-7.24a79.91,79.91,0,0,1,31.2,4.48c4.25-5.26,11.58-12.73,22.58-16.42,14.25-4.78,20.67,1.46,34.3-4.09,12.92-5.27,12.27-13,25-16.72,8.66-2.56,12.14.08,25.17.69,2.49.12,25.08,1,44.13-7.24,20.75-9,15.62-19.37,33.1-26.72,22.21-9.34,36.22,5.07,61.88-4.83a66,66,0,0,0,21.37-13.62,136,136,0,0,1-36.54,27.58c-29.71,15.24-42.14,7.08-67.4,19.31-32,15.48-28.8,36.66-59.81,55.16-14.86,8.86-36.79,16.65-69.29,14.82a121.3,121.3,0,0,0,40.34-14.65,119.49,119.49,0,0,0,17.71-12.63c-88.48,28.66-130.86,25.88-153.2,17.28a136,136,0,0,0-49.47-10.56c-4.37-.07-20.33-.09-42.93,6.29-26,7.36-40.89,17.58-53.66,24.31-18.85,9.93-48.43,20.26-93.54,18.92a157,157,0,0,1,45.42-24c17.9-5.88,30.33-6.12,49.13-15.77a125.52,125.52,0,0,0,24.74-16.72,262.62,262.62,0,0,1-124.45,14.48Z" transform="translate(0 -699.49)"/><path class="cls-2" d="M838.79,848.42c25.21,3.83,44.77,1.81,58.13-.83,14.14-2.79,20.83-6.17,38.57-10.54a296.1,296.1,0,0,1,52-8,135.23,135.23,0,0,1-38.78-.52c-15.37-2.51-21.54-6.45-32.06-3.1-9.32,3-12.57,8.62-20.43,7.5s-9.22-7.36-15.51-7c-6.5.39-8.58,7.26-16.29,13.45C859.55,843.25,851.72,847.5,838.79,848.42Z" transform="translate(0 -699.49)"/><path class="cls-2" d="M969.88,850.54a37.6,37.6,0,0,0,11.72-4.36c6.87-4,7.24-7.26,11.89-9.48,7.54-3.59,11.78,2.49,23.61,2.3,11.5-.19,11.64-6,25.18-8,9-1.32,11.93.83,27.58,2.41a206.84,206.84,0,0,0,29.13.86,373.91,373.91,0,0,1-129.11,16.26Z" transform="translate(0 -699.49)"/><path class="cls-5" d="M874.5,806a116.26,116.26,0,0,0-47.5-.5c-35.7,7.33-50.36,29.35-74.16,41.35-21.46,10.82-57.48,17.1-119.63-9.71,29.33-15.83,53.38-19.22,70.37-19.2,25.4,0,36.85,7.67,61.64,2.2a81.53,81.53,0,0,0,13.71-4.21,233.07,233.07,0,0,0,31.66-16C820.64,794.11,838.84,791.18,874.5,806Z" transform="translate(0 -699.49)"/></svg>