<svg xmlns="http://www.w3.org/2000/svg" viewBox="0 0 52.94 55.66"><defs><style>.cls-1{isolation:isolate;}.cls-2{opacity:0;mix-blend-mode:multiply;}.cls-3{fill:#231f20;}.cls-4{fill:#3ac6f4;}</style></defs><title>speed mentoring</title><g class="cls-1"><g id="Layer_1" data-name="Layer 1"><g class="cls-2"><path class="cls-3" d="M985,492.2c0,.51-.08.9-.1,1.16s0,.32,0,.37,0-.17,0-.37,0-.65,0-1.17a25.57,25.57,0,0,0-.43-4.38,24.29,24.29,0,0,0-2.15-6.43,23.22,23.22,0,0,0-2.14-3.54,26,26,0,0,0-3-3.43,23.9,23.9,0,0,0-19.7-6.24,23.17,23.17,0,0,0-5.6,1.53,24.78,24.78,0,0,0-2.65,1.29c-.42.26-.85.5-1.26.78l-.62.41-.59.44c-.4.29-.77.63-1.16.93L945,474c-.17.17-.34.3-.53.51l-.58.58-.14.15,0,0-.06.07-.25.28c-.16.18-.33.37-.49.56l-.46.58a22.64,22.64,0,0,0-3,5.1,22.38,22.38,0,0,0-1.61,11.42,21.74,21.74,0,0,0,4,10.2c.27.35.51.71.81,1l.42.51.41.44.21.23.1.1.13.13.53.53.14.13.06.06,0,0v0l.24.22.48.42a20.79,20.79,0,0,0,4.11,2.74,21.52,21.52,0,0,0,4.31,1.66,21.22,21.22,0,0,0,4.25.64,20.6,20.6,0,0,0,7.33-.94,18.72,18.72,0,0,0,2.84-1.15,6.85,6.85,0,0,0,.62-.31l.58-.31c.37-.24.72-.43,1-.65s.63-.42.9-.64.54-.39.77-.59.46-.37.63-.53l.45-.42a.46.46,0,0,1,.1-.09l.1-.1.23-.23.34-.35.29-.29a4.84,4.84,0,0,1,6.87,6.81,2.92,2.92,0,0,1-.24.23l-.31.26-.37.33-.24.21-.06.05-.09.08-.18.15-.85.69c-.32.25-.65.47-1,.73s-.76.52-1.18.79-.89.55-1.38.83-1,.55-1.59.84l-.87.4c-.3.14-.59.27-.92.39a29.39,29.39,0,0,1-14.56,1.94,28.72,28.72,0,0,1-11.47-3.95,28,28,0,0,1-5.21-4l-.59-.6-.3-.31-.1-.1,0,0-.06-.07-.12-.14-.5-.57-.12-.14-.15-.17-.29-.36c-.18-.23-.38-.47-.56-.71s-.34-.46-.51-.7c-.35-.46-.65-1-1-1.44a28.64,28.64,0,0,1-2.93-6.38,28,28,0,0,1-1.26-7,27.31,27.31,0,0,1,7-19.8l.6-.65c.2-.22.42-.42.63-.63l.31-.31.19-.19.16-.13.61-.54c.18-.17.44-.37.68-.56s.47-.38.71-.56c.48-.34.93-.7,1.43-1l.73-.47.75-.43c.49-.31,1-.54,1.53-.81a27.12,27.12,0,0,1,3.16-1.27,26.49,26.49,0,0,1,18.65.67,25.77,25.77,0,0,1,8.93,6.24,26.6,26.6,0,0,1,2.94,3.82,24.5,24.5,0,0,1,2,3.84,25,25,0,0,1,1.74,6.74A25.47,25.47,0,0,1,985,492.2Z" transform="translate(-932.07 -465.05)"/></g><path class="cls-4" d="M985,492.2c0,.51-.08.9-.1,1.16s0,.32,0,.37,0-.17,0-.37,0-.65,0-1.17a25.57,25.57,0,0,0-.43-4.38,24.29,24.29,0,0,0-2.15-6.43,23.22,23.22,0,0,0-2.14-3.54,26,26,0,0,0-3-3.43,23.9,23.9,0,0,0-19.7-6.24,23.17,23.17,0,0,0-5.6,1.53,24.78,24.78,0,0,0-2.65,1.29c-.42.26-.85.5-1.26.78l-.62.41-.59.44c-.4.29-.77.63-1.16.93L945,474c-.17.17-.34.3-.53.51l-.58.58-.14.15,0,0-.06.07-.25.28c-.16.18-.33.37-.49.56l-.46.58a22.64,22.64,0,0,0-3,5.1,22.38,22.38,0,0,0-1.61,11.42,21.74,21.74,0,0,0,4,10.2c.27.35.51.71.81,1l.42.51.41.44.21.23.1.1.13.13.53.53.14.13.06.06,0,0v0l.24.22.48.42a20.79,20.79,0,0,0,4.11,2.74,21.52,21.52,0,0,0,4.31,1.66,21.22,21.22,0,0,0,4.25.64,20.6,20.6,0,0,0,7.33-.94,18.72,18.72,0,0,0,2.84-1.15,6.85,6.85,0,0,0,.62-.31l.58-.31c.37-.24.72-.43,1-.65s.63-.42.9-.64.54-.39.77-.59.46-.37.63-.53l.45-.42a.46.46,0,0,1,.1-.09l.1-.1.23-.23.34-.35.29-.29a4.84,4.84,0,0,1,6.87,6.81,2.92,2.92,0,0,1-.24.23l-.31.26-.37.33-.24.21-.06.05-.09.08-.18.15-.85.69c-.32.25-.65.47-1,.73s-.76.52-1.18.79-.89.55-1.38.83-1,.55-1.59.84l-.87.4c-.3.14-.59.27-.92.39a29.39,29.39,0,0,1-14.56,1.94,28.72,28.72,0,0,1-11.47-3.95,28,28,0,0,1-5.21-4l-.59-.6-.3-.31-.1-.1,0,0-.06-.07-.12-.14-.5-.57-.12-.14-.15-.17-.29-.36c-.18-.23-.38-.47-.56-.71s-.34-.46-.51-.7c-.35-.46-.65-1-1-1.44a28.64,28.64,0,0,1-2.93-6.38,28,28,0,0,1-1.26-7,27.31,27.31,0,0,1,7-19.8l.6-.65c.2-.22.42-.42.63-.63l.31-.31.19-.19.16-.13.61-.54c.18-.17.44-.37.68-.56s.47-.38.71-.56c.48-.34.93-.7,1.43-1l.73-.47.75-.43c.49-.31,1-.54,1.53-.81a27.12,27.12,0,0,1,3.16-1.27,26.49,26.49,0,0,1,18.65.67,25.77,25.77,0,0,1,8.93,6.24,26.6,26.6,0,0,1,2.94,3.82,24.5,24.5,0,0,1,2,3.84,25,25,0,0,1,1.74,6.74A25.47,25.47,0,0,1,985,492.2Z" transform="translate(-932.07 -465.05)"/></g></g></svg>