<svg xmlns="http://www.w3.org/2000/svg" viewBox="0 0 55.74 55.79"><defs><style>.cls-1{isolation:isolate;}.cls-2{opacity:0;mix-blend-mode:multiply;}.cls-3{fill:#231f20;}.cls-4{fill:#3ac6f4;}</style></defs><title>tech and rnd</title><g class="cls-1"><g id="Layer_1" data-name="Layer 1"><g class="cls-2"><path class="cls-3" d="M976.84,818.63c-2.9,0-5.82,0-9.13,0,0,3.34.09,6.6,0,9.85a9.21,9.21,0,0,1-18.4-.32c-.09-3.06,0-6.12,0-9.54h-8.69c-5.89,0-9.87-3.78-9.89-9.38,0-5.15,4.17-9,9.82-9,2.82,0,5.63,0,8.76,0,0-3.11,0-6.05,0-9,0-5.47,3.94-9.66,9.15-9.76s9.18,4,9.31,9.57c.05,3,0,5.95,0,9.2,3.27,0,6.18,0,9.08,0a9.2,9.2,0,1,1,0,18.39Z" transform="translate(-930.67 -781.47)"/></g><path class="cls-4" d="M976.84,818.63c-2.9,0-5.82,0-9.13,0,0,3.34.09,6.6,0,9.85a9.21,9.21,0,0,1-18.4-.32c-.09-3.06,0-6.12,0-9.54h-8.69c-5.89,0-9.87-3.78-9.89-9.38,0-5.15,4.17-9,9.82-9,2.82,0,5.63,0,8.76,0,0-3.11,0-6.05,0-9,0-5.47,3.94-9.66,9.15-9.76s9.18,4,9.31,9.57c.05,3,0,5.95,0,9.2,3.27,0,6.18,0,9.08,0a9.2,9.2,0,1,1,0,18.39Z" transform="translate(-930.67 -781.47)"/></g></g></svg>