<svg id="Layer_1" data-name="Layer 1" xmlns="http://www.w3.org/2000/svg" xmlns:xlink="http://www.w3.org/1999/xlink" viewBox="0 0 1920 1080"><defs><style>.cls-1{fill:url(#linear-gradient);}.cls-2{fill:#fff;}</style><linearGradient id="linear-gradient" x1="883.94" y1="853.57" x2="883.94" y2="20.45" gradientUnits="userSpaceOnUse"><stop offset="0" stop-color="#0c192c"/><stop offset="1" stop-color="#0c192c" stop-opacity="0"/></linearGradient></defs><title>white treeline</title><rect class="cls-1" x="-350.69" y="13.4" width="2469.25" height="397.6"/><path class="cls-2" d="M1948,445.51h.5v662.9H-22.36V284.9l43.5,79.49c9.68-23.39,22.51-54.75,37.36-92C77.84,223.91,94,182.1,88.43,179.22c-3.08-1.61-9.77,10.57-28.93,24.19a140.73,140.73,0,0,1-32.36,17.11A662.41,662.41,0,0,0,84.5,133.91a661.48,661.48,0,0,0,29.63-60.5,593.39,593.39,0,0,0,27,169.61c-6.92-.46-16-2.23-24.13-8.28-7.73-5.77-9.78-11.88-11.83-11.33-7,1.86,5.83,68,5.83,68,5.74,29.63,14.66,70.46,28.63,119.48C194.55,314,204.76,289.2,201.85,287.35c-1.4-.89-5.21,3.91-14.19,9.56-14.52,9.14-29.36,12.19-40.54,13.21a1009.12,1009.12,0,0,0,76.5-194.6c9-32.41,15.82-63.41,21-92.6a402.12,402.12,0,0,0,27,89.6,402,402,0,0,0,40.5,72,60.66,60.66,0,0,1-25.79-4.11c-18.3-7.24-24.27-23.3-27.46-21.81-4.09,1.91,3,29,18.79,69.81,11.13,28.7,21.88,52.05,30,68.6a59.57,59.57,0,0,1-22.62-4.6c-16.92-7.1-21.89-21.71-25.38-20.26-4.76,2,.88,29.83,10.71,56.92a298,298,0,0,0,23.79,50.31,504.07,504.07,0,0,0,58.21-77.65c20.36-33.44,33.78-64.28,30.59-66.26-2.22-1.38-10,12.77-28.59,24.26a97.17,97.17,0,0,1-36.21,13.16A481.63,481.63,0,0,0,371,209.08,481.78,481.78,0,0,0,417.12,126a309.65,309.65,0,0,0,39,149.88,38.53,38.53,0,0,1-12.62,0c-12-2-17.25-9-20.62-7.24-5.34,2.82.79,24.14,1.46,26.4a772.21,772.21,0,0,0,27.29,76.81c13-23.65,31.25-57.08,52.88-97.48,5.84-10.91,50.6-94.77,45.57-97.78-1.86-1.11-7.81,10.36-23.07,17.78a63.24,63.24,0,0,1-30.39,5.9c22.69-27.18,45.87-57.1,68.89-89.9q20.22-28.8,37.59-56.5a660.72,660.72,0,0,0,13.52,182.88,110,110,0,0,1-17.11-14.38c-9.88-10.2-12.38-16.78-14.21-16.21-4.36,1.36,2.21,41.08,14.71,83.71a621.31,621.31,0,0,0,37.61,97,474,474,0,0,0,58.72-72.48c24.51-37.21,45.54-80.58,38.29-86-2.89-2.17-8,3.4-21.87,6.27A73.83,73.83,0,0,1,681.1,234c62.78-79.13,76.52-101.47,74-103.74-1.58-1.39-8.59,5.41-24.3,10.88a104.1,104.1,0,0,1-28.65,5.58,289.37,289.37,0,0,0,51.4-48.58,289.22,289.22,0,0,0,34.1-51.63,402.32,402.32,0,0,0,10.65,61.38,404.15,404.15,0,0,0,37.35,94.61c-7.14.34-15.83-.57-23.1-5.86C802.27,189.21,800,176.79,797,177.4c-3.64.75-2.52,18.26-2.52,18.26,1,14.92,5.13,45.81,24.6,107.35,31.6-23.7,46.44-41.28,53.9-52.1,2.38-3.45,9.59-13.91,7.26-16.32-1.52-1.58-6.32,1.14-11,3.07-7.23,3-18.09,5.63-33.65,3.86a266.65,266.65,0,0,0,45.9-40.61,266.34,266.34,0,0,0,29-38.89,343.58,343.58,0,0,0,39.88,141c34.8-41.09,55.3-75.68,67.67-100.1,11.81-23.31,14.57-34.11,12.38-35.49s-8.28,7.22-20.88,15a84.2,84.2,0,0,1-29,11L1074.08,69l40.5,154.5A71.51,71.51,0,0,1,1094.25,211c-10.29-9.05-12.66-16.62-15.72-15.89-5.58,1.34-4.53,28.22-1.53,48.77a229.89,229.89,0,0,0,12.08,47.1,257.67,257.67,0,0,0,65.42-69.1,251.06,251.06,0,0,0,17.08-31.39,272.32,272.32,0,0,0,11.92,40.39,275.12,275.12,0,0,0,40.5,71.5c24.13-17.87,35.25-36.72,40.75-49.25,6.7-15.25,10.31-33.07,7.13-34.54-2.16-1-6,6.27-16.13,13.79A70.14,70.14,0,0,1,1234.58,243a463.76,463.76,0,0,0,36.67-85.86,463.21,463.21,0,0,0,15.82-68.64,411.15,411.15,0,0,0,35.18,66.39A411.46,411.46,0,0,0,1380.07,225a64.41,64.41,0,0,1-21.57-2.61c-12.76-3.85-18.67-10.16-21.25-8.25-3,2.25.71,14.31,10.5,32.25,9.62,17.64,25.4,41.57,51.82,67.1a506.82,506.82,0,0,0,39.93-107.1c9.48-38.39,15.65-83.34,11.16-84.49-2.15-.55-5.28,9.28-13.32,23.16a179.05,179.05,0,0,1-37.76,45.44,535.55,535.55,0,0,0,26.93-94.11,535.34,535.34,0,0,0,9.07-82.5,333.57,333.57,0,0,0,45.93,93A331.36,331.36,0,0,0,1524.06,156a42.77,42.77,0,0,1-18.06-.94c-9.25-2.59-12.72-7.2-14.92-5.84-4.2,2.59,2,23.36,11.92,40.67,6.24,10.89,17.44,26.52,37.77,41.11a46.84,46.84,0,0,1-23.1-2.44c-7.64-3-11.8-7.15-13.46-5.86-3,2.35,6.61,19.58,9,23.85,9,16,22.17,39,39.33,68.44,44.41-65.62,53.95-83.15,52.29-84.38-.91-.67-4.57,3.92-12.6,8a56.93,56.93,0,0,1-27.69,5.86c54.78-74.52,67.59-96,65.44-97.78-1.42-1.15-8.46,7.13-23.25,12.17a70.22,70.22,0,0,1-26.25,3.5,358.82,358.82,0,0,0,52-67.5,358.46,358.46,0,0,0,29.56-62.75A400.16,400.16,0,0,0,1681,148.91a396.24,396.24,0,0,0,23.06,56.53,103.88,103.88,0,0,1-20.56-11.53c-12.51-9-16.72-16.43-18.28-15.73-3.23,1.43,7.5,36.42,53.83,153.33a273.1,273.1,0,0,0,36-112.49,127.23,127.23,0,0,0,43.5,72c.25-1.14.62-2.86,1.09-5,9.42-42.38,17.2-62.15,22.7-83,10.74-40.71,12-82.77,6.87-84-2.55-.59-5.52,9.1-13.95,23.8a310.91,310.91,0,0,1-36.2,50.61,524.89,524.89,0,0,0,27.62-115.11,522.34,522.34,0,0,0,3.88-65A401.49,401.49,0,0,0,1852,78.74a401.92,401.92,0,0,0,67.48,68c-10.47,3.72-24.14,6.42-37.73,1.67-11.58-4-16.83-11.31-18.92-10-3.06,2,3.35,20.88,40.71,89.58a146.92,146.92,0,0,0,48-81.28Z"/></svg>